<mxfile modified="2023-11-15T16:33:43.283Z" host="Electron" agent="Mozilla/5.0 (X11; Linux x86_64) AppleWebKit/537.36 (KHTML, like Gecko) draw.io/22.0.3 Chrome/114.0.5735.289 Electron/25.8.4 Safari/537.36" etag="lyWNxTOHzc8eWUWaxjMz" version="22.0.3" type="device">
  <diagram id="d1ab7348-05c3-a1e3-ca4d-12c340fd6b49" name="Page-1">
    <mxGraphModel dx="880" dy="531" grid="1" gridSize="10" guides="1" tooltips="1" connect="1" arrows="1" fold="1" page="1" pageScale="1" pageWidth="1169" pageHeight="827" background="none" math="0" shadow="0">
      <root>
        <mxCell id="0" />
        <mxCell id="1" parent="0" />
        <mxCell id="e0zx1OXjUzG2xtG4G9Sb-209" value="&lt;div style=&quot;font-size: 20px;&quot;&gt;&lt;span style=&quot;background-color: initial; font-size: 20px;&quot;&gt;&lt;b&gt;&lt;font color=&quot;#262626&quot;&gt;Cryptos &amp;amp;&lt;/font&gt;&lt;/b&gt;&lt;/span&gt;&lt;/div&gt;&lt;div style=&quot;font-size: 20px;&quot;&gt;&lt;span style=&quot;background-color: initial; font-size: 20px;&quot;&gt;&lt;b&gt;&lt;font color=&quot;#262626&quot;&gt;stocks market&amp;nbsp;&lt;/font&gt;&lt;/b&gt;&lt;/span&gt;&lt;/div&gt;" style="sketch=0;points=[[0,0,0],[0.25,0,0],[0.5,0,0],[0.75,0,0],[1,0,0],[1,0.25,0],[1,0.5,0],[1,0.75,0],[1,1,0],[0.75,1,0],[0.5,1,0],[0.25,1,0],[0,1,0],[0,0.75,0],[0,0.5,0],[0,0.25,0]];rounded=1;absoluteArcSize=1;arcSize=2;html=1;strokeColor=#F4F4F4;gradientColor=none;shadow=0;dashed=0;fontSize=20;fontColor=#171717;align=center;verticalAlign=bottom;spacing=10;spacingTop=-4;whiteSpace=wrap;fillColor=#FFF8E1;container=1;fontStyle=0" parent="1" vertex="1">
          <mxGeometry x="100" y="92.5" width="160" height="205" as="geometry" />
        </mxCell>
        <mxCell id="e0zx1OXjUzG2xtG4G9Sb-208" value="" style="shape=image;verticalLabelPosition=bottom;labelBackgroundColor=default;verticalAlign=top;aspect=fixed;imageAspect=0;image=https://uxwing.com/wp-content/themes/uxwing/download/web-app-development/api-icon.png;fillOpacity=80;" parent="e0zx1OXjUzG2xtG4G9Sb-209" vertex="1">
          <mxGeometry x="22.59" y="36.21" width="110.57" height="83.79" as="geometry" />
        </mxCell>
        <mxCell id="2" value="" style="fillColor=#F6F6F6;strokeColor=#4f4f4f;shadow=0;gradientColor=none;fontSize=14;align=left;spacing=10;fontColor=#717171;9E9E9E;verticalAlign=top;spacingTop=-4;fontStyle=0;spacingLeft=40;html=1;" parent="1" vertex="1">
          <mxGeometry x="337.5" y="28" width="1000" height="400" as="geometry" />
        </mxCell>
        <mxCell id="e0zx1OXjUzG2xtG4G9Sb-241" value="" style="shape=image;verticalLabelPosition=bottom;labelBackgroundColor=default;verticalAlign=top;aspect=fixed;imageAspect=0;image=data:image/svg+xml,PHN2ZyB4bWxuczp4bGluaz0iaHR0cDovL3d3dy53My5vcmcvMTk5OS94bGluayIgeG1sbnM9Imh0dHA6Ly93d3cudzMub3JnLzIwMDAvc3ZnIiB4bWw6c3BhY2U9InByZXNlcnZlIiBzdHlsZT0iZW5hYmxlLWJhY2tncm91bmQ6bmV3IDAgMCAxMjAwIDMwOTsiIHZpZXdCb3g9IjAgMCAxMjAwIDMwOSIgeT0iMHB4IiB4PSIwcHgiIGlkPSJMYXllcl8xIiB2ZXJzaW9uPSIxLjEiPiYjeGE7PHN0eWxlIHR5cGU9InRleHQvY3NzIj4mI3hhOwkuc3Qwe2ZpbGw6IzFENjNFRDt9JiN4YTs8L3N0eWxlPiYjeGE7PHBhdGggZD0iTTM3OS42LDExMS43Yy0yLjMtMTYuNy0xMS41LTMxLjItMjguMS00NC4zbC05LjYtNi41bC02LjQsOS43Yy04LjIsMTIuNS0xMi4zLDI5LjktMTEsNDYuNiYjMTA7JiM5O2MwLjYsNS44LDIuNSwxNi40LDguNCwyNS41Yy01LjksMy4zLTE3LjYsNy43LTMzLjIsNy40SDEuN2wtMC42LDMuNWMtMi44LDE2LjctMi44LDY5LDMwLjcsMTA5LjFjMjUuNSwzMC41LDYzLjYsNDYsMTEzLjQsNDYmIzEwOyYjOTtjMTA4LDAsMTg3LjgtNTAuMywyMjUuMy0xNDEuOWMxNC43LDAuMyw0Ni40LDAuMSw2Mi43LTMxLjRjMC40LTAuNywxLjQtMi42LDQuMi04LjZsMS42LTMuM2wtOS4xLTYuMiYjMTA7JiM5O0M0MTkuOSwxMTAuOCwzOTcuMiwxMDguMywzNzkuNiwxMTEuN0wzNzkuNiwxMTEuN3ogTTI0MCwwaC00NS4zdjQxLjdIMjQwVjB6IE0yNDAsNTAuMWgtNDUuM3Y0MS43SDI0MFY1MC4xeiBNMTg2LjQsNTAuMWgtNDUuMyYjMTA7JiM5O3Y0MS43aDQ1LjNWNTAuMXogTTEzMi45LDUwLjFIODcuNnY0MS43aDQ1LjNWNTAuMXogTTc5LjMsMTAwLjJIMzR2NDEuN2g0NS4zVjEwMC4yeiBNMTMyLjksMTAwLjJIODcuNnY0MS43aDQ1LjNWMTAwLjJ6JiMxMDsmIzk7IE0xODYuNCwxMDAuMmgtNDUuM3Y0MS43aDQ1LjNWMTAwLjJ6IE0yNDAsMTAwLjJoLTQ1LjN2NDEuN0gyNDBWMTAwLjJ6IE0yOTMuNiwxMDAuMmgtNDUuM3Y0MS43aDQ1LjNWMTAwLjJ6IE01NjksOTAuOCYjMTA7JiM5O2MtMy4zLDAtNi4xLDEuMS04LjIsMy4zYy0yLjIsMi4yLTMuMyw1LjEtMy4zLDguNFYxNTljLTExLjItOS4zLTI0LjEtMTMuOS0zOC45LTEzLjljLTE3LjEsMC0zMS43LDYuMi00My44LDE4LjYmIzEwOyYjOTtjLTEyLjEsMTIuNC0xOC4xLDI3LjMtMTguMSw0NC44czYuMSwzMi40LDE4LjEsNDQuOGMxMi4xLDEyLjQsMjYuNywxOC42LDQzLjgsMTguNnMzMS42LTYuMiw0My44LTE4LjYmIzEwOyYjOTtjMTIuMS0xMi4yLDE4LjEtMjcuMiwxOC4xLTQ0LjhWMTAyLjZjMC0zLjQtMS4xLTYuMi0zLjQtOC40QzU3NSw5MS45LDU3Mi4zLDkwLjgsNTY5LDkwLjh6IE01NTQuNSwyMjMuOWMtMiw0LjgtNC44LDktOC4zLDEyLjYmIzEwOyYjOTtzLTcuNiw2LjUtMTIuMyw4LjZzLTkuOCwzLjItMTUuMiwzLjJzLTEwLjUtMS0xNS4zLTMuMmMtNC43LTIuMS04LjgtNS0xMi4zLTguNnMtNi4yLTcuOC04LjItMTIuNnMtMy0xMC0zLTE1LjRzMS0xMC42LDMtMTUuNCYjMTA7JiM5O2MyLTQuOCw0LjgtOSw4LjItMTIuNmMzLjUtMy42LDcuNi02LjQsMTIuMy04LjZjNC43LTIuMSw5LjgtMy4yLDE1LjMtMy4yczEwLjQsMSwxNS4yLDMuMmM0LjcsMi4xLDguOCw1LDEyLjMsOC42czYuMyw3LjgsOC4zLDEyLjYmIzEwOyYjOTtzMyw5LjksMywxNS4zQzU1Ny41LDIxMy45LDU1Ni41LDIxOSw1NTQuNSwyMjMuOUw1NTQuNSwyMjMuOXogTTEwNzUuNiwxNjMuN2MtMTIuMi0xMi40LTI2LjktMTguNi00My44LTE4LjYmIzEwOyYjOTtjLTE3LDAtMzEuNyw2LjItNDMuOCwxOC42Yy0xMi4xLDEyLjQtMTguMSwyNy4zLTE4LjEsNDQuOHM2LjEsMzIuNCwxOC4xLDQ0LjhjMTIuMSwxMi40LDI2LjcsMTguNiw0My44LDE4LjYmIzEwOyYjOTtjMTUuNiwwLDI5LTUuMSw0MC41LTE1LjRjMi4yLTIuMywzLjMtNS4yLDMuMy04LjVzLTEuMS02LjItMy4zLTguNGMtMi4yLTIuMi00LjktMy4zLTguMi0zLjNjLTIuOSwwLjEtNS40LDEtNy42LDMmIzEwOyYjOTtjLTMuNSwzLTcuMiw1LjMtMTEuMyw2LjhjLTQuMSwxLjUtOC41LDIuMy0xMy40LDIuM2MtNC4zLDAtOC40LTAuNy0xMi4zLTJjLTMuOS0xLjQtNy42LTMuMy0xMC44LTUuN2MtMy4zLTIuNS02LjEtNS40LTguNi04LjgmIzEwOyYjOTtjLTIuNC0zLjQtNC4zLTcuMi01LjUtMTEuNGg4Ny42YzMuMiwwLDYtMS4xLDguMi0zLjNjMi4zLTIuMiwzLjQtNS4xLDMuNC04LjRjMC04LjgtMS41LTE2LjktNC41LTI0LjQmIzEwOyYjOTtDMTA4Ni4yLDE3Ni43LDEwODEuNywxNjkuOSwxMDc1LjYsMTYzLjdMMTA3NS42LDE2My43eiBNOTk0LjQsMTk2LjhjMS4yLTQuMSwzLTcuOSw1LjQtMTEuNGMyLjQtMy40LDUuMy02LjQsOC42LTguOCYjMTA7JiM5O2MzLjMtMi41LDctNC4zLDExLTUuN3M4LjEtMiwxMi4zLTJjNC4yLDAsOC4zLDAuNywxMi4yLDJjNCwxLjQsNy42LDMuMywxMC44LDUuN2MzLjMsMi41LDYuMiw1LjQsOC42LDguOGMyLjUsMy40LDQuMyw3LjIsNS42LDExLjQmIzEwOyYjOTtIOTk0LjRMOTk0LjQsMTk2Ljh6IE0xMTk2LjksMTUzLjFjLTIuMS0yLTQuNy0zLjYtNy44LTQuOGMtMy4xLTEuMi02LjYtMi0xMC4zLTIuNGMtMy43LTAuNS03LjItMC43LTEwLjUtMC43JiMxMDsmIzk7Yy03LjQsMC0xNC4zLDEuMi0yMC44LDMuNnMtMTIuNSw1LjktMTgsMTAuNFYxNTdjMC0zLjMtMS4xLTYtMy40LTguM3MtNC45LTMuNS04LjEtMy41cy02LDEuMi04LjIsMy41Yy0yLjMsMi4zLTMuNCw1LjEtMy40LDguMyYjMTA7JiM5O3YxMDMuMmMwLDMuMywxLjEsNiwzLjQsOC4zczUsMy41LDguMiwzLjVzNS45LTEuMiw4LjEtMy41YzIuMy0yLjMsMy40LTUuMSwzLjQtOC4zdi01MS42YzAtNS41LDEtMTAuNywzLTE1LjVzNC44LTksOC4zLTEyLjYmIzEwOyYjOTtzNy42LTYuNCwxMi4zLTguNWM0LjctMi4xLDkuOC0zLjEsMTUuMi0zLjFjNS40LDAsMTAuNSwxLDE1LjIsMi44YzEuOCwwLjgsMy41LDEuMyw0LjksMS4zYzEuNiwwLDMuMS0wLjMsNC41LTAuOSYjMTA7JiM5O2MxLjQtMC42LDIuNi0xLjUsMy43LTIuNWMxLTEuMSwxLjktMi4zLDIuNS0zLjhjMC42LTEuNCwwLjktMywwLjktNC42QzEyMDAsMTU3LjgsMTE5OSwxNTUuMSwxMTk2LjksMTUzLjFMMTE5Ni45LDE1My4xeiYjMTA7JiM5OyBNNjk5LjYsMTYzLjdjLTEyLjItMTIuNC0yNi45LTE4LjYtNDMuOC0xOC42cy0zMS43LDYuMi00My44LDE4LjZjLTEyLjEsMTIuNC0xOC4xLDI3LjMtMTguMSw0NC44czYuMSwzMi40LDE4LjEsNDQuOCYjMTA7JiM5O2MxMi4xLDEyLjQsMjYuNywxOC42LDQzLjgsMTguNnMzMS42LTYuMiw0My44LTE4LjZjMTIuMS0xMi4yLDE4LjEtMjcuMiwxOC4xLTQ0LjhjLTAuMS04LjgtMS42LTE2LjktNC42LTI0LjMmIzEwOyYjOTtDNzEwLjEsMTc2LjgsNzA1LjYsMTY5LjksNjk5LjYsMTYzLjd6IE02OTEuNiwyMjMuOWMtMiw0LjgtNC44LDktOC4zLDEyLjZzLTcuNiw2LjUtMTIuMyw4LjZzLTkuOCwzLjItMTUuMiwzLjJzLTEwLjUtMS0xNS4zLTMuMiYjMTA7JiM5O2MtNC43LTIuMS04LjgtNS0xMi4zLTguNnMtNi4yLTcuOC04LjItMTIuNnMtMy0xMC0zLTE1LjRzMS0xMC42LDMtMTUuNGMyLTQuOCw0LjgtOSw4LjItMTIuNmMzLjUtMy42LDcuNi02LjQsMTIuMy04LjYmIzEwOyYjOTtjNC43LTIuMSw5LjgtMy4yLDE1LjMtMy4yczEwLjQsMSwxNS4yLDMuMmM0LjcsMi4xLDguOCw1LDEyLjMsOC42czYuMyw3LjgsOC4zLDEyLjZzMyw5LjksMywxNS4zJiMxMDsmIzk7QzY5NC42LDIxMy45LDY5My42LDIxOSw2OTEuNiwyMjMuOUw2OTEuNiwyMjMuOXogTTk1Ny4yLDE1Ni45YzAtMS42LTAuMy0zLjEtMC45LTQuNWMtMC42LTEuNC0xLjQtMi43LTIuNS0zLjgmIzEwOyYjOTtjLTEtMS4xLTIuMy0yLTMuNy0yLjVjLTEuNC0wLjYtMi45LTAuOS00LjUtMC45Yy0yLjMsMC00LjQsMC42LTYuMiwxLjhsLTY2LjIsNDR2LTg4LjNjMC0zLjMtMS4xLTYuMS0zLjQtOC40cy00LjktMy41LTguMS0zLjUmIzEwOyYjOTtzLTYsMS4yLTguMiwzLjVjLTIuMywyLjMtMy40LDUuMS0zLjQsOC40VjI2MGMwLDMuMywxLjEsNi4xLDMuNCw4LjRjMi4zLDIuMyw1LDMuNSw4LjIsMy41czUuOS0xLjIsOC4xLTMuNSYjMTA7JiM5O2MyLjMtMi4zLDMuNC01LjEsMy40LTguNHYtNDAuOWwxMy41LTkuMWw1MS4xLDU4LjdjMi4xLDIsNC43LDMsNy43LDNjMS42LDAsMy4xLTAuMyw0LjUtMC45czIuNi0xLjUsMy43LTIuNWMxLTEuMSwxLjktMi4zLDIuNS0zLjgmIzEwOyYjOTtjMC42LTEuNCwwLjktMywwLjktNC41YzAtMy4xLTEuMS01LjgtMy4yLTguM0w5MDYuNSwxOTdsNDYuNC0zMC44Qzk1NS44LDE2NC4yLDk1Ny4yLDE2MS4xLDk1Ny4yLDE1Ni45TDk1Ny4yLDE1Ni45eiBNNzY1LjEsMTgwLjQmIzEwOyYjOTtjMy41LTMuNiw3LjctNi40LDEyLjQtOC41czkuOC0zLjEsMTUuMi0zLjFjNC45LDAsOS40LDAuOCwxMy41LDIuNXM4LjEsNC4xLDExLjgsNy4zYzIuMiwxLjgsNC43LDIuNyw3LjUsMi43JiMxMDsmIzk7YzMuMywwLDYuMS0xLjEsOC4yLTMuNGMyLjItMi4zLDMuMy01LjEsMy4zLTguNXMtMS4zLTYuNS00LTguOWMtMTEuNC0xMC4zLTI0LjgtMTUuNC00MC40LTE1LjRjLTE3LjEsMC0zMS43LDYuMi00My44LDE4LjYmIzEwOyYjOTtjLTEyLjEsMTIuNC0xOC4xLDI3LjMtMTguMSw0NC44czYuMSwzMi40LDE4LjEsNDQuOGMxMi4xLDEyLjQsMjYuNywxOC42LDQzLjgsMTguNmMxNS41LDAsMjktNS4xLDQwLjQtMTUuNCYjMTA7JiM5O2MyLjQtMi41LDMuNy01LjQsMy43LTguN3MtMS4xLTYuMi0zLjMtOC40cy00LjktMy4zLTguMi0zLjNjLTIuOCwwLjEtNS4yLDAuOS03LjMsMi41Yy0zLjcsMy4zLTcuNiw1LjctMTEuNyw3LjMmIzEwOyYjOTtjLTQuMSwxLjYtOC42LDIuNC0xMy41LDIuNGMtNS40LDAtMTAuNC0xLTE1LjItMy4xYy00LjctMi4xLTguOS00LjktMTIuNC04LjVjLTMuNS0zLjUtNi4zLTcuOC04LjQtMTIuNmMtMi00LjgtMy0xMC0zLTE1LjUmIzEwOyYjOTtzMS0xMC43LDMtMTUuNUM3NTguOCwxODguMiw3NjEuNiwxODQuMSw3NjUuMSwxODAuNEw3NjUuMSwxODAuNHoiIGNsYXNzPSJzdDAiLz4mI3hhOzwvc3ZnPg==;" parent="1" vertex="1">
          <mxGeometry x="659.66" y="40" width="310.68" height="80" as="geometry" />
        </mxCell>
        <mxCell id="e0zx1OXjUzG2xtG4G9Sb-447" value="" style="edgeStyle=orthogonalEdgeStyle;fontSize=12;html=1;endArrow=blockThin;endFill=1;strokeWidth=5;endSize=4;startSize=4;dashed=0;strokeColor=#4284F3;exitX=1;exitY=0.5;exitDx=0;exitDy=0;rounded=0;exitPerimeter=0;entryX=0;entryY=0.5;entryDx=0;entryDy=0;" parent="1" source="e0zx1OXjUzG2xtG4G9Sb-209" target="CcuzoNxnnxqacmadoABp-4" edge="1">
          <mxGeometry width="100" relative="1" as="geometry">
            <mxPoint x="582.5" y="205" as="sourcePoint" />
            <mxPoint x="360" y="195" as="targetPoint" />
          </mxGeometry>
        </mxCell>
        <mxCell id="e0zx1OXjUzG2xtG4G9Sb-506" value="" style="edgeStyle=orthogonalEdgeStyle;fontSize=12;html=1;endArrow=blockThin;endFill=1;rounded=0;strokeWidth=1;strokeColor=#4284F3;exitX=0.5;exitY=1;exitDx=0;exitDy=0;entryX=0.5;entryY=0;entryDx=0;entryDy=0;shape=flexArrow;endSize=5;startSize=3;sourcePerimeterSpacing=0;" parent="1" source="2" edge="1">
          <mxGeometry width="100" relative="1" as="geometry">
            <mxPoint x="860" y="570" as="sourcePoint" />
            <mxPoint x="837.5" y="510" as="targetPoint" />
          </mxGeometry>
        </mxCell>
        <mxCell id="e0zx1OXjUzG2xtG4G9Sb-514" value="&lt;b&gt;Google &lt;/b&gt;Cloud Platform" style="fillColor=#F6F6F6;strokeColor=#F4F4F4;shadow=0;gradientColor=none;fontSize=14;align=left;spacing=10;fontColor=#717171;9E9E9E;verticalAlign=top;spacingTop=-4;fontStyle=0;spacingLeft=40;html=1;whiteSpace=wrap;" parent="1" vertex="1">
          <mxGeometry x="567.5" y="510" width="540" height="190" as="geometry" />
        </mxCell>
        <mxCell id="e0zx1OXjUzG2xtG4G9Sb-515" value="" style="shape=mxgraph.gcp2.google_cloud_platform;fillColor=#F6F6F6;strokeColor=none;shadow=0;gradientColor=none;" parent="e0zx1OXjUzG2xtG4G9Sb-514" vertex="1">
          <mxGeometry width="23" height="20" relative="1" as="geometry">
            <mxPoint x="20" y="10" as="offset" />
          </mxGeometry>
        </mxCell>
        <mxCell id="e0zx1OXjUzG2xtG4G9Sb-520" value="Migration from the Docker cluster to GCP Kubernetes Engine " style="shape=image;verticalLabelPosition=bottom;labelBackgroundColor=none;verticalAlign=top;aspect=fixed;imageAspect=0;image=https://res.cloudinary.com/practicaldev/image/fetch/s--fbb8iSGT--/c_imagga_scale,f_auto,fl_progressive,h_900,q_auto,w_1600/https://dev-to-uploads.s3.amazonaws.com/uploads/articles/0r66d726r649w6vfx47j.png;fontColor=#0A0A0A;fontStyle=1;fontSize=17;" parent="e0zx1OXjUzG2xtG4G9Sb-514" vertex="1">
          <mxGeometry x="160.49" y="20" width="219.0232" height="123.2" as="geometry" />
        </mxCell>
        <mxCell id="e0zx1OXjUzG2xtG4G9Sb-516" value="" style="group" parent="1" vertex="1" connectable="0">
          <mxGeometry x="382.5" y="150" width="917.5" height="249.99" as="geometry" />
        </mxCell>
        <mxCell id="e0zx1OXjUzG2xtG4G9Sb-410" value="" style="strokeColor=#dddddd;fillColor=#ffffff;shadow=1;strokeWidth=1;rounded=1;absoluteArcSize=1;arcSize=2;fontSize=10;fontColor=#9E9E9E;align=center;html=1;container=0;" parent="e0zx1OXjUzG2xtG4G9Sb-516" vertex="1">
          <mxGeometry x="724.5" y="0.01999999999998181" width="190" height="90" as="geometry" />
        </mxCell>
        <mxCell id="e0zx1OXjUzG2xtG4G9Sb-414" value="&lt;font style=&quot;font-size: 17px;&quot; color=&quot;#4a4a4a&quot;&gt;KRaft&lt;/font&gt;" style="strokeColor=#dddddd;fillColor=#ffffff;shadow=1;strokeWidth=1;rounded=1;absoluteArcSize=1;arcSize=2;fontSize=10;fontColor=#9E9E9E;align=center;html=1;container=0;" parent="e0zx1OXjUzG2xtG4G9Sb-516" vertex="1">
          <mxGeometry x="244.5" y="100" width="190" height="29.99" as="geometry" />
        </mxCell>
        <mxCell id="e0zx1OXjUzG2xtG4G9Sb-417" value="" style="group" parent="e0zx1OXjUzG2xtG4G9Sb-516" vertex="1" connectable="0">
          <mxGeometry x="244.5" width="190" height="90.00999999999999" as="geometry" />
        </mxCell>
        <mxCell id="e0zx1OXjUzG2xtG4G9Sb-418" value="" style="strokeColor=#dddddd;fillColor=#ffffff;shadow=1;strokeWidth=1;rounded=1;absoluteArcSize=1;arcSize=2;fontSize=10;fontColor=#9E9E9E;align=center;html=1;container=0;" parent="e0zx1OXjUzG2xtG4G9Sb-417" vertex="1">
          <mxGeometry y="0.009999999999990905" width="190" height="90" as="geometry" />
        </mxCell>
        <mxCell id="e0zx1OXjUzG2xtG4G9Sb-419" value="" style="shape=image;verticalLabelPosition=bottom;labelBackgroundColor=default;verticalAlign=top;aspect=fixed;imageAspect=0;image=https://upload.wikimedia.org/wikipedia/commons/thumb/5/53/Apache_kafka_wordtype.svg/2560px-Apache_kafka_wordtype.svg.png;" parent="e0zx1OXjUzG2xtG4G9Sb-417" vertex="1">
          <mxGeometry x="5" width="180" height="90" as="geometry" />
        </mxCell>
        <mxCell id="e0zx1OXjUzG2xtG4G9Sb-422" value="&lt;font style=&quot;font-size: 17px;&quot; color=&quot;#4a4a4a&quot;&gt;master&lt;/font&gt;" style="strokeColor=#dddddd;fillColor=#ffffff;shadow=1;strokeWidth=1;rounded=1;absoluteArcSize=1;arcSize=2;fontSize=10;fontColor=#9E9E9E;align=center;html=1;container=0;" parent="e0zx1OXjUzG2xtG4G9Sb-516" vertex="1">
          <mxGeometry x="484.5" y="100.00999999999999" width="190" height="29.99" as="geometry" />
        </mxCell>
        <mxCell id="e0zx1OXjUzG2xtG4G9Sb-423" value="&lt;font style=&quot;font-size: 17px;&quot; color=&quot;#4a4a4a&quot;&gt;worker-1&lt;/font&gt;" style="strokeColor=#dddddd;fillColor=#ffffff;shadow=1;strokeWidth=1;rounded=1;absoluteArcSize=1;arcSize=2;fontSize=10;fontColor=#9E9E9E;align=center;html=1;container=0;" parent="e0zx1OXjUzG2xtG4G9Sb-516" vertex="1">
          <mxGeometry x="484.5" y="140.01999999999998" width="190" height="29.99" as="geometry" />
        </mxCell>
        <mxCell id="e0zx1OXjUzG2xtG4G9Sb-424" value="" style="group" parent="e0zx1OXjUzG2xtG4G9Sb-516" vertex="1" connectable="0">
          <mxGeometry x="484.5" width="190" height="90" as="geometry" />
        </mxCell>
        <mxCell id="e0zx1OXjUzG2xtG4G9Sb-425" value="" style="strokeColor=#dddddd;fillColor=#ffffff;shadow=1;strokeWidth=1;rounded=1;absoluteArcSize=1;arcSize=2;fontSize=10;fontColor=#9E9E9E;align=center;html=1;container=0;" parent="e0zx1OXjUzG2xtG4G9Sb-424" vertex="1">
          <mxGeometry width="190" height="90" as="geometry" />
        </mxCell>
        <mxCell id="e0zx1OXjUzG2xtG4G9Sb-426" value="" style="shape=image;verticalLabelPosition=bottom;labelBackgroundColor=default;verticalAlign=top;aspect=fixed;imageAspect=0;image=https://upload.wikimedia.org/wikipedia/commons/thumb/f/f3/Apache_Spark_logo.svg/1200px-Apache_Spark_logo.svg.png;" parent="e0zx1OXjUzG2xtG4G9Sb-424" vertex="1">
          <mxGeometry x="20" y="6.069999999999936" width="150" height="77.88" as="geometry" />
        </mxCell>
        <mxCell id="e0zx1OXjUzG2xtG4G9Sb-428" value="&lt;font style=&quot;font-size: 17px;&quot; color=&quot;#4a4a4a&quot;&gt;postgresql&lt;/font&gt;" style="strokeColor=#dddddd;fillColor=#ffffff;shadow=1;strokeWidth=1;rounded=1;absoluteArcSize=1;arcSize=2;fontSize=10;fontColor=#9E9E9E;align=center;html=1;container=0;" parent="e0zx1OXjUzG2xtG4G9Sb-516" vertex="1">
          <mxGeometry x="724.5" y="100.00999999999999" width="190" height="29.99" as="geometry" />
        </mxCell>
        <mxCell id="e0zx1OXjUzG2xtG4G9Sb-430" value="" style="edgeStyle=orthogonalEdgeStyle;fontSize=12;html=1;endArrow=blockThin;endFill=1;strokeWidth=5;endSize=4;startSize=4;dashed=0;strokeColor=#4284F3;exitX=1;exitY=0.5;exitDx=0;exitDy=0;entryX=0;entryY=0.5;entryDx=0;entryDy=0;rounded=0;" parent="e0zx1OXjUzG2xtG4G9Sb-516" source="e0zx1OXjUzG2xtG4G9Sb-418" target="e0zx1OXjUzG2xtG4G9Sb-425" edge="1">
          <mxGeometry width="100" relative="1" as="geometry">
            <mxPoint x="354.5" y="-150" as="sourcePoint" />
            <mxPoint x="404.5" y="-150" as="targetPoint" />
          </mxGeometry>
        </mxCell>
        <mxCell id="e0zx1OXjUzG2xtG4G9Sb-431" value="" style="edgeStyle=orthogonalEdgeStyle;fontSize=12;html=1;endArrow=blockThin;endFill=1;strokeWidth=5;endSize=4;startSize=4;dashed=0;strokeColor=#4284F3;exitX=1;exitY=0.5;exitDx=0;exitDy=0;entryX=0;entryY=0.5;entryDx=0;entryDy=0;rounded=0;" parent="e0zx1OXjUzG2xtG4G9Sb-516" source="e0zx1OXjUzG2xtG4G9Sb-425" target="e0zx1OXjUzG2xtG4G9Sb-410" edge="1">
          <mxGeometry width="100" relative="1" as="geometry">
            <mxPoint x="674.5" y="40.710000000000036" as="sourcePoint" />
            <mxPoint x="724.5" y="40.710000000000036" as="targetPoint" />
          </mxGeometry>
        </mxCell>
        <mxCell id="CcuzoNxnnxqacmadoABp-2" value="&lt;font style=&quot;font-size: 17px;&quot; color=&quot;#4a4a4a&quot;&gt;webserver&lt;/font&gt;" style="strokeColor=#dddddd;fillColor=#ffffff;shadow=1;strokeWidth=1;rounded=1;absoluteArcSize=1;arcSize=2;fontSize=10;fontColor=#9E9E9E;align=center;html=1;container=0;" parent="e0zx1OXjUzG2xtG4G9Sb-516" vertex="1">
          <mxGeometry x="12.5" y="100.00999999999999" width="190" height="29.99" as="geometry" />
        </mxCell>
        <mxCell id="CcuzoNxnnxqacmadoABp-3" value="" style="group" parent="e0zx1OXjUzG2xtG4G9Sb-516" vertex="1" connectable="0">
          <mxGeometry x="12.5" width="190" height="90" as="geometry" />
        </mxCell>
        <mxCell id="CcuzoNxnnxqacmadoABp-4" value="" style="strokeColor=#dddddd;fillColor=#ffffff;shadow=1;strokeWidth=1;rounded=1;absoluteArcSize=1;arcSize=2;fontSize=10;fontColor=#9E9E9E;align=center;html=1;container=0;" parent="CcuzoNxnnxqacmadoABp-3" vertex="1">
          <mxGeometry width="190" height="90" as="geometry" />
        </mxCell>
        <mxCell id="CcuzoNxnnxqacmadoABp-5" value="" style="shape=image;verticalLabelPosition=bottom;labelBackgroundColor=default;verticalAlign=top;aspect=fixed;imageAspect=0;image=data:image/png,iVBORw0KGgoAAAANSUhEUgAABLAAAAHQCAYAAACx7ZMyAAAABGdBTUEAALGPC/xhBQAAACBjSFJNAAB6JgAAgIQAAPoAAACA6AAAdTAAAOpgAAA6mAAAF3CculE8AAAABmJLR0QAAAAAAAD5Q7t/AAAACXBIWXMAACxLAAAsSwGlPZapAAAAB3RJTUUH4woOEjQxAz0ozQAAgABJREFUeNrs3Xd4HOXV9/HvPburLvcC7o1u08GFHpJQLY1MTULyJnme9JAOPOm9UAMhvXeSUDSSKQkkIYRiG0NCM73YuPequrtz3j9mDQZsayWtpC2/z3XpMtij2Zkzs7MzZ899bhAREREREREREREREREREREREREREREREREREZEi5Hb3l+tnT3OdhLVmNhVsItBi0Lnr7zlod8617Pp7BtuB5C7/n47+ABzmjPSrK3Cv/FsYhmkzM+ewGKRDi343HYYhgLel0yY8t9Z0uEREpE/9+4k4npXjSBHzOpl1iD57RERERETywG4TWCvnTDnYzL4JnAiUAyE7E1GvCjM/u64j/brltluU0HIu+rNll3Xt4NVk1/bM74aZv08BbZkfMNpwtAOtQAeQMmgHUi76M3TOtRukLLR2sE4HbaGjwxlJL6TD80gCbfsuXKqHERERea0HH/dIczTm5gKTcewA7gfXzOxDtipAIiIiIiID6w0JrBVzpkzF7PvA6Xm83SFR8itFlNAKM3+mM3927vJncpc/24B2g1YXJc1aHW5HiG3HrA3HJmC7M9fqHNsMtln0GmkHaZxLWhimY1gqFVrKOsIw8eiOcAxbdCaJiBSqBU/GwM4B+xpwwC7/sgP4C2aXMmfGRgVKRERERGTgxF//F2Z2uoNT83y7PaLKsHKguru/7HbdXSzMJKeMKAGWxmGZ4Y9hJtG1A9iO2Wbn3LYQt92LsYnKWHs4e+iGFQzdlkmKteBci5m1YLYNaPEc2zoraJ1899JQp5uISJ55/lnYkGzA7Gpg3Ov+tQZ4J7gngasVLBERERGRgfOaCqyXZ02s9Jz3feC9Ck23GFHFV9suPzte9+d6YFP0Y2uBLZjbYI71wHYHnc65dBiGHYTWYZtTqQnPrdRwRxGRvvLQkx4pOwOza4D997Lk3YTh2znu0DUKmoiIiIjIwHhNBZYzHJDYfWcs2QsHVGR+hnaxbBpciqjSKxqaGCW51pnZdufcKmJutRtRtnHFiMkbDTY52ApsAdtoxrY4bN534dKUwi4i0kP/fdrRkT47U3k1rYulR4IbBiiBJSIiIiIyQF6TwBq/aFnritmTHwEuAqWx+kgs87OrIbxx6ApEB6GdnUMYcVudoyUNW1fMnrwaWAe2HFiJuZVE1VwdmHU4rD3dGnaWP9YWjmaDoi4istPiJz060mdgdiVdJ69ERERERCQPvLEHFtbscPOA4xSevLCzsmvEbv7NMtVcSRxpolkeV+LcasOt8qq81cnZtctWULsBWAu20dKsHf/g0h0Kq4iUpEefcbSlsq28EhERERGRPLHbKqvlx00+wYV8HzhUISp4KaIKrs1EQxE3Ew2DWQq8iNkycCvw2GLm2kNLt7jQkhMefFn9t0SkuCx+0iOdVc+r13uIdHgBxx/6ooIoIiIiIjIw9jhMcPlxk493IdcDhytMRcmAJFGCqwNYnvl5AVgJrABWOGx1ymPlUj/RetIlzylqIlKYHn8WWpJ1Paq8MhYShhdy/KHLFEgRERERkYGx1z5Xy+dMPgrjCgenoJ5YpaYD2EA0c+J6YIXBEuBpBy84x+YwtJbQbPvERctChUtE8tZ/nnB0ciLGj4CDuv37xiLC8AIlsEREREREBk6XSamXZ006yDl3nYO3KFwlL01UtdUGvExUrfUEmeotM150aVs5bvHSVoVKRPLGwidOwbgOmNGj31cCS0RERERkwGVVVfXyrEmHZJJYpwCewiavkyaq1FoDrAWeMXjMGU/heNnMtqadbZ+0YFlaoRKRfvPwE44kJ2J8j971dFyY6YH1soIqIiIiIjIwsh4W+PKsSQd5zl0OnI2GE8reGVFvrU6ipNYTRMMPn3Xwgpk9Hzq31gMbt+AlRUtE+saCx48B9wt6Wnn1qn9hXMic6WsVVBERERGRgdGtRNTyWZOmOueuAuYCMYVPuqmDqJ/WGuA5g//iWOzgpZhjS8xLbxt1r2Y/FJEcuP/Rg3He93HulF6vy/gHKbuQE2dsUGBFRERERAZGtyupls+aNDmTxGpAlVjSO2kyMyA6WGLwX+BpD1sSplk67sGlbQqRiHTb/Y9Ox3nX49zJOVrjP0gqgSUiIiIiMpB6lIBSJZb0EQN2ACuBl5xjEcYig2dxbGgPk9unLVyhCi0R2bP7Hz0I5/0gJ5VXr16ZVIElIiIiIjLAelxBtUsl1jyFUfpISNRHayXwEI6HzXgC479xx9pysGHqoSUiOy14bBq474M7LcdrvpPQLuS4GZsVZBERERGRgdGrIYCqxJJ+FhLNdrjUwSM47jbjUcOtsjC9dcKiZaFCJFKiFjw2BbzrgLPI/fD2+XipC5l5eKsCLSIiIiIyMHp9k6+eWDKAksA64D/AA87xIJ491o7bOPW+lzTUUKRULHhsGnjXAmcAXh+8QhN0XMjso9oVbBERERGRgZGThFMmifUt4BwgobDKAAiJklkvA/c4+CeOJ+NhuHr0wmVJhUekSC14bGomedUXlVc7NUPnhcw+UhNLiIiIiIgMkJzd7L88a9K+nnPfAd6JKrFkYBnR7IZPAfc4x73ObKE5t2bsAy9pmKFIsej7yqudboK2C5l9TFpBFxEREREZGDlNNL08a9JYz7lvAxeiSizJH1uAl4D7HfwVx2NlLlw98v5lKYVGpED1T+XVTn9k9vR3KOgiIiIiIgMn5zf9mUqszwLvB8oVYskjRjSr4WPAv53jbjxbmIqVbZp4z7PqmSVSKBY+PhFz3wfOpG8rr3ZSAktEREREZID1ybfWK46dNBjPfRbHx4BKhVnykBHNaPgc0GTw95hzz4954MUtCo1IHlv4+FjMXQ2cT/8NV/89s6e/U8EXERERERk4fXbzv+LYSYPw3OdwfAJVYkl+C4ENwAPAfM+zu9KWWDFu+BBz8xcrOiL5YtHjYwnd1cC5QKwfX/knzJ7+QR0AEREREZGB02dDL8Y9uHQboX0buAZoUaglz98HowAfuD4MXeAsdeWqDRtmrzpu0lC7UQESGXALHx9L6K6i/5NXAJrJVERERERkgPX58ItVsyZVhc59Evg/oEYhlwKyAfgXcIcHd8U8b8Xo+19QryyR/rZgyWCwK4D/of+TVwDfZ/b0i3UgREREREQGTp83vx2zcGmrZ3Yt8B1gu0IuBWQEUbXHD0JoTIbhZStmTz5izfGTKhQakX6yYMlQsC8D72JgklcGbNOBEBEREREZWP3VAJdVsyZVhs59ClViSeEyYAVwi3P2Z2fusfjw4S2jbn1IkRHpCwuWDAa+DPYhYKASxyHwDWZP/7IOiIiIiIjIwPH664XGLFzapkosKXAOGA98zMz9KYRfJjdurF81Z8oQhUYkxxYtqQW7DOyDDFzyatf3voiIiIiIDCCvP19szMKlLZ7ZNcAVwA6FXwqUAyYA5xv8PjT71crZk/1VsyfXrD3nOEVHpLceXFKN2aeAi4HKAd6aEGjVQRERERERGVhef79gphLru6gSS4pDDeAb/DKEP6ZWrapbNWfKUIVFpIceXFJLaJ/B+Az5Mdw8BNp1YEREREREBpY3EC+aqcTamcTaosMgRWAoMDdTkfXLnRVZaxpmKzIi2XpwSTWhfSqPklcQ9b5L6uCIiIiIiAwsb6BeeMzCpa14dg2OLwObdCikSNSyS0VWes2as1fNmVKrsIh0If8qr3YKMWvRARIRERERGVjeQL74uPuXtqcS9iMcX0OVWFJcdlZk/TY0u27lnEnHrDpuUkxhEdmN/Ky82lWogyQiIiIiMrC8gd6ASfcsTYYeP8bxBWCVDokUmaHAu83cTWHorlk1Z/J+m46eoBnNRHZalLeVVzuF4Np0oEREREREBpaXDxsx4b6XOjot/UOLZp1arsMiRWbnrIUfDY0/tCZi719+/ORhCouUvAefKMfsw3mcvIJoCKGauIuIiIiIDDAvXzZkyoKXLTS7ycw+DSzToZEifb8dA1zt0vxu5ZzJb149e3JCYZGS9OATlYR8GOP/yN/kFaiJu4iIiIhI3jxQ542Ji5alW5LJG83sMuBlHR4pUtXAmWb8Ig1fXTFnyhSFRErKg0+UE/JBjC8BQ/J8a9PAdh00EREREZGB5eXbBh348ErSZjeb2YeBp3WIpIhNAC7B7MYVsyc3rJwzpVohkaJ370MxQt5fIMkrERERERHJE14+btSkRctSixYtvc3MPgM8q8MkRSwOHAn8wsy+s3L25AlrT9xfTd6lON37sEes7FyMz1E4yasQR6sOnoiIiIjIwPLydcPONTCzO8zsE6gSS4rfUOAjBjcmk8lzV86aVK6QSFH59+IYscT5OHc1sE8BbXmIUxN3EREREZGB5uXzxk1YtCzcvn37HarEkhLhgGOBn+HcF1cdN3lfhUSKwr0Pe8TLz8G5K8GNLbCtD8GpAktEREREZIB5+b6BBy/ZqEosKTWDDS4JQ36+fM7kWVuPHq8hhVK4FjzgiJedhfO+A25cAe6BgevQgRQRERERGVheIWzkhEXLwvb2dlViSSkpA850xm+2J+LvXjF7coVCIgVnwYMOas8CdzUwuUD3ohMIdTBFRERERAaWVygbut8ja3ZWYn0ceEyHTkrE/sDVwOdXzJ68j8IhBWPBAg8qzwJ3HbBfAe9JC0pgiYiIiIgMuIIcmrR81qSTnHPXAYfpEEqJSAM3YXw+XhZ/cZ9/P2cKieStBYscVJ0F7hoKO3kFsBg4ndnTN+nAioiIiIgMHK8QN7o9lfq3mX0UeESHUEpEDDgfx5/SqfSbUg2zFRHJTwsWeJnkVaFXXu3UgSqwREREREQGXEEmsPZ7aIWNX7j0vkxj9//oMEqJcMDRZnbdmjVrzlt6/OQyhUTyyoJFDmrOzFReTSmSverETBWPIiIiIiIDzCvkje8I0/8m5F3AP3QopYQcAvwonuajq2dNKlc4JH9UnVFElVc7teCcKrBERERERAZYQSewpj243MYtemkJIR9HSSwpLcOBL6Sdu3jFsZOqFQ4ZcAsfPwXclRRP5VXE2EFoaR1gEREREZGB5RXDTmSSWB9FSSwpLUOBrxBzn1s9Z+oIhUMGzMLHT8Hc94GDi3DvNIRQRERERCQPeMWyI+MWvfQ0xkeB+YAeNqRUVAOXhNjXVh83daTCIf0uSl5dR3EmrwBrITQNIRQRERERGWBeMe3MuIUvPQ18DGhGs0ZJ6UiY2f+GZt9QEkv61YIlR2SSVzOKeC+3k9YQQhERERGRgeYV2w6NW/DSUuDTqBJLSkvCzN5tnrt8S8Mx4xUO6XMLlswAu4riTl4BroUWfSEiIiIiIjLQvGLcqXELXnoB+ASqxJLSUmbp8F3J1vbL2993xjiFQ/pMlLy6HnhTCextB7c9pM8REREREZEB5hXrjqkSS0qRmcU6W1rPa1m99jvtHzhLlViSewufOBDsauCkkthfZzv40f/quIuIiIiIDDCvmHdOlVhSiiwdxtu3bLuwbf2Gy+2yC1SJJbmzaMl+wFXAm0tnp12LDryIiIiIyMDzin0Hd6nEUhJLSoal07GOzVvPa129/jt22QWqxJLeW7RkP8yuxDgDcCW05+06+CIiIiIiA88rhZ0ct+ClF0KPj+D4E5DSYZdSkGrviLesWXdh55btl9vn36FKLOm5KHn1XYy6UvncyGgH2nQCiIiIiIgMvJJ5EJlw/0urzONSHH9BlVhSIjq3t8RaVq87L2xp/Y7934UTFBHptih5dVUJVl5BlLxSBZaIiIiISB4opW/SGX/fSyvN4zOqxJKSegLfuDneum7T2yyV/q5deuFURUSytmjJtEzl1dxS+7zISAKdOhFERERERAZeyT2QjL/vpdXm+JTBD9DQECkBFobsWLXG69y6vR64xi65YJqiIl2KKq+uLtHKq53aUQWWiIiIiEheKMVv1Bl//0trQ7MvmdkPgFadBlLs0u0dbF++Opbu6JgLfNcuuUCVWLJni54Yn0lelWrl1U5tmL7oEBERERHJByX7YDJx4dJtBt807IcoiSXFzjk6t22ndc16Z2ZnAD+3z5x3tAIjb7DoifGEfBvjTEq38mqndsxUgSUiIiIikgdK+Zt1JixcusXga8DVwDadDlLMzIyWNetIbt8Rw7mTce4HSmLJayx6YhwhVwBvA2IKCG04VWCJiIiIiOQDr9QDMGHB0u1mdiVwFbBDp4QUs3Rnkh2r1hImU4A7Fue+b5857xhFRljw+D6EfBs4T58Nr+ggdKrAEhERERHJA3pIAcYvXLrdzK4GrkCVWFLk2jdvpX3T5sz/uZk47wd2yQXH2ZcucopOibrvkcEYlwHno8qrXXVAqFkIRURERETygBJYGeMXLm01s+8SVWJtV0SkWFk6Tcua9aQ7Onb+1THAj2hLnqjolKD7HhmCF/sCzn0IKFNAXqOFqk5V5oqIiIiI5AElsHYxfuHSHZlKrCtREkuKWOe27bSu27jrX80ArrdLLjhJlVgl5L5HBuPFvoRzFwPlCsgbtHLk0SmFQURERERk4CmB9Tq7VGIpiSXFy4y2DZtItXXs+rczgOtViVUiFjxSQyz2qUzllZJXu6fPABERERGRPKEE1m6oEkuKnnMkW9to27Dx9f/yaiXWly9SnIrVgkeqIX4JuE8DFQrIHqknooiIiIhInlACaw92VmIZfBnYrIhI0Ql3VmG1w2sHDUaVWK3JkxSkIrTgkRqIfwb4FFCtgOxRGn2BISIiIiKSN5TA2ovxC5fuCMPwhwZfRUksKTYOki2ttG/aAvaGf1UlVjF6pfKKS4AaBWSv0piu+yIiIiIi+UIJrC5MXLSsIzT7iZJYUpTMaNu4iTC12z7VM4Af05o8wy45W43dC50qr7orjZkqsERERERE8oQSWFmYuHBpe2jhjzEuA1YoIlI0nCPZ0krH5q3gdpujOhD4HlSdYZfMUxKrUKnyqidSODYqDCIiIiIi+UEJrCxNXLisg/bwFxifQkksKSKWStO+ZSuWTu9pkWngroP46XbJWUpiFZoFj1Wr8qpHQnBq4i4iIiIikieUwOqGcY8sC0mGt2SSWMsVESkKztGxeWummfse81PTwF0PNRfYZecnFLQC8dCjZeB9BFVe9UQaT0MIRURERETyhRJY3TTu4WVp1x7egvFJ4AVFRIriSb0zSfvmLWC2t8WmAtcSunfaZecpiZXvFj1eQTJ2MfBZVHnVEylMQwhFRERERPKFElg9MPaRZelyC28BLgaeU0Sk4JnRvmnrnpq572o08G1C75126flxBS5PPfRoGaH7CPBFYIgC0iOt4DoVBhERERGR/KAEVg+NXLTMRnV2/hX4BPC8IiIFzTlSbe0kd7TubRjhTqOAb2Hu3Xbp+RUKXp5Z8GSMZOz/AZ8DBisgPbYOSCoMIiIiIiL5QQmsXih7eKWVh+EdwMdQJZYUuDCZpGPr9q6GEe40Grgc+JBddl65opcnFjzjwC4AvgwMU0B6ZTuQVhhERERERPKDEli9NHLRMhvT0aFKLCl8ZnRu30GYTGX7G8Mw9wXMfcguPb9SARxgC56MQ+ptYN8BxiogvbYZUwJLRERERCRfKIGViyD+Z5WVqRJLCp1zJFtaSXd2ZjOMcKdhmPsS8EFVYg0gewkIG8CuAMYrILmIqW0iHaYUCBERERGR/KAEVo6MWrTMxra13YEqsaSAhckknduyHka401BVYg2gxU/GWNQ6F/gWqrzKHec24XlKYImIiIiI5MstukKQW+uPnei1x7xTHVwDTFdEpNBUjhzOsP2ndKcKa6fNOPs6zn7oLr+xQ5HsB7YFFq2ci9l3gakKSC5jy2XMmX6FAiEi3XWa/xaqqfS8132QhpglSdv84DZTlERERLpPCaw+svy4ySe5kOuBGYqGFM5Du5GoqWb4IfsTKyvryRo24ezrwE/cFX9pU0D70OInY6TtLMyuBPZXQHLufcye/nOFIXfO9N9FGZurwCqB3T3AJ414a1MQqPeYFCzfb4g7wpOA0xzUvOYjFlLAAsMFQRDoM1JERKSb4gpB3/jLpzbfc/41Qz/qQr6PklhSKJwj3Zkk1dpGrLy8u0MJIeqJ9UWg0i654Dp35Z9bFdQ+sG4VvLj5TMyuQZVXfSENbFUYcvlQ7w92bPXBezPY4Dd+f2aAa3PY8w1+/c8bg6aXFDUpyI9RwlOBnwHj9/AJ+k6HDQZ+rGiJiIh093NW+tSKOZNPwrgSOAr1HJMCMXjyBGrG7duTBNZO24GrgGvclX/eoYjm0OInPdJ2tiqv+tRm4EJmT79Toei9Br++Avg8UY/Imix+5TbgQ41B03JFTwrJ6Q1vp9Jargc+2sWi9xrpc4Pg1nWKmoiISPaUUOlj4x546Z7Q7D0G9ygaUhDMSLa1YelejeKpBT4DfNouuUCN3XNl6VJI287KKyWv+k5b5kdyYwbwfrJLXgGcBpyjsEmhKbe2BFCd3WekG6yIiYiIdI8SWP1gwsKlS8zs4wb/ZPd9P0TyiCPd2k6Y6nUbmlrg08Bn7TPnDVVce+m/jznW7NCwwf6xDTMNIcyBBv9sB5wLjOrGr8WBM32/bqQiKEVM94MiIiLdpARWP5mwcOnjZnYxcJeiIXnNQaq9I6rAcr0eZVwLXIZz37HPnDtcwe2FDu9EjCuA/RSMPrcd57YpDLl4QnejgZN68KtzHByiCIqIiIjITkpg9aMJC5c+adjFQBNRk2CRvBSmkqQ7OsnRF8Rl4N6D875pnzl3hKLbTQ8/4Vj4xCkY30MP9P2llZAWhaH3HN4pwEE9+NVqcOf7foPuU0REREQEUAKr341fsPRZM/s0cDsqH5c8ZQbJ1rZcnqGJTBLrW3bpBfsowt3QabMzyatDFYx+s4PyUJMP9JLvz60ETgUG9XAVsyE9UZEUEREREVACa0CMX7j0hUwSqxkIFRHJO2ak2ztyvdaoEsu4yi69YJyCnIX7H52B8R1guoLRr7Zx9KFq4t5LDm8/4K29WMV+DneSIikiIiIioATWgBm/cOlzmSTWbagSS/KNGan29qgUK7fiwAUYl9ulF+yrQO/F/Y8egvOux7kTFIx+t0YhyIm3AmN78fvVwFm+P1eztYmIiIiIElgDSZVYks/CZJIw3Set2uLAhRhXqhJrD+5/dEYmeaXqk/6XxtigMPSO79cNBc7MwX3GiQ5vf0VURERERJTAGmCqxJJ8FaZDwmSqL689qsTanQWPTcPzrsG5UxSMAZECJbB6y+FmkpuhryOAMxRREREREVECKw/sUol1c+bhSWTAHz8tlSbdmQTn+upFVIn1egse2w+874J7s4IxYFKYaQhhL/h+XRlR0mlkF4tuAl7I4j7lNN+v0wymIiIiIiVOCaw8MX7h0udCs08Af0HDCWWgObAwxFJ9nk9VJdZOCx6bGiWvOFMn4IBK4rn1CkOvLh/jgNOzWPQ+4Fd0/cXNDId7kyIrIiIiUtqUwMojExYuXRmaXQb8EUgrIjKQLAwJU/1yGu5s7H61XXLBpJIMdlR5dS1wlq7LA64Tz9YpDL1yItDVe7nD4GbDbgWWd7FsLdgp9f5Z5QqtiIiISOmKKwT5ZcLCpStenjXps55zBpwP6IZdBkSUwOq3Ea0x4EKgyi45/xPuyr8sLZlAv1p5pT4/+WEjabddYegZ36+vBuqBsi4WfcGD+9K4l11UiTV574u7UxzxicCz+brv+/lHcwhj4h6uzKAMXK1htRBWAiF4OxxsBDqiaTLak7cGdw1478uz/LdQRkUCvLLovtANMsIasKpoCa/d4baDbQeSECZTdHTOD+7Mm76d9f6ZXox4meHiQLXhaiCsAisDl4pib9uAdrBkirBjfnBrXvcdbfDrEu7Vc2mwEdZG+0Po8DYB28DaDetsJ53+a3B73mz72f45lJEsB5cwqDQYBOEgwAPX6fC2g20FOiHs7KQ1eVvwD11ARUSkS0pg5aEJC5euWD5z0iedc6txfBwlsWQAmBmWToP12z2+A+rAYZec/2l35V9eKPogR5VX1xBVXkl+2IhTL8Kev4ntMHBHZrHoPwy3vCkIUg1+fRMwD6jey/JTHXY6fZjA8n2/zGEHEvXusl2uS6HD1hju2cagKb2b30t4hBMNNx2YaXAoMBFskIM4eF5mfSGwA1gJ3gsJqhY3+PX/NezpIGju96Sp79cPcnAAcCBwNFHT/dHRdrsYuFhm0RAsBbRntv2lOJX/bfDrn4Dw+ZBwVVNwW7r/t98vc9hYYH+wIzLxnwLs67B4tP0uE3tLZ7Z/LbilcbxHG/z6xw172vCWNwVBXrznfd9POOwAonNopsFBmXOpyr1mf0gB28E953BLKvEe9v36/+x8Tw3c9teNcLgDIXWI4WYB04CxDsrAi+18P2WOxzZgFbhnyqhZ3ODXP2LwQpLxO24Lvq+LqYiI7PGBUfLUimMnDcZzX8TxEaBCEZF+ZUbN2H0ZNHk8zvXrpcKA+WCf5Iq/vOiK9SoVVV5dR1R5pWGDeXPecyNm7+W4GTsUjO45229wCcIvAV/pYtENwLsag6Y7Mg/tExz2F2BmF793u8HbgqBpW+4fvM+MO+LvBXcJsM/r/jkElgLfCuHGpqApBGjw6xPAEcDbiYZNHkz3v3BaDtwL3A7cXkH75huCv/V1kmGIg9PA+cDxwNge3g9uBJ4G/oWzPwLPNjY292ny5Eh/KBM4vgzcEQ53DnASUeKtqgerawGeBBaBBYY9EATz23qzffV+Q8Ij/Anwni4WfcQIzwuC+c9n3gNxCI9yuHcAbyFK/HTnS+Z24PHMufQ7hz1xS9DcL4msc/2zvTSxfYC5RNWXRxHNHtqdz7UQeBH4DxAY4T+CYL6GcouIyBuoAiuPjXtw6dYVx076Op5L4/hoD2/QRHos3FmB1b9ZJBfdCLuhXHb+p+Evi4susIseH0/orkKVV3nIVpIMOxWH7kuQ3gdcNs3blxhu4c7/6aB8eQXtd9N1AusIokqhf+b+opMYC3wmkzjYnUOBTzhsIbBsnu9PMuz9wDuBMfQ8CT2eKAF2FvDPdiquq/cb7msKGnNe0eT7fpXDTgU+AhxHVPHWm4v78Mx6ZmHubcDv5/n1P20nsfL24Kacn1/1/jzPIz09s/1nA6OJhp/3VDVwTHROubc53F8b/PrrwXu4MWjstyqmeX7dRMM+QpS82reHx6Qisy9HAucY7kcNfv0vG4OmPp2Q4hzfH5HG5gIfzLxHevplq5d5700FznR4Dzf49d912F23BM2turqKiMiuHxiSx8Y9uHQroX0TuIpo6IFI/z3KhyFmA9ImxAEnYO5au/T8I4sqqIseH0vorsw8gEm+cW49ZemkAtEjRwOHdLFMCDR/dt7vNu/8izuCPxtRBdLqLn53Xwen1Pmn9cW9yzBgVFevD27IPL/uMMN+DFxKNONiLrZnMNAA/Moj/fZ5DXU5rbo+x/enOuzbwG+A04AacleFHyMauneZwc/KSR6W64Nzju9XxUi/F/g98D6ipGEsV+96omTcO4DfQvixhoa64X398QrQ4NefZLjfAJ/K7JPLwbGYCHwduL7Bn3vQhf7cPvkGqsGvPyjErgF+ABxLbkYKuMy5eRLwS8Nd3uDXj9WlVUREdlICqwCMe3DpNmd2BXAFSmJJP7Iw7M8eWLszB3Pft0vPn1UUAY0qr64GzkMVsPnJsY45R5oC0T3RECh3LlDbxaKrgX/MfFft657m3WKi4UNdPjfHqBioB9qYg7MM92vgreQugbKryeCux7xPnNPQUN3blY30v0iDX39iiP2CqHJpaB/Gp5xoSPTPGvz6Y3O10ga/fkSIfcXgamAGfdv+Yn/gm5i7psGvP+Bs/9y+ep24w6sDfkaUrMn1uZQAzgfvV514x+RyxWf757oGv/444LdESb/KPorRMODDwK8a/PqjdZUVERFQAqtgjF24tMUzu4boBk5JLOkfYV48x8/OJLFOsM83FG4sFzwxlNB9BThX19681UrIBoWhRxeL6cCcLBb8l4M3TNAQBEE7URVWV0PnphH1bRoII4iqrg6jb5Mogw27NLTw7fW+36vExvE8NpuoQqYvkiR7cgxwdYNff0BvVzTPrx8MXA58DBjUT9tfQTQ09OcJkof20WtMAj4H7NeH++GIGsF/q8Gvm5KrlSZIzgG+R1Rx2defZR5RT7DvzWvwD9d1VkRE9BBVQMYsXNrizK5ElVjSLxxm4atzcQ2sozB3PcnEKQUZygVLhgFfAi7qx4dI6b4tYJsUhp5cLdyJwOQuFttmcOstQdOePr/+RdezDJYDZ/j+2QMxsUkF0VC//mgKOBT4vIf1OFnX4NdNJhpKNn0AYnU88BXfn9vjiq95vl9N1JfsIvp/NmaX2Ycr5/l1E/pg/bVEwxb7w5vAfanBr+919V2DXz8T+D5Rr63+NNvMvtbg10/U1VZEpLQpgVVgVIkl/Xn7PoA9sHbnMMxdY5eef4J9bl7hzE24YMlg4AvAB4AynVh5bQs4JbC6/1A7nKivUlfJ2ZfB3bunfwzxXgDuyeIl54B3SJ6Gw4BOohnutmV+Wum6smx3JgKf9v25o7p/TPwKcB8CTu7Gr20HHgNuAK4BvkY0o+S1QCPRjH3biPqYZWOuw5vX80Bag8FHu3ndNKIZ+bYQzXa5LvPnlszfd/cD7RSDi33/7IGYRCeVOXe2A1sz93ydPdgHB5wLdsGp/lE93ph5ft0+wBeBw7ux/RuBe8F+Bnwb+Grm3PpT5lzb3o39ORO4zPfrKhERkZKlHiwFaMzCpS0rZ0260pxLEw1nqFFUpEQcjrnrScU/Cdyd91u78InBmH2JqI9HuQ5f3tsGbFYYuu0w4IQslrstRnqPjdqbgsaOBr/+TuBCYMhe1jPZ4d58hv/m/9wR/D1fMuxtwCOZnycMWwtue/RPNtzhphL1bzqWqPF7tvdfb3F476rz5363OZjfnSTYMcD5ZFfxuR24w+A3DhaDtYZYp1GWNsCjI+7hlYGrNtyhDpsHzKPrpvfVwLt9v/6OIGha1Z1gzvP9Awy7tIvzYFcGvAgsMOxf4J52UfKkBagw3Giw/V2UfDkJODjLY5AA97+O2H1AUz+cRyGwDFgMPA48a7ANXAeEtQ43DjiQVydMyHZYZTW4jw5i3L3w8JLubpTv+15m1s3TsvyV5wz+AO52sOcNazNiScMzjzDmSCccbkjm2nERUe+0rirEYsDbHSw42P/D754M3qErr4hICVICq0CNXbi0ZdWsSdeEznnAp+m6ca5I8TwsR5VYHyOWvs99++b8bLj94JJqQvs0UeWVkleFYQuESmB1w1z/HAepM+n6i5TNYLffHMwP956FcPc47AVgb6UiHnBGBVW/gAHvWZYCFgG/MtxfgVVBENgekgAVYIe7aBKHdwIjs1h/BfBuD6+R3fQO2516/+w42FlEFVxdeRq4ynA3BkGwbQ/LdGZ+dgB3+b7/b4fdQzQ8cVoX6z/GYacAf8g+WVJfnkmWZFtltwm4weDX4B4LgqbO3SzzHHBfvd/geYT7Ae8G3gOMzmL9Q4AP+379vUHQ1JcVmquAnxuu2XCPNQWNyd3H5xwHqXEOTszsw0lZ3s8fDLxtrl//5flBU7cqAj04xuC9WbxOCrgT3DecF1vUeMvNu3u/h0CSqLpsle/79zrMz5xPk7pY/2BwHz+Avyx6suvhxiIiUoQ0hLCAjVm4tCXtcTmOL0cPXiIlI6rESsdOysutW7SkltAuwfgUURWCFIY1zDm0VWHIXpzUVKImy10N633AoiFoe5UksRm4ka6HFR0JbvoA734K+I3hLgzxfhkEwco9Ja8galQfBE0LQ+xzRAmU/2b5Ogc6uCD7G7vYYODULBZ93LCPpEn/ci/Jq93tR0eS8j8DXyZKHu1NObizfd/Pehigi6py5mV5j/qMYR8w3CVB0PRQEASde1u4KWgMG4OmZwz3FeBiskwKAjMdvLmPziMD7jV4B17860EQPLyn5FUU/5stCJqWt1D9B8O9E7iOaHhkFqHl7BhM7c7GzfP9GsPeA3TVCywkSiR+oDEIFuwhebW782mH4f6QOR7ZJKWOBN7m+2fpGUZEpATp4l/gJt7/Uns6bj/A8Q2UxJLSsrMS6yT7zIX5cy17cEk1Zp9W8qrgGFG/HOmeWXRdhZM0+EcQNHdZLXVbcKMBfwfWdrFoLfC2s/23DlQ/vBRRVdHngiBY0RQ0Zl0J2hQ0d3RQfjtR9fTzWfxKDDjN9+eOzPIlaoiGKe7Ny8Bng6D5n83Brd2uYr01+IuFWCNwSxaLHw5hVkmTOv8MDzgFGJ/F4i8bdlmK1M1BELR1Z/uDIOhIEb8JuCyLcw2i5v2n+/7cvrim32PYh4Kg6V+Nt9ycyvaX7gz+SBAEqw33DeA3mXOyK4c47JjuXRhtf6Ihfl291+4Bvh4ETSu6G4AgCCzEux34bBbXYQc0QHw4IiJScpTAKgIT/720M4zxAxxfyfJGTCSrx3nnHC6/26Ufgbmf4OzMvNiaVyuvPoOG9RaaJMYyhSF7vl83GKgHumpw/QK4O7K/9LgXgQeyWHROgor9B2j3HwA+1xg09SjpeXvwF1qp+hfwXaKhVF053OEdl+Xq29l7ZZQBN4G7qzcBaAqa24C7iHrH7c0+DndgNuuMUTY0c0511bsrBfzCcLfdGtzeo2Hk84ObzXDNwC/JrjH9LIc3Osfn0XLgq0HQvKSnKwiCYIvhrgAWZrF4HNwZ8/z6rFqI1Ptne0TVcF1VX60Hd2Vj0PRcz8+nxtDwbgV+TjTEcG+muaipu4iIlBglsIrEhHtfarc4PyRq6r5cEZHeM5wXI98zWMABwFV2yQVn2CUXDNzGPrikRpVXBa0TeElhyJ7DTSPqv9OVBR72fLbrDYJgM3ArUQPuvdkP3PEDsOtbgB83drMx+ev9Lbghk0jKaubFQWCHz/VP87I4LpuAXwNriJJjLa/7WeDgV41dDLfL8lPiv3T9xdkQuk6A7FzjIUA2SclHDft1U9CU6s32B0GQJKqkeyaLxSfTdWVbd6SAn6Tx/t3bFQVB8CLwU6LJBLpyRJhd7y8csZ0zjHZlfkj6nt7vR2Nn5tx9vItFq4G31PtnDcTskCIiMoCUwCoi4//9UjIVhn8ws0tQEktKywFEfUDOto/N7f/rWlR59RlVXhW0JB4rFYZuORvoahhPB9htt3Qz0WDRLKNdJRTLgbN8v25QP+/3ndaNirK9yVRw3URWVVjuuBjlg7ta6pYoKXOdwVzD3hf1iHrl592G/T8oW5KL7XfYaqLm7l0Z+Rb/HVl8weBmEw3X25sQuIlY+Ypc7EPoEk8SDYXsqpIrlsX53h1LgZuag8YwN6tzdwH/yeZYOOzgLI/vYXQ9GcB64MamYH5rjt4TzwHNQFeN5o90xCYiIiIlRbMQFplJi5all86ceGMM4s65b5H1t54iu7td9+i67UXe2A+4jvLK4fbpc/7grr452S+vuujxCswuVuVVwWvB2KgwZMf360cRNQrvKmH8oOEt7P4ruOVg/wS6atR+HDADuL+fdr0VuDMIgi25WqHh/uWwVXTdS+wQhxsBdDlTZmM0E99DmZ8+46DTuk40ANRUsSXOXoaG1fsNcQgPzOLedJWDexpvvjEniZ+mxpuswa9vJJoxdkQXRyuXX5Dc5Zy3NFcrS+Otj5G+N/Oe2JtB4KZkeYSP6TomPIvzcnyeub+CfRwYupeFJjvcROApXZFFREqHKrCK0KRFy8KU2Q2GfYLsGsSK7P4C4Xk4zxXSJk8Gdzle7F328bpYn7/aoicqMfdhjMtQ5VWhW0Z2M3lJlLg4CTi0i8UMuCdJebeH2gVBkCaqwuiqumekw/VnL5xVEN6d21jaCrLrX1RrXVfD9Kvsm09ZDELXRRyGkd0QvefNeS/mdj/ck8BP9nINSAJ3gFuUo5dMAw/d0tjYkat9aA5uSQOP0fUwwnK6TkpR79dVAgfS9bdYz6TSqRwn/+15oKsqwQqwgw72dT0WESklqsAqUpMXLQtfnjmxCUfaOXcl2fWUEHntA0WsIHpgvd4ocN+grCK0T5/z+z6rxHrwiQpCPoTxBWCQzpaCtwKzDoWha74/twJ4M10P9VoF3H5b8Gfr4Us9RlRZtbcePA440ffnjgqC+f0xi+SThsvpUNPGoKmzwa9/ELioi0XLHLYf0SyN/epM/zwStJV7eBXgKoiqTccYtr/DZTM7YhbngA2Lrt9dejk0NuRy/4IgaPN9/xqH/Yeo19Wu51eSqOprwS09mGFvDzYZ9nLuj5StIuqBNraLBUcM9n/P1uCivb2xhr8uFruTNuzp+c3zLZd7EZJu8/Ce77rHnTvoQOoST9KcRERESoISWEVswqJl4dJjxs+PxWJp59x3iYZYiWTNeQ5XmJu+T1SJFa+xyy78qbv8T7lNTNz/aDlpPgB8KYuHeCkMLxM6VWBlc13AGwe8NYtF/+uiJt890hg0rW/w6/9FNFRxb/crRzi8k4Ab+2H3HwsdffGw/AzQQVQds5d7Nje6L3fO932AKgiHOtgX3HBgFHSOhtjOJuaTomsslQ5XBpTl4rW9qMJsaFe5DYOXmoLGdK73PQiCTSf6771ld//27+CXuX65TUS9o3LKsA0Ot42uE1jVJ/PnsqZo8oo9vM/dELpuQ5FyuBW534+wA2LZJIqnGm6vQ1NFRKS4KIFV5CYtXm4vz5x4BxBTJZZ07wYSvMKswNppJPAVQnN26YU/cVfkKIn1z/s8nDsX+CxKXhWTVRw/PaUwZOWMLB6Q00DjLUHQq6SgwV0OPtTFg3Q1cJrv190aBM1tfbjfBrzU3Ngc9sG6NxPNbri3BJVHlDjKCd/3445wMLhRBvs7OAhsf2AMuKFEw8wGE80i2OdDskOodl0PxU6BbeirbeiDRNWetIP1wbnqtRAlQrs6lSsdYYK9JLCASrpOKBpQ3eDXTyS3bUksy/WN1LOMiEhp0UW/BKgSS3rCOffqEEKzQt2NYcBXMXN22YU/cpf/qXfTxt/7cJxY4lycu4IspyGXgtAOrFAYuub7cwcDpwOJLhZ9GrgvB1eiJ8DuAd7ZxYKnuqgyqK8bOvdJ8sSwbQ63PovrSm3vj2H9SAdHgh0P7gTgYAc1RJVUsQE8vWJZ3JemyW7Ww3xnRLMp5vqTOwWWq+q0WqCqi2XKge8CfZH8L89imSrDDQK26+osIlIalMAqEarEkm7fBjsPL14Ul4ghwJcIzXpViXX3A14meXUluDE6Q4rKJmCdwpDFdQHvGODILBa9L8Rb1tvXC4Kgo8GvvxU4v4sH2rEGb6JvE1hG3yVPOoCWLJbr0Uyn8/y6hOGmAhcSDck8iKjHUR6dW5QTVf3sTRolK/pLLV03cHdEyc8BfI5J1+hQiYiUDs1CWEImLFoWplKp+Wb2KTQ7oXR5dXC4WNFcInZWYn3QLruwvNu/vXCxR3mtj/OuAjdOJ0fR2YTlvh9Nsanzz4oBJ9P1MLaNYE1NQc5mWHsYeKKLZRIOV+/7c0cUZnRdB9CaxYLlvu936xrm+3VTDPd5oAn4AnA8eZa8yojRdQWYsfdhb5I71ZD3bTA9ctSDTURECuQRVSEoLZMfWmGY3WFmHyGa4Ulkt48IXszDSxRVkeYQokqsD3QribXgt2AVZ+Hc5XTd90cK0wZibq3CsHcx4vsCZ2Wx6FOGLcjV6y7hkBfIbua9wx3ekX0Ygk76ZqgUEKbJrhF1jK6HbwLg+35Zg19/jsP9DvgiUeV1TGeyZKm8QLbTdKhEREqHhhCWoPGLloXAnctnTepwzl0PzFBU5PX3g87bOYSwqO4No0qs0JxdduGPu5ydcMFiDyrOBHctMEXnRdFaxcxDNikMXToJODCbB1+H97EGvz5HF48lITCRrmfpGwmcUufX/bM5aO6LRJP18QXRdWM79uoc3x8SYh8CPpO57uVSSDSUcg3R8NuDgUF6exQdzewnIiJ5RwmsEtaZTv+7LBb7uHPuGuBwRURe8yTledEshMX33eYQotkJq+yS865zV964+2E7C74DVJwF7hqUvCpmhhq4d8n36yqAs4GKLBY/JvMzEOpj8H1gZR+su5wsq596cMXNpv8TRBMO7HX2ukzy6kvA++lZzyzLvE5r5rV2AMuBF4CXgaWZ/99iWLvD3QQclqP3ouSPHQVwTJaCW6VDJSJSOpTAKmFTFy834O7lsye93+GuJPp2XSR6nIrFim0I4a6GAJ8Hz7NLzvvuG5JYqrwqJUmMZQpDF9eDqFL32ALY1MnAm4HfFOD9WDZDtsIgCPY4e12978dD7GLgI3SvN1AqSgbwFPC0wXPAcnDLHbYSaDfCdJIw1cq+dnfwcwAa/Poyclep00mUONtbktQjuySq9F42sxnunNgg7OdtM+B5cFd5ZdWbdahEREqHEljC+AVLF6+YOfmjeFxHNItTdg80Zrhdvpwz57C87/cp2fIScZxX1O1SqoHLwMM+c8F17qo/R7OLLfg+qrwqKZ1oUou9Ots/24E7GZhUAJtbAe4M36/7cxA0t+d43Y4+Sp44XBXZDcPbutfrNnYK8GGyS16FwCpgAdAIPG64lSHelubgFutGTHKVkUi7rnuMxVw0O570vW2Zc2RvNwKdhn0d3L30b19dA9aCW9b4lz+qck9EpIQogSUAjFv00hMrZk6+GI8fEM0y9cYbYwujBiDOoz1RwaaqYbSURbMXl6U7qW3fRm37duJhCs9CHIbhMKekVsFxjlh5GSWQj6wFPodjkF1y7hXuihs3sfCJs1R5VVLa8OwFhWHPEngjgHkUzsQvx2Qqxhb3wboH99E2VxFVhnZlj9Umvl9XA3yArmeJhCgRdqPhfg72aAdh+x3B/B5kEVytw3LV7DtJ1zMMxsAN1buyX+wcQtrVsNm1QdC0UOESEZH+oASWvGLcopeezCSxrgBOJ5O+cGaEnseqQWNZsu907pt6Ii8Mn8rWysF0xssxHPEwRUWyjdqO7UzatJQZKx/lgHVPM2brSoa2biYWpkl7mvyokMTKS2Zm6irg4+BVnXzr7Xf/a+Skb2Cm5FXpWI657QrDXh1F1Ki7UEwC3jzXf+vD84M7czm0yYFNONN/i7s9uCvXVR+j6brZehpYv5eNO57sqqhXAF91cENjELT0cruHkbOqNNsObnMXcUgAo/rqxPH9+goPGwy7fvNmFsKOJNZyWw+SfAVsB7CWvVcGJhxuki6RIiLSX5TAktcYt+ilJ1bMnnwxcC1wpmeht7ViMLdOr+MvR17I8yP3pzMWJ/Qy93YWZblsl1u9ByYfR+KIC6jqbGXGqsc46uXFHPPyIg5Z/QTVHS04jNB5CnY+c454eXkp7XE5uA9etOyxix4dPHrI5kQl6idcMl7A9t4Uu5T5vh8HO4fCmmXOA3d2jMpfAOtyfHE8rIzKBF1XCmXtLf47gB0H0nWlSxJ236+tbt75jrDjbKCr6qS1Bv+XJnHD/OCmXif3HDaF7CrHslnbDqJha13eqtT7fqwpCNK5PLINfv1BwPsNd0TmWBjgwKUcvFiG+1WdP+/ebgyvLGiGbXW4lcB+e3+vMd33/ViQ4+MhIiKyO0pgyRvvDBe89MLKWZM+CRYuHzL+rO+d/MnYnQedRktZNV4mYRUL33Cn8xopL862ikHcO/V47p8yh1E7NrDfumeY+3jArKUL2GfbGjwLlcjKU+6VIYQOrFQSORZ/24onhjxTO4Lv7jeTlM7NEjnsvEgyVAJrj8Kp4I4twA2f4bCjgDtyvN7DwA0HVudqhTW0VAJzsli0A9xuh7t6Yecw4MAs1nGjEd6Yi+RVxiF0XTmW7SfPRrDVwBFdLDjZIxxDNBNiTszz/WGGfRU4bw+LnAgcEyN9DvBMaVwa2eTgRfbQVmLX4wHpfeibmT9FRERee8+jEMjujF249Plr3nTp9Zf612xtOtSnNZO86vYJZtFptqZ2FP+eegJfmHs5F5/3Y35y3Id4buT+0S2rhQp4vl0Y4nG8RKLE9tpRlU5y8QuLmLlp5WtHkEgxH/YXOenQlAKxp/C4UzNJiq6ERA24++Mnm0qPWnD+XN/P9Rt5soOzc5soCKcQDdPsylrD9jBjpo0mGoa4Ny1gi5qC+TmpHmvw64dnkhs56Q8QBMEm4OUsFt0P3EE5PgYzgbd2sdgBWb4XikJTNAnC03Q9w+A0hzdTV0sREekPqsCS3aq63cb9yPE+YIhn4HpZhLMz+ZXy4jw69lCe2Hc6zTMaOHtJMw2P3sSYras0i2G+MIhVlONisRKqvnr1cX186zb+d+l/eXDoWJKecvxFbivRLGyy+wTFEOCsLBIULcC3gbvp+6kfQmAa8A1gQhfLHhcjPBhYksPXrwQafL8uCILm9b1d2Vsb5uDMzQXGZLH4Y4btoV+bVYOr7uL3Ow3L5ZDKI4HZuf34sccdrgPY2xj2EcCbGxrq7m5sbE729jV93y8DewdZNei3krpJMdzDDtvA3vuODQHO9/26vwdB87ZcvO45fn0shMnAVLDa13xIQwrcc4Z7OggCffkgIlJilMCSN6i63cY5uNoZ59AHVXqeRTMZPjdqGteP+Dj3TzmeeY/cxKnP/p2hrZuUyMqDW9ZYeRlerHSTN8dtWM7B29fx6JB9SzCJV1JWAUsVhj1eCw4Bl01lxTIIf9sYzF/eH1vl+/5/HHYq8P+6WPRgFw39WpLjTTjZ4c75lH/4j68JHunViqptxH7A27K4HwuBB5qC5j1NOODoOnkYyyLJlZUG368GezcwPMexXQBsoetqsrMx+xXwVG9f0GHHAadkseg2cKV2vfgP8CxdN85/M7jjyNGQXYMzgMuJqu12d66vctgl+PYXAt0vioiUEpUXyGtkkldXOjiXHA0L2OPJZxC6GA9OPJavn/FlvnLG11k0aTYpF8cpaTCgYmUJXKlWHznH5NYtHLN5NSiRWuzW4alvy17eDGeTXX+juwy3ur+2KgiCDuBWum747cCd6vt1tTnehErg4y8x4ajerMT351aC+19gehaLr3Tw4F7+vSXzszfVDje9tzt/vn+mA3sXUJ/zMw7vOeC/WSx6AHgfafDra3t3DOoGA+8juwq4ZxysKaUrQIi3FbiTrmc1Ge7gQw1+fa9niJzn+zMNvk4082liNz9xourLi3zqhiEiIiVFCSx5xSuVV1ET0347NzyD1rJqbp9+Fh879wf86ISPsK52NLEwjdNMcANwVfCIV1ZACQ+fi4cp9t++kVio0QlFbiUzp29WGN6owa+bQtQTqKss7jaD24Ogub/fLP8gqgzpyonAYX3w+geCu7zBrz+gJ7/s+w1xh3cR8IEsP28Xh7i9JXY2ZH72JgY0NPh1Pe7jdP28b5MicSbwGaA610FtDIIdwJ/puu+SR1SB94Fz/PpEz46BX+FwHwQasvyVf6VpW11K14HMjIvziZq5d+UtwIfO8eeW9fT15jX4Mwy7Ejg8i8WdZgsWESnBR1WFQACqbrfx/VV5tdu7kEyfrU3Vw/jRCR/mU/Ou4/4px5P0EqrG6u+LQjxGrLy8xKPgGNe2jap0ClVhFa0Q43mFYY/vgZlANo2yF4B7tP8PnrcVaM5i0eEOd2adf15fvJHfBPyywa8/Y57vZ/3QPs+vH+ERfhL4Gln1XaIV3E1BELTuaQFz5evIbna8w8B9rsGvn9jdnfV9v/af4cL3GHwXmNJXx9ZwDwCPZbFoDfB/IXy2wa8fd+67TiT7Y+APd9gngP8DKrL4lWXg5jcFd5bcrDMh3hLgZrrOFlUAHzO8D8/rZmVcvV/nzfPrTzKz7wMnZPlrz4TYFl2rRURKi3pgyc7Kq6scfdPzqluPTAYpr4yFk2fy0ojruGjxb7jwoT8wrHUToVO+tc+Z4cXjxMrLSr73U1U6SUwzZBazjiwfkkuO759dBXY6uMouFk0CfwuCYG1/b2NT0Bg2+PX/BD7I3od/ecApHp3jyW6Gu259ZAFzgJ8bdnODX3+bwUMOtjiwTpIWwyNBzKVxMSMc73AnG8wDTiW7xAnAA8Df9hqPxhvN9+v/5uDtRImdvcXjbcDkBr/++8DtwNbGoGm3F3zzoQG/3GGzMj2vzu1i/Tl4Y5Y/W0H7H4lm/Ouqumo48Dng+PS2ob/1/fq7HaxN0p6+NfjbK/tU559BnDLPoobjpxj2duDMbhyDWw33SCleD5qCxqTv+39wWB1wYBeLD7MoMXtIQ0PddZ7ZkoN4yr4R7P67gjq/zsVhvOHON7iYridm2Gmpg6bm4DZ9SIuIlBglsEpcVXM4dpfKq7zIEDkgFsL6mhH88PiP8tzI/Xnf/T/m4DVLlMTqB14iTry8TIGQYteGs2cUht1dg2PTiBIsXXk5kwAZEAZLXNT0+5wuFj3MwTHkPoG10xjgI8CFLnqNFw3WxolvdLh4CMPBJjncZGAc3Rt6t9HgR0EQbOr6uLn7wBbTdUNyRzR74MHAo8BfG/z6h4G1QHtmmQQwfB5Md9gc4GRgn/64T7gj+DO+7//GYScTJZm6Uk40fG2WiyZleCRB+dMNft1qokR1BTDKYD+ifmMHkF3l207Pg/tZEDS2leo1wfAed6R/AnwTqOpi8VrgPZg7IcTduYRD7mzwD3nRRedWGohZ9B4YA8wyqCNKVmZb+t0O/Cx0sQW6WouIlB4lsEpY7a02wuCbGOfh8m84qTPoiJdz6/S5vDh8Ch+87wec+szfKUt3KpHVZ0F3xCsqcLFYyYci5cU0G2ZxWwNuo8KwW6fT9SxwGPzDcC8O1EYGQdOWBr/+VqIZy/b2UF0J1DX4dbc3Bs19lYTwgJGZn6MAHM4ycerNheRP4G7LZsHGIFjX4Nf/BDiU7GYHHEzUI+x4op5TW4lmACQTz6FAGQPw5VYQ7cuVRAmnbKtyaoEZ0Y8zXttHy6Nnx6EFuLqTmkdL+YLQFNxivl/3G4c7lqiCrysxokThAUR93tYZbAY6iZKjozLnaLybx8WAGw37UdB4i5pUioiUIGUBSlTtrTbKHN/G4x048jZb4YhuQ5fsewhfO+Nr/PbYd7O5apj6YvVhwBPVVYoDxsaySjq8GGoSW7SewqxFYXitBr9+JFECq6svuNod3NEUBMmBfafyT7JsMG24Kf28eY7eJa/uM7gmM+tilvGwW4Hf0XUT9NffC8YzCYWpmZ99iSqXvIE7tt79mdnoNvQw9rFdfnpyHNqA7xn2+9uC35f8tSEImjcDXwXu6uavlhFVHs4gSu4eSlTNl+jmcQmBvwNfzWyLiIiUICWwSlDtfBthjm/j+H8USBWeZ7ChZgTXnHoJV7z5/1gzaB889Sfqg6ctR6KqEpwqj9aWV9MRU5FqEXuKWLhDYXiDI8hu1r7FYA8N9MYatgr4axaLjnDRrIq9ezl4iqiKpK89Anw2CJq6VeEWBM0thvs20Ux+6X7Yzg3Amr5YcRA0JnH2G8O+Cqzr51OrxeB6wy4PgmZdJzIag6ZngE8SJY7789udzsw5/bHGoOkFHQkRkdKlBFaJqb7Dai3GpTjeSdfNUfOKM0h6CYJDG7is/moeHXM4TtUxub0glCWIVZSXfBw6YwlerB6KebpEFqk08AIzD1MWfBd1/hlxsJOAYVnE767GoHnFQG9zU9CcIqrK2NbFogngZN+vH9yLlwuB7wC/IBpa1heMKHl1cWPQdF9PVhAEwTrDfTqznR19GP5nLEpm3N9XLxA0NifBfmZwKdlV2uXCy8CXwb4ZBM1b+/K2ZmDfPT27f2oMmpYAHwZuJapS62vLgW8a9rHGoOlpXalFREr8eVUhKB3Vd1gVcAnwIQosebXr3V7KS/DAlDl87cyv8tD4YzJ/r0RW7+9ljXhFedT/qpSHaJqxrryKF6qHavRg8VqL8ZLC8Prra1kC3L7ZxM9wzXnzlsUtJrskyr4QDutViGC54T4DfAFyfg6lgGbgf1PEe5UUCoJgNdHsfF8HVud4OzuBvxnufYbdwKt9s/YWupQRC3u2L/M7QmK/A96biU9fJeXagTuAdxvuuiBo3taDczGdOY7ZxLC9D/YhRVaVdy5pxHpcodcYND1j2PuAK/rg/NqpFZhv8P8M960gaN6AiIiUPCWwSkT1HVYLXOaMT9HHU2D3/UNWNKTwsTGH8X/1V3Hr9Do6Y2VKYuVAvLISL1Hqw+aMl6sG83TtiNJO5BW31TglsF4vJN4BPNFFgiAEbvPInxkcgyDY5OBmuq6KehZcb4eiuSAIWkPs+wbvAm4A1vdynR3AQwaXGnywMWh6eH5wc68vPo1B00bDu8qiWYZ/Bayid2n5FPA48CXgndupvbcpaE4DCzPJhj3ZBixuDm7tcdPt5uCW8CGOv8ew9wLvB/5F11V32dpBVMX3P4Z793Zq7w6CINXT7QQWZ3EuLoJwVR+8HTYQDXPdmzZgYVMwv71377vmtYb7DtEsoL8EltH7r30s8376B/BRnPufWO0+PT4eIiJShM+rCkHxq7ndKjA+CXyK7k3fndccsHTYBL791i/SUlbNef/9M7Ewjal/U894HvHqSpznlXbixnn8d/A+rC+vQiVYRWs5JNcoDK81P7g59H3/dw4bBZxGNK297XLJ3Q48AFx7S9DUnk/bbvAnYAgwl2gmwF0/KpLAfwy7NgiaczL0LzN08T7f9x9y0bDLucApwKRM3PY2OUpIVCWzLpPs+LvhbuvELb09aMxpXIKgsQN4wPfrHwKb43D1wAnAwUTNtbPZzi2Z4/5Pw93hsOcbgybbJcA3WdSUey7RTIC2SzJiC3BjLir2lgeXsBw2nu+f89tOUvNdFO+TM/szjajpfFcN2y2zT53AUqLKvX8a7q4gCDbm5lx0N2beQw1Esznu+kHSCiw23PVBcFvOe5QFQZDyff9yh3UCx2aO8a7HYzNwq+H+kKPXawcW+L7/sMOOIpoA4mSi2SNr6XqWQSNKjLYAzwL/MuxuCO8Pglu366osIiK7ywFIEau5w6owPkw03GFwMe5j6GBEywYuvuc65j1yExXJdiWxesBLJBh2wFTKhw4u6QRWSyzBBTPP4bZ991cFVnEKMb7FnOlfVCh2z/f9Kg8bZq9LbjhIhrgtQRC05uN21/sN8RjhcIsSGa895rjNOyjfcVfw593+boNffwRwdxefkyHwlsag6Z9vfO36CgejHUwzONhFCaLRREk1L/O7O4BNwLOGexZsCbjVWxm25e7gl/0Vo4RHOJpopsHDgYMMRjkYmrknTBlsd7ARbIXB4w73tINVKWJbmoNbbA/nTLmHDbc3tCewjhC3oSloSvXN/vgVjnCEw00x2N/B/kTJtOHs8oVdZp82OVhpuKVgTxosN1jXFDS15X676so83EiieOwas5RhWzYxs+Xfwef78DjXVXm44UTv4V1fvyPE29gUNCb76HjEMsdjn8z74LDM8RiROR6OKIG4nSiZtsKwZxzuSYM14NYHAzyzqYiI5Dc95Rexmr9aOSEfBT5PdHNavE+kDoa0beO9C37Kuxb9murOFiWxusOMRE01Iw7ZH6+srKTj8MiQfTh7zttYWTVICazi1I5xEXOm36xQyE69TWDt6nB/BhOZ7Bxu56eQI3M1MbAqsBuCpgHf57f79bSBC8F5u2xnGP2HhbRZc3BnQR3H8/x6l8l+OLfLPW4I5sAqwcqA3+RB/EvB+X49ndFxeM17Yec5Bp0WBHcoUCIikjUNISxSNXdYFSEfIqq8GlLs++sZbK0cxI+P/whbKofy4XuvZ3DbViWxsuUc8coKvESi5OPQNOYAVlfUKHlVvHbgTDNZSZ95JHicR3g8k6/KX3+Mkjh5v53dceOrQxt1Ac8DfynCc0xERAb4uV8hKD41f7VyjA8RVV4NKZX9dgZtZZX88ZiL+MEJH2NHeQ1OSYisJWqqXv2OtBSZsbxyEH8fNYXQi+mEKF7PY269wiAiIiIiUlhUgVVkSq3y6vWcQUesnBuOvggwPqJKrOzi5nmU1dRECaxSTfo5+MeoyTw4dExmgIMU6XF+nBhqDiwiIiIiUmBUgVVEqueHJVl59cbnU+hIlHHDMRfxgxMuViVWFmLlZcQqyks6BpvKqvj9hBl0xpTXL2rGEo6d3qZAiIiIiIgUFiWwikT17VaOe6Xyamipx8MZdMTL+dPRF/GrWf9LR6JcSaw9PtAbiZoqYol4Cfd9Mv45chIPD9lXnTqK20aiqdpFRERERKTAKIFVBKput7iDdznPfZYSrrx6PWfQnijnNzPfze+PfhepWByn7MRuAuUoq67GxUq075MZqytq+cWkw9mSqEQZrKK2nBA1cBcRERERKUBKYBW46tut3IP3AN8ERikir+UMtlYO5qfHf4ibDj+fzliZklivvwgk4sSrS7uB+99GT+WfIyej5FXRW0raXlYYREREREQK8NlVIShcg283z8GFwDeAkYrIHk5yg01VQ/neyZ9k/vR60k4zzL3CjFhZGWXVVSU6fNBYVTmIn086Qr2vil8IPMaJM9IKhYiIiIhIAT7bKwSFqepW89JwFvBVVHnV9YlusL5mBNee8inu3v9UBWQn50hUV+ElSjN5k3IxfjL5SBYNG1fC/b9KRgewWGEQERERESnQ53qFoPBUNJvzPM4EvgtMVESyPNkN1gzah+tP+gSPjj0cz0IFBSirrSnN4YMW8uCwMfx24mGkPF0KS8B6sCcVBhERERGRAn2mVwgKS9Wt5sXjnAVcB0xVRLp5whs8tc9BfOP0L/PEvjNKfmZCLxEv2QTWprIqrp96LEurhqj6qjQ8grlNCoOIiIiISIE+vyoEhcV5vAm4GpiiaPQwhgaPjTmM7538SVYP3rd0K7HMSFRXEStPlFwCJ+0cfxw/g/n77q83ROn4D4cmtygMIiIiIiKFSQmsQnGnuarb7RSiyis9dfeSA/497SR+cOLH2Fw1tDRnJnSOsppqvESitPbbjIeGjOEHU4+mJV6GZh4sCdsxHqfmCEVC9mRb5mdv1gBbFSoRERGRgaEEVoGoSnGKg+85OFjRyI20F6Nphs+fjnoHnbGykktiebEYiZrqEhs+aKwvr+LyA+bw9KCRGjpYOl7GWKIwyJ5vhtxy4BpgOdAGtL7uZ5NhPzHsKUVLREREZGBo3vh8d6e5qhQnO7heyavccgYdiQp+Oet/GLZjA+c8elPpDCc0I1ZRHvW/KqEkTtLFuH7asdHQQSWvSsmLJNJLFQbZk5uDoNP3634I7j6wCa//uAC3Hng4CJpbFS0RERGRgaEEVp7LVF5dp+RV33AGm6uG8tPjP8ykTUs5dtkirBQqkpwjUVNFrKyEhg+aceuY/fjZpCNJuRgaOlgyQoxFHHtYh0IhexMEzZ3AQ5kfEREREckzGkKYr/4W9bzKVF5NV0D68E1g8PKwCVx96qU8N2r/kqnCKh88qHSGD5rx36H78I0DT2BNZS1KXpWUVowHFAYRERERkQJ/dlcI8lN1mpPU86r/OIP/jj+Snxz3YTZVDcMV+fCyWFkZieqq0khgmbG2ooZvHHgi/xk6RkMHS89LePaswiAiIiIiUtiUwMpDtbfasQ6uVuVVPzO44+Az+c3M99AZL+Km7maUDaohXlFeEsmctniCbxx4Ak37HqDkVWl6AM82KgwiIiIiIoVNCaw8U3OrzTTH94EjFY3+5YBkPMENR1/EXw86s3hHmXkeZbU1uFis6I9p0nn8dsKh/H7CoaQ9Xe5KUBp4lJmHtisUIiIiIiIF/iirEOSP2lvtWDx+gOMYRWNgOINNVUP58Qkf5tGxhxXfUEKDWFmC8sG1xX8wzbhl7IF88eBT2JKoUPVVaVqJ8YjCICIiIiJS+JTAyhM1t9tB5nEVcJSiMcBvCoPnR+7Hj064mPW1o4quqXu8spJ4VWVxH0Qz7h8xga8ddBLrK6pR0/aS9SJpe1RhEBEREREpfDGFYOBV32H7OfgucKqikR8csHzoRDwLOXr5YmLFksRyULPv6OKuwDJj4fBxfOKw03h08D4oeVWyDPgTx834q0IhIiIiIlL4VIE1wKrvsP2ccQ1wmqKRX1KxGDcecQH/2P8tRTOU0IvHKautLt7ZB814atBILp3xZhYPG4uSVyWtDewfCoOIiIiISHFQAmsAVTelpzjjWuAsHYv84ww2VQ/lBydezNOjDyr8oYRmJGqqiFcWaT8oM1ZUDeLzh5zCvSMmqueVPI+5ZxUGEREREZHioKTJAKm5wya4uPdtosorp4jk6RvE4NnRB/DL2f/L1orBhV2J5Rzlg2rxEoniO1BmrC+v5ssHn0zTmAOUvBIwFpK2DQqEiIiIiEhxUA+sAVBzh43HuBLHeToGheGl4VOoSrZy+MpHMv2wCi/nGCsro3b8GGIVZcV1cMxYV1HN56a/id9NPIy0U15eaMXxfY6b8R+FQkRERESkOOhJr5/V3GETMC4HzlH8C4MDOhLl3HDUO3hk7BGFOZTQIF5VSaK6qrjaQpmxvqKaLx58Cr+ZeBhJJa8kspSQhxQGEREREZHioae9fpSpvLoCuACIKyKFwxmsHDKWnxz/YdbU7lt4QwkdVAwbgvOK6C2fqbz67CFv4leTDiflVMwor/gvaXtOYRARERERKR564usnu1Renau4F66VQ8aRSHdy1IqHiVuaQhlKGCsvo3bcvsTKy4vjQOxSefXrSYeTUuWVvCoJXMvxMx5RKEREREREioee+vqBKq+KgwNSsTg3HP0O/j31pMKpwjKjrLameGYfNGN1Za0qr2RPlgP3KQwiIiIiIsVFCaw+Vn2H7YvxTdTzqig4g81VQ/nl7PexfOiEgkhiuZhH+eBaXKwYEj3GsuohXDLjzbv0vNKMg/Ia9+HcGoVBRERERKS4qHShD1XfbqMcfAN4F6q8KhoOWDtoH7zQOGb5g8TDFHk7lNAgXllB7fixeIkCPwXNeHzwaD56+Bncuu8BGjYou9MOfJ/Z0xcrFCIiIiIixUVPgH2k+nYb7eDrRMkrJQqLTNrFCA6bxwOTj8/vKiwHZYNqiFcUeO8rMxYNH8fFh5/BXaOnknJOJ6HszjLgQYVBRERERKT4KIHVB6puTA13xteA/wHKFJHi44CN1cP4zcz3sLZ2n7xNYjnPo2LYUPAKOOFjxj0jJ/HRw07nnpETi6OPl/SVh3HuGYVBRERERKT4KIGVY9W3W41XFfskTpVXxc4ZPDThGBoPm0fai+HyrReTGfHKChLVVRTKbImvl3aOP42fzvuPPIuHho5V8kr2pgPjVmYdklYoRERERESKjxJYOVR9m1U7uATHp4AKRaS4OaAzXsYfj76IhyccnX9VWM5RMXRwNHyw4BI/RrsX4xeTjuBjh5/Os7UjULN26cIyHIsUBhERERGR4qTG4jlSeVO6xjk+A3waqFRESoMzWDV4DL+a9T9MW/8cw1o2YXnSn8lLxCkfOjjKtBVS7seMDeVVfG/aTH445Wg2llWp8kqy8Q88VikMIiKyN/V+XdzDahxepUX37JVAbfSn1VrU/qO2u7eEQNrh1gNL8MKVjbfMT/V0G8/yz6OMziHAVMMOBMqzuZtzsAXccpw909jYvF1HW0SK7vlbIei98tusIh7ap13MfR4lr0qOOahItnPZXd/i7Q/9Pk82CsqHDGL4wfvhYgU0ktWMpdVD+MaBJ/LbiYeSdDFUeSVZ2AC8m9nTb1MoRERkpwa/HsNVg01wsB8wBRgPTAX2yfwMI/pS373upydC4BmwqzzshpuDniWxGnz/WLBLgTcBNd27A2QHcLPDvn5L0LxcZ4GIFBMlsHqp8g6r8IyPOvg8MEQRKU3mYL91z3LNzR/jwHVPE7qBH507ZOpEqvcdXTgxBB4eui+fPeRN3DNyEkmnEc6StYW4sI5Zh65XKERESluDXx8jSkztD5wCzAQmAKOBwfRPC5V1wJdCUr9oCm7rVhJrnu8fZdiPgaN78fop4CaHXXJL0LxCZ4WIFAs1Ge+FijusIhYlr76Y+UCUEhXNSjgc52DOS/cTs3DgNsYgXlVBzbgxxMoKYRJMI+Vi3DL2ID49460sHDGeULl1yV4I/JRtq//K73+naIiIlCjf98sPOvCAOcD/Et2bf5yogmkaMIJolER/3WBUA4c63IKnn34m6wRSg19XCXwBmNvL1/eAg8G1HXTw/v96+qlndYKISFFQD6we2iV59Xlg0IBtyM7+Rm63eQHpR+bgrwedwYnP38Opz9w1gFVYRvng2sJo3m7GlrJKfj3xMK7Yfw6rK2vV70q6ax1wO6e9VZEQGSCn+W+jB4kB+1twg4InvTbPrxtuuJPA3gkcA+xLfkxUNQE4/mR/yoJ/BS9me2M/Ejg1R6/vAW8mjF0LbNSZIiLFQAmsHnhd5VXuklfuNTmIN/63GRYCaYue8UN74785cJ57zUeXcy76CPMcLuZ2/3p7e33J7i7Boiqs3x/zLmasfJSRO9YPSEN3LxGnYuiQqPdVPieDzHixZhjfPOA4bhg/nbZ4mZJX0hP3gb2gMIj0rwa/fhgwBzgQWof04J4ybPDrW4AXHTyQwnu5OWjUh4Bkzff9hMNONLgYeAtQlYebuc9gDkrAi8ksly8nqhbLleFg+6AElogUCSWwuilnlVe75jXShqV3/mlYMsQ6Q8LOEJKGdWb+Pm2vJq2M1zzs286/c/CanIlzr2tJGSWxXNzhEg7iDpfwcInMn3EXJcBivJrwUmIra57BgxNncvshZ/OuB389MG/qykrKBud3JVOI455Rk/jKQSdx74gJ0Wml5JV0Xwswn9kztioUIv2nwa/fH/g68Gai/p+9qXbZYfBYjPTV586bN/+mW25JKsKyNxf681wH4RSwjwIXEFVcyR5vTcOEwiAixUIJrG7IJK8+0u3Kq50JoEySydKGtacJ20OsIyRsS0dJqo4ocWWhvbr8rn9m8zqW5eJuN//tyCS3PFz5zsSWhytzuHIPV+bhlUXJLnZWeblubmMJaE+UccPR72DW0gUcuPZJQte/reYqhg3Bi+fpW9uMlngZfxw/nW8deAJLq4cocSW98SQe/1AYRPpPg18/CrgaODtHq6wB5oCbkA7DNuAORVn2xPfr452kTwa+CswiP4YKiohIP1ECK0uDmi0RhrwHx2fJNnnliKqqkkbYERLuSBG2pKOEVdKwlEF6l4yT28t6stWTEWu7JMosNCyZhtbXrtPFMtVasahyy1XG8Co8vMpYlNyKR1Vd7ByiWMI5iVgILw2fyk1HXMCn/3E5Fal2rJ96hsbKy6gYOjiqvMu7xJCxrHoI3zrgeP487hC2JiqUvJLenVDwD0JbpVCUjrP9c3v6SfcatwY36eLT87eeD+70PljxOLBLG/z6xY1B0wbFWV7P9/0Kh/2PwWeASYqIiEjpUQIrC4MbLZ6O8V4cXweG73HBnQ3VQyNsixJW6e0pwtY0YWsYDf/b+di16y14Pk649rptsrRByl7NS21NvbKciztcRQwvk9RylbsktrxdhjDuuu8l8GTdPKOe4174N6c898/+6YVlUD5kEPGqyjxLDBkhHv8cNZlvHHgC946YSJiXCTYpMKvBbmL2DJ1IRe5cfy4pvFEOZkHy4MzncG+qLpINfv1KsKcMeygI5m9RlLMzr6E+ZsZxfXj/eBS4/QElsOQ1fN8vd9gHgK8QDVsVEZESpARWF2rnWyLt8T84vsqeklcOSBlhe0h6W4r0lmRmWGAIafbeLL2Q7GGmQ0sa1pki3JZ6tVorEQ1F9Ko8vOoYXnUcrzwz/LAEqrQcsKlqKDcecQFHLX+I2vbtfZ7EcvEYFUOH5lfzdjM2lFfxuwmHcu20mby8c8igklfS63OLv5G2pxSI4naO71elsXoHHwKmZx5cc3ExTYLb7HCPNPh113hw981Bc6civndhVE48tA8/zWJGOFaRll1lklcfBr6AklciIiVNCay9+hWh2fnOua/z+hlBdvab6ng1aZXemsKSIYS7LONKJFS77Oer1Voh4Y7MP8ccrsLDq4pFCa2q6MclvKKt0HLAgsnH8beDzuCcR27s89dLVFdRnjfN26OhsU8MHs3XDzyBYMwBdMbiSlxJrmzCI2DOoa0KRfGq9/14iL2Pvqm4SACjgLeCm27wyXf5b7vxt8ENukjt/cqO69ueQ6V05yRZ8P36mIuuA19CySsRkZKnBNYeVP3VPGfUOeNr7Jq8yvS1ClvTpDcnSW1KYm1hlLTJ5yGB/W03QxCtJU24Ix1VaWVmPfQqY3iDMhVaFR4u7kUzIBbBI4Qz2F5Rw5+OehvHvXgv+25d3adVWJUjhuEl8uAtbca2RDnBmAO5Zr9ZPDZ4HwxVXUlOPYhT8/Zi52FvBS7ph4fWMQaf307rEmCJIi+SHz5y7mdYlXrutH66DoiISAFQAmt3HjLces52xtXAFCCTuIL09hSp9R2kNyexpL3ydaSSVlnaOXowaVhnmrA1DRszFVqZqqxYbTyq0qqMRd/zFnB1lmfw5D4zuO2QOv53wU/65kXMiFdXUTFk0AA3b4/eD08OGsl395vFn8cdwvZEuRJXkmtpYD4zp7coFMWrwa+vAt4F9NdwskOBdwL/p+iL5IdVqeenAt8AJigaIiICmnr2DYbcZa561+SVA0IjvTVFx4stdDzXQmpdZ5S8AiWueuN1ww7DbSlSazroeLGV9qd30P7MDpIr2qJkYUf4arKwwCRjMW4+/DyeGn0wnoV9EEdH+aBaYpUDOKufGa2xBDePO5iLjmngl5OOYHu8TMkr6QuLwW5VGIqdHQWc0M8veprv1+2n2IsMvHm+XwV2CXBEge/KmjbWpHRERURyQxVYr5NKcYozvoNjGiGkt76u4kr6zs7kVGhYu5HuCElvTuJiLuqZVRPDq40Tq43jynbpnZXnh8UzeGHEVJpn+Exb/xyJMInlMBPnJeJUjhyOcwOR3YtmpnypZijXTpvJ7yYcypaySiWupK+kgVuYPeNlhaJ4ne3Pc5A+DRjTzy99qIPZwHM6CiIDy7DTgXMLfDdeAO/uO4OHdVMkIpKrZ1+FIFLzN3M1d9ibMb4LHBK2pulc1vrGiivpH6+rzkpvS5Fc1UHHC620P7WDjudbSK3vJGxNY6Hlf2WWgzsOPotnRh2Iy3Fyp6y2hrLa6gG4uzS2xcv53YTDOG/mefxw6jFsSVQoeSV96RlCmhWG4pYgNQU4c2DuiZw/Lxq+KCIDpMGvHwF8kD3N/l0YNhp8By/2Xx1REZHcUQXWTiEnA9dayg5Jb+gkuaYj6s8k+WFngipthC1R76zUhk68Cg+vOk5sUBxvUByvYpe+WXmUR3EGqwaP4c9HvY39/vos5emOnFRhOc+jcsQwnNePuWgzzDmeUq8r6X+34ak6pgQcARw0QK89M8QOBh7SYRAZMG8Bjh+Qp4FXf3p6U9MBPG7wMyO8IbjlZj1MiIjkUMknsGr+ag7jVEKuCXekDulc2U56SwrSpv5W+WqXpu5hW0jY2klqYyeuzCNWEyM2rCwabljuQczlTSLLHNx50Gm86dl/8KZn/977GQnNSNRUUT64H5u3m7GpvIqbxx7E9VOOYcngUYSZvxfpY8tw3MCs6aFCUbwa/PoK4BygYoA2YbTDnTnXP/Xh+cE/dGET6f9rwEjgPUBlP7xcCKwFlgLPgL1guBUONgNb6f4dpAO2Gqw2vHVNQZM+r0REckwVWI6TLWnXptZ1HpJa3U7YHr76ESSFcgyjCfDaQ1IdIalNyagyqzZObHCC2KBMz6ydRUoD9EjiGWyqGsYth53DMcsWUdO5o3dVWJ5HxZDBxMr7oVm6GSnP46Fh47hqv1ncsc80WtWkXfrXTcR4QmEoboZNc7jZA7gJMeC0GFW/BtRrTaT/HQsc08ev0QE8DjQa9gDwmMPbnKLd5gd/0xEQEcljJZvAGny/ufR2Tg23pa9Jru44JLWhE0I9jBe03VVmbUjilXt4tTHimcqsVxrAD8DhdgYLphzP4okze12FFS8vp3Jk37eHMODl6iH8YtIR/HriYaysHEyIKXkl/elFHDdwzPSkQlHsl3E3Fxg3wJtxuMObjhJYIv2qwZ9bQdT/bkgf3tI8BfzQcIHh1jQFjRriJyJSQEo2gZXaYselNyW/m1zZMT3codlti/RJCEIjbE0TtqVJbUgS2zmT4ZAEsdoYeK5fk1kO2FpRS+POKqyOHT1OYpUPGUSsorzvNtaMlkQZwb4H8oMpR7N42FhSnqfElQyEJhxqhFv0D691+xL1vokN8KZUAXUNft1djUGzkqYi/cYbDby5j1YeAvMNvhxn2KM3Bb9SuEVEClBJJrCqbk7NSr7cfk1qQ+d069Dw9KK3Mz8UGumtKdLbUqTWdUTN34cmiA3ONH+P0S+JLAcsnDSbhZNm85Zn7uzRMEIvkaByZKZ5e84TSkaHF+fhoWO4buqx/G2faWxNVICFSl7JQFiG43fMVO+rEnAwcHSebMtphpsIPK/DItJfbBa48X2w4hRwi2GXBUHzUsVZRKRwlVwCq/J3ncckl7d/L70leYwl1ai95GSOtyWN9JYk6S1JvMoY3qA48SFxvEEJXKJvq7KcweaqITQf2sCspQt61AurfMggymqqc5tQMsMcLK8awk8nHcnvJszg5eohURxMuQMZECngd3gsUSiKm+/XxcA1ALV5skn7OjgNJbBe+/nlnDmzHX34EiGwQ5Eu2TPsJPqmefvDSl6JiBQHr5R2NnFty7GdK9uvT21KHmMpJa8kc7fcmia1poOO51tpf2oHncvbCbenop5ofXSOOIP7p5zAA1OOw3UzCeViHhXDhuBiORxlY8aG8ip+OelI5s06jysPmJNJXhl5M42jlKLHcPySY6d3KhRF/+A6CTg1jzaoHHir7589TMfmVUFjkAYWEyWa+sJLDve0Il16fN/fB5jRB6veCHxTySsRkeJQMhVYsW9unZbe0nm5pW2mnsfltc9N0R+WNmxHinBHitRaj9iQzCyGQ3JfleWArZU1/Omod3D0yw8xrGVj1r2wymqqqRg6ODcbYiGt8TL+OXIyP518JHeOnkpHLB4lrjRcUAZWGvgls6a/pFCUxGX4VGBSnm3WTEdsOvBvHaFdPjbgrw7+Bzgox6tuA36dJr1MUS7Fa4BNJPcTOBjR0MG7FWERkeJQEhVY7vOb9g/b0tdayk5S8kqyuuPpDEmt7aTjhVban9pOckVUlWU5rMryQnh4/NEsmDwHL9shes5ROWoEXryXuWczOr0YDw4fzycPPY13HeMzf8wBdHgxJa4kXzwANl9hKH6+Xz+IKIFVkWebNhqszvfPjusovSYj8LRh/0dUidWRg1WmgBcNvg38qjm4VbPClaaJwL45Xudagz8GQbOGpYqIFImivylzn980Fcd3gTPQoEHp1slDNIvhjjSdO9pwazxig+PER5Th1cZx8d5VZTmgtaySvx50Bic9d3fXvbDMSFRXUT6oFpzrWaLJDHOOpwaP4meTjuCWMQfyctXgaGuUuJL8sQX4EUNnvKxQlMSldgZwcp5u3akQGw6s1ZGKNAVN6bP885oTJJ9x2BzgAGAIWA/uKV0r8KLh7nfO+29j4y2aFroEDfJ/DsyfQjR0N5ceIkq0iohIkSjqBJb74qYJGFcBZ+pQS29ZZ0hqXSfpTUm8mhixYWXRDIZVPe9F5QwWTDmeByfO5NRn/445h+O1mdZXulB5HpXDhxKvrOhBsskIcSyrHsotYw/kJ5OP4sWaYaRfSYQpeSV55V8Y8zlQgSh2df6ZDngzMDJPN3Gai7bvDzpar7otuBHgmbn+Oc94WBxScQh78CWhlzbKOpuDmxTUEnYKt1YC++V4tSFwexA0tSjCIiLFo2gTWO6Lm8ZhXAnM1WGW3J1YUa+s9NYU6a0pvKoYsSEJYsMSxGpi4Lnuro6tFbUEh5/Lkcsfgo4WVsbK2eLipJwjbsbosJMx6U5qK8upHjW8e9trhgErqwZz49iDuGH8dB4Zsg/JnUMFVXUl+WcZjuuZPV1DPkqAR2IUcBb5WyFdA5zu+2ffEgS3tumIvdb84GaIhgCqckp6cR2wCnLfA2+9wYOKrohIcSnKBJb74qYxmeTVuZTYTIvSv8KWdDSL4fqOKJE1NEFscByXyP60c2Y8UT2KXw4/kG1b1rI5liCFw3A4jDKM4WGSE6sdJ7sEo7N+0jPWVNZwx+hp/GTyUfx3yD50xhJgoRJXkrdvKeBPWOpehaI0uGjo4AF5vpknO2KHEA1HEpEcMyh3UQ+sXHocbIWiKyJSXIougeV9YVOVGZcB56DklfTD0xeAJY3U+k5SG5PEaqPhhfFhCVy5t+c+WQ68VCf7PPE39n2smSdbtkG84jWrNhwdwPZYjOUd8J+V7TSMKOOY2gRxt/vbQDPYnqjg9n2m8bPJR/LA8HG0xxKZiqtQx0zy2X8J7Sccd3hSoSh+vj+3imh43qAcrrYDeIkoKZarqq4xYCe81T/uoTuD+3XgRHJ/K1UFDM7xap8NSW5QdEVEiktRJbC8L2yuMuwjwHuBhA6v9LvQSG9Jkd6WIrUmRnxEgtiwMrxK7w3DC71UJ2MfaWLC4j8R79iBOW93N3W7rprHW1Ks6Ejz9lHG6cPKXpvEMmNzWSX/GjmRX008nHtGTmRbolIVV1IotgPXctyMlxSKUnlo9fYD3prj1T4NXAVcQe5mNPPAza1i2G+ATTpyIrlluJGuR5MA7NXy5uAOzWgpIlJkiieB9enVzszejuOzRD0rRAbqqQwMwrY0ncvTuPWdxAYliI8qi/pkxRwYjF5yFxMW/4lYR8tuk1d7eIpic8r4y/oOxpR5HFkbwwy2lVVw98hJ/GbCYdw9chJbyypUcSWF9fwCjWC3KhQl5RRgXI7Xebfh7nTYhUS9tXLlMHCzgNt12ERyLRwMLpbDFbYatkZxFREpPsUxxO6Kbc5Vlp+K43PAUB1Wyasn87aQ1LoOOp7ZQccLraQ2pahZ9SzjHg2Id+wA57r9pl2fDLlxQwdPx2v4/cTDuODYc3jPUfUEYw9ka6JCFVdSaJbguJbZM7YoFKXB9/1BQF2O70M2An8LgmAd8Fei4YS5MszhzmxomKvqbpHcq83xtaADVUuKiBSloqjActtSBwHfBCbrkEr+naDRHzv7ZIWbOhiy7l4qN6/IuvLq9TzgqdaQTw49kHuOOo02L65ZBaVQbQeuJ9z6X4WilC6LNgs4JMerfcxwizP/fSvwqRzfF5yIeVOAZ3QERXJ6RagFclmB1Q5sVlxFRIpPwVdguc9tHAV8GThGh1MK4bEt3r6dkWsexNG7ZFMqlWLl+i10pNTjSgpWNHTQsxuZc5yiUSLq/bllwFxgVA5XmyKqvtoYnVi2Bvhnjjf9YGCmjqBIzj8KYjleYYfDbVFcRUSKT2EnsL60uQLnPgD45G62IZE+VdW5jvLkZnqdcnKOIWtXU7l1CzhNuCkF6Qmw7zJzhr4pL6kbD28scFKOV7sG3Cs91IKguR24Ddiaw9eIAW/z/boqHUWRvBYaoWazFREpyvvIAuZCm4vjE0CZDqUUAgMqO9YRy8F9lQFlLdtJtLcqfSuFaBPwbWbPeEShKDnHAwfleJ33OmzZa6+R7kEg1+fXocB0HUIRERGR/lewCSz3+c0HA/8HDNNhlIJ601kKyM3sgF4Y4kLNNCgFx4Dfk7ZAoSgtvj+3nKhqOpc9OHcYBLcETTt2/csgCFYC/8rZBTcy2uFOO8s/S18biIiIiPT3s3RBbvQXNgzH2WeBI3QIpdCkvAosR7NFpxMJwnhcQZVC8w8Ir+T4GW0KRWlxuGPJfR+pZ8At2sO/NQMbcvhaMeCMBLHxOpoiIiIi/avwEliXrHVm7kLU90oK8uENWiv2IfR6PxO7M6OjZhDJymo1cZdC8hTwVWYfukKhKC1v9d/uwJ0KjM3hag24B1ix+390zwL353hXDnW4I3VERURERPpXwSWwXHliNs59DKjR4ZNC1FY2ipbyMbgc5Jy27juWtsFDlMCSQrEZuJzZ0+9TKEpPFa37Aqfm/pyym4MgSO/uH4Mg2AEEQGcOX7MaqPP9uoSOqoiIiEj/KagElvfFzaOAS4D9deik4JgHLiQ1dCurZgwhnehFAaEZqapqNh9yKCT0DCUFIQX2PSz5J4WiNDnsaOCoHK92kUVVfXu+XOIeAp7N8eue6GCSjqqIiIhI/ymY5jmJL65wKQsvBHeGDpsUFHMQS8GQZbixT+AmP8SG5Hq2rI8z/NkU1oM0ssPYfOgRtB89ixocnW1tpDo7SadSirfkozTwB8z9gDlHdCgcpcf36xPAOUBljs+r24KgefNeL8G4Zxz2D3I7e+BEcPXAVTq6IiIiIv2jYCqwUmHl0eA+BJTrsElBMA+8NAxfhjviFrzjf4E34zZc7Vo6hhovvqWS1hFet4cSujBkx8QprDy9jnRlFfHycqoGD6Z66FAqamvx4nGcU3s4ySv3YvZl5kxfr1CU7AVxGjA7xyt93uDerhZqChrTBrcBW3P42nHgTb5fN1LHVkRERKR/FEQFlveFDcMM9wngQB0yyf/nNAcuhGHLcFMW4o1/FKo2g7Po3zIJq037xXl6XhX7N7dRszYd/fXe8k5m4BzbJ09j2XkX0Tp2Ai7MzA7vHLFEgspEgvLKSpIdHXS2t5Pq7FR/LBloj+Hss8yesUyhKF0O9yZgYo5Xez94T2S5BQ+DPQ4cn8PXP9rBIcC/dIRFRAqH7zfEIF0LNgzcYA9XCVRZVCVcvoc78hTQ5qDDsO0G28C2gbclCJraFVWR/lEQCSzDezNQp8Ml+X2iZhJXg9bhJi3GTXoIV7uOKGPlon9/nfUHJ0iXOSb9s50hLyZJdOx63mc+PTP/0VlTw6Yjj2XNKafTOnbPM7h78Tjl8TiJigpSnZ0k29tJdnRgO5NdIv3nObCPw7pFCkXpaoiqlOqAshyutg3s9iBozOrCFgTBpga/vpHcJrBGAmfW+3P/3RTM1wVWpDe3+jlfn4WKhdT7Zyc8vGpwwwzGO+wAcFMgnAZuOLjBQI1BBdFPOXse7ZMCOgw6wbU42AGuBdjW4NevAF407BmHewFYDeGOFG1t84O/65iK5FDeJ7C8L2yeZNhlaNZBydtbDRdVV9VsxE34D960+6F2Pbh0NIyQvQ/n27RfnG2jKxn6YJoRz6ep3QzlrQ4vhHQcOiqNbcONzUfOoH3mRYTl1bgs7su8WIyyykoSFRWkOzujiqyODvXJkv6yFuyLJNv/xYmnKhql7UDgmByv8xFw3Z3N8l/A88C03G2GO93BD4CSrTD0/QYP0mM83EQglu3vhdhmCF8Igltb82+fLgDa9vFwU7PdJ8PSBqvBWx4EQbJ/ttNPQHoYMAhcpYNKh8u21YYZts1wS4OgaWv2rznPQWqMgwkOl4tZZMzgAHLb1qTK4c2a59eP7vImLL+EwATrxvtIdvu+qHTYFOCwzM+hwHQHQ8CVZZ5/e3K+lRPNQrsnaYfrBNqAl8E9Fqf6Pw1+/WMGT0Ll2iAojnls6n3fc4STPdzYrN/o2AbDeyEIgo4iP/9ikB7j8Ma6Lr64M6zDcKvAWxUEjenijkvdIAfTHC7bnI4Z4VojfCEIbntNbPL6ou6+tLGc0H0O+CygqdYkv5iL3kFVm3ET/oOb+DBu6PKoYbt1760Vbu0gXNOClzbKW6CsLcqJhTHorICOKsNVjKJ66meIV02iR1/QmZFOpUh2dJBsbyedTGIaXih9YzNmX8aFP2H2YZ0KR+lq8H0P7Arg0zle9ZeTlH391uDGrC9ivu+XO+xXwNtyuB0twIcbg6bflubxrd8X+CjwFmAfogfvbI/JdmAJ2PVxL3HfjbfcnM6TfRoNvA84ExiX5T45okkFNgIPAD9qDJqeyMX2vNV/O9W0lAO1wEjDDnK4/YEpme0bnHmo3lk9Upbl9lrm/H3WYdeHeP8IgiCdRWw+AJwFjM7cm+fiRqI6sx+5ei5JA5uAQvz8iQOjchiLF4zw3CCY/0ixXofm+ue6OJ2VREn044DTgYOByZn3xUAKgXXAC8DDYHcBD3rYxpuD+QWZsGjw66dmrgNvBUZk+1gPbAEeAn64lepF/wz+WIyfifsD/wOcnOU1sjPzubEIZz+tTCUf++P8O4oqJr7vVzvsbcD5mc+tiizPlxDYDDQafC8Imjbu+o95y31h40xwNwLj9RggeXRmRpei8h24cY/h9rsPN2w5eEl6NKVgOiS9YjvWmnr1XbnznWmv/bN89FlUjXs7uN59OWdh+EoiK9XRQajhhZI7mzD7BqH9kOMP1YyDJc7368Y73Hyib8FzZaXB24Og6d/d3576ixz8lNzOhvi7EPtgU9DcWkrHtsGvHwtcDlxA7yr6XwQ+tia1+LYFt64a6H0aCnwXeDs9/+LUgIXARxqDpv/2dFvqfT/hYZOIqhdnAUcB+xGNSCgjt1U6y4HPNgZNf9hLbMZlYuNTQLOYS/EmsHz/HAfJfR1uDnA28KZM0qAsTzfZgFbgceA2sL8Z6ceC4LaCuVdq8OsPBn5MlCjsadXkk+C+EnNe002NtxTFl5wn++9mKJvnEM1MPLMHsTHgQYd9/JageVHxvEf9CoddClwGVPVwNZ3AHwz7ZBA0byWvP4A+v6EK3PtR8kry6qPHg0Qbbp+ncVMX4PZ5BuIdmebsPbuOW0sSa0+/9hK221x9SHLLQ6SGHUe8Zlqv2js4z3vN8MKdyawwnVZVlvTG5ih5xY+VvBIAhzuFnA7ZA2Bx1JS9J9vDPcBTwJE53J63eHAQ8HCpHNcG/2wHvJ/eJ68g+kb2y6PjRz8NzS8M8If8XHAX0ruqf0c04+anfb/uQ0HQvD3bX6zz57kY6RHAiWBnEyWtppHbhOvujAc+5/t1TwZB8xuSbuf681ya9LuBBjS8TQbYOf5cL8QbA6kGcBcQTaYxpCA+EqNqw1nAMeDe64j/u8Gv/xXOHmpsbG7J72TEWXHgncAJvVzVwWBXpy29DfhbMZyTQ9k8Bbg6c2x7em7MNNxVvl/3gSBofrIY4uJhZxlcTM+TVxAlpM8Hdyfwp2i9+XvTeyZwji7TkhcyDdrd6GfwZv4Bb/ZvcOMeg1hHt4cLvkZohNuTEFpWl4GwYw2dm+6HMDftNZxzxMvLqRw0iJrhw6kcPJhERQXO83TMpbs2Yfb1qPJqRpvCIQ1+/SCioUbVOVxtJ3BbEAQ9utEP8VYDua7PHw3uref6p7tSObZGvJZo+Eiuvgg93EXrG8jztQzcuey5gXN3neGiYUxZPhz6o2Kk/xf4I/Bb4P8BM+j75NUrD5UOd/ru/iFNupqowkXJKxkwZ/gXMM+vGx/ifQRoJKp2OY7CSF69XoxoiOO7gJsx9/0Gv/7Uhoa6inzdYEdsCFFyPhfGAx/2/fryQj8v5/pvJXO9npmD1R3ncG+vj5KFBc33/VqD88h+mOneVDs4o86f56In4nz0+Y0jwL2DaDy8yADepWeeR4aswjvyZrw5v8FNWgyJnYmrXjyvOLC2FNbSverZ5OYHSbctJ9cjgL1YjPKqKqqHDKF66FAqamqIxeM453QeSBfnstvsnPsGoanySna1H73/pvb1XgL+3tNfbgoaU0RVWBtyel8PZ6YoG1pCx3ZEjh8a4+AmDejHPW4kMDGHq6yxqDJvr+b5dYMa/Pp3OOwPwPXAm4m+rR6ID9+J9f5Z5buJzT5Es26KDIgGv76mgvZ5hvsDcCVwNPk7VLC7nx/DgXcDv8fcVxv8+mnn+HPz8BndxXP8bD7dYfsV+gGMUTWM6AsYl6Pz4TSP+KjCP7FtPHBEDldZ7TLDnfIygeWcq8PxFl2uZUA/T8xB5VbcAf8kdsLPcAf8C6o39Xio4BuERri1A9LWre0KO9fTsfFesL6ZTdB5Holdq7IGDSJRUYGnqizZDS8W2x4vT3w7XlnxA44/VJVXsqvTifqR5NKdIV6vGiUZbhGwOMfbdbCLKgFK5q1PbhMszgZ+sp5c95Xy9vawd7Z/Lg1+/WGGuxb4CVHiaoCrESy+h5ucclR9JQNknu8fTjTb66+IvhQpL9Jd3Qe4BLg5xHuH7/t5VY1lWCvYSzlc5b7gji78J0Y7ApiUw1UeBHZgEZzPRwJTc7i+F5syMzXm3ROp++LGscBF5HbIgUg3rtAexNtw4x/FO+7XeEcEMHhN5t9yd79uyRBr7clQwJDklsWkWpeB69u3sBeLUV5dHVVlDRsWVWUlEqrKkuj8iMd3lFVWXl05qPZHycOmarZBeUWDXz+SKIGVy4vUBuCupqCxV+daEATbgL8CyRxu2zBwZ9b7Z1Xq6EsW74/yBMl3AL8nqrzIp3tey/LvRPqU7/sVDX79RYb9jmio3aAS2G0HHAp832HXNvj1eVOhlMZ2gHsih6usBGbtruqzULzVP8sRfXm1Tw5XWwXujHr/vAL+jJsbA5tD7r74aDdsySvPH/mXPOACSutbTMmbcy/qc8WIF/GOvhFvzq9x+zwNXjqniatXXm5rByR70ojdI+xYm+mFleqX0DjPI15WRuWgQdQOH07V4MGUVVURi2siolKVqKjYXllbe1XVkMFXbJ+67w5FRF7npMxNeC49boT35Whdd/L/27vvODnKK9//n1M9SRpliRwkESUQOSeTRdRMjcDetXf33rvx3t+uF+McYJMx4Iiz12uvvc5EaWokkSQymJxskhAGJKKEcpjcXef3R7UACYXRTHX+vl+veYHS092nq6vqOX2e88AbKT+/MwIye+utl+1MykeS7Mj0PWAaZb4juEgpXBSGuxj+HyTLaqfVYAhGkWyU8au2sPXM1rCt5HP2udHcGHgSWJfisMcZmd0q9U1qJjO+AHkLA44yesZU7JSazDiwE1IccpVhj703Ey4jweUrJ+d3f6mGNc1SUZ80g+bV2EHzCU76ObbPw+/tLliIh+vL4Rv6hvSdZv+aR8l1v1b0e18LAhqGD6d59Giax45l+OjR1Dc2EmS0uqAWWBDQNGJEz7ARI64ZPrz5W6v2Gqtlg7LZBP2CJvDTSffb8hi4K4rmrk7n5sqWAPek/NL3JZ0mrlK1n41wlOFfBL4AjFNERD6oLWzdL8avAS6lMhu0p5nIOB74WUDu72eGM0q+pNCTBNaLKQ65v2EV3AfLphToun+AERxWwRPro4E9UxzwjwZvbvxF2SSwdr98Hg6tJFsGixTp82UQZLG9nyI4+WcEh96MjVxR+IftyuK9uSHknoy4dzm9K+7G415K8gWuGZn6+mSJ4bhxSeP3kSOpa2jQEsMqlamvZ/jo0X1NI0f+smHY8G8t33uMKq9kC2enuklgafexXOowJ63BoijqJhlvTZofEbCPhmGrlhHKB4RhONLwy/KTch0jIpuZEV5kbWHrscDPgI+igoaNJoJdBfaPM8NS71IYvAUsTHHAZuCM1vDCSp04nASMLMC4e1DBX4gZHEM6uw9uNH921LH23aOwXF7o23bCXmD/i3LdGVGqbooFwNjXCY6aRXDstdhOLydLCL3A59Cc42t7Uugo4fStephc55+gxAkjM0uWGI4cSfPYsZv2y1Lz98r/tJjRMGwYzWPG9DcMG/Y/ZsG/rNhz1HpFRrZybvoQyfbgabrHsVdSfZbwKPB8ys/zsPw3jyLvagtbRxr+BeCfUfJKZIvqyJ5MsqHBKWhp7ebGOXY52Gdnhq0jSvUkoqg9C34nkOaO08cZwYhKe0PCsGUEyeYbhZronBqGLWMrMC7jSLcg6U2Dx9//G+Uzs3Q+DBys85MU/lgzqO/G9nuAzMk/x/a/D5rWFz5xtfHhu/vxnlwaaQU8u4bedxbgufJZxRVkMu/uYjhy/PikMmvECOrU/L0iZerrGTZqFMNHj+7L1Nf/Auyy1RPHLldkZMs3LuFmxD/zAABnB0lEQVRosA8DaTbI6wJu74iiVCv+oqjjLeB+0m1QvathZ88Iz1bmXt7vwyh5JbJF08OP0Ra2nkLS7+pwlLzamrEOnwM+MzNsHV66p2EPAMtSHHAycEClvRkGU0l3l73NHW+wT+XFxfYmWfqalkVuwXObzDXLYsJ7+cpJ+RtelYpK4bgBjk14leCYawmOnF2Q3QW3KXbidX0Qpzdf6l/3R7Lrni3L670FwbvJrOZx41SZVUGCIKCxeTjNY8fS2NwcWxDcgPOvqyeOXanoyNZvXPxY4JCUh30J/P4CPeUbgJWphgDOzDBsdx0NAngYtpwKfJHCLDMpll4gp7dTCqGZzmNIkleHKRrbNcLhk8D/K1VPLMeWAb9Pcci9DDu5Au94jgH2KuADjAZOr8DL3tGkt3zQgcfb29tXbTJHKYuXiZ2qk5YU9iALYNhabOqdBCf/HJv8GNT1FC9xlZ/WeG8O7+xPdVDPrqd35X14rpNy/tJqq5VZDQ1KZpXT5diM+sZGho8dy/BRo8nU1WWB63E+v3rSuKWKkGxNS3heBjgN2CXVWwS4bT0bXi3Q036JpAorTUeadlOWZOOB3Qz7JLBfJV0GtvAbq4FOvaWStplhy97A1ZoH7pBRDpdD8LcXz7yovtgPHiXV0A+SXvVyBjg2vySvIrSFLaNIdlsu5HbsGbDTw/DCyolLW2sd2Jmkl2PaAHb75r9ZV/JX+qUVI3E+gqmsWgp0HxZksQkvYQfNx3ZdBJn+4iau3jcN8w19kI3TzjiQXfcM/Wv/QMO4EyvjXclXZtU3NhLncsRxjmxvH9neXnLZLB7HuLsO32K+J2ZkGhpoHD6c+sbGjUnFmCR59YXVk8a9pSjJtu+0GvYAzk952PUON98R3VWQ59wedaxvC1tvBS4gvSrwJrALw7B1dhR19OvIqN2PhGEfASpoi3jrgroPHLNuvs6cB0i/ulJqWFvYurPDVflEQKl0kyRo1wOrgHcM3nHocbwzuXsnY9hIkp11d8p/pjf+enSSaCi6sQ6X5eLsEmBeCaY0f8jvCpfWTnNHGbYr8KcKOVfuTrrL5LZmCgRTgccqISrutrvhaV4nloC/sPlvljyBZWbTMX1TKYX4FBk0dGH7309wwL3QvDq5DHmJqpT6Y3x9XyE+RXiuk953bqVu5BSC+nGk29KlsIJMhiCToa6+AW9uJs7lyPX1ke3rI9vfT5zNKplV2HMwdQ0NNAwbRn1T0/ur4bLAjTifU/JKBnhDe4rBQSkP+xjp7ni0pef9gMEiYFqKw55A0tPjOR0ZNStDZfUv6QOe64jmZDf/g6i9IxuGrb8zOJf0N2iQGhSGYSP4/wf8WZHno06ybPwPwFPA82AvOrwGvhLIBhDHxOTwd2cMdQQGZjEEYMPB97LkszAVOBQ4Ati/yK9lN+DKtrB1aXvU8XiR7x7/CP4i6SWwJoNPo2ISWJwGFKNVwN6GHUGFJLAMPzLduPjDMfHqzX+3tAmsy1dsbPY6WqdySf1DNH4xdvB8bPfnINNXusRVXryhD++LCzZ+tvNV+lc/SuPO51bue2ZGpq6OTF0dDcOGEccxcS6XJLN6e8nlcngup4RWGrEOAurq62nYtOLq3cOV95YNKnklA5mM1Bs+g3R7WfYDURR1FHjTgOAliO8h3QTWpPxkXwksqRQPADdvfdYfPAz+ccM/CRwJNOfnEWktFUnzJs3zP5XaDLzqm5gbfhFwSRHnouuBhQ5zDO4EfyUmt7wjunkwN+Z9wBrgmZZw5pyAeIThe5AksWYCJ5MspS9Gf4xDgX9tC2f8fXs0d1mx3r8oita2ha33k/RoSuN1NoCdelHY0jErmlPWN/ltYVs9xKcX6ditA04Pw5Zro2hOWe/+3RK21JHsIJrWzondYHd3RPO6txSUEk5Wg4NxztQ9g6R3yxIkVVcTH8em3I2NfjtfjFTie4Gc4xv6k+btBXkqBnEvvSvuoW7UIWSa9sznICr57sbeq85qSKqzPJcj299PbuNPNkucU1/ZHZGpq6OuoYH6YU3U1W+x/5gqr2Qwk5FpwNEpD7skP6ku8I14ezYMw1sM/+v8pDyVjxpwblvY8pv2aM4yHSFSxnLAvY59MYqiN7b2lzqi9ixwSxiGDxp+ErC7J5+XoS6fcoPj8hP/tOYlqxx+CqyotLtYYCeDS4Gmaj3g2sJwGvhngXFFeLge4F7gt47d4viqKOpILUEyJ5oNsAF4EXgxDMP2/GYmF5FUl+1ahNd4PgR/F4atX42ijmLeFN9B0lA+rUKUE3L4WJKlnGX8IY0PsCRxWCzHG7YTSRK2fOcX+E4k1WKp3QMa9syW/qBkCSz7t1X15PzPwSYgksoZxWD02wQH34bt9Qeo7yl51VV+Zof3ZPHu/sLm0Swg17WYvhV3MWyPj4FVV2N0M8Pq6mioq4Nhw/B8dVYumyXX30+2r484jpP+WXGsz8P7BJkMmbo66hsbqWtsJFNXB2Zbu3m+Qckr2RHnhOcbcB7pL5d6IMaKUsFk+OMkS0rSbCR4DNhBpLvduNSuLLAWWJefMK/35L89Bl3seO8AA7rAHwa7pZ/6Nwfyj6IoWsM2KrUGIwxb/tqwlhTnJWsg9z9RNG9Rpb3JbWHrfsA/UqUJrJlhyyjHPwMcXvA8Q3JO/75j86IoeqcYry+Kol7g/jAMHzZ8LvD/AWeT9MsqXO4A/t7wB4G7i/h2vgq8TFKRmYZJYEeSJMbKdz4Cx1LcpdS7gX8IeKXMZxt7k+5mDM+5BVtsIVGyBJbnfLJh5+l+RIZ+MBlkstiefyQ4aD6MW/Le75eDGLyzD3JelAfrW/Uw9WNPoK55PyqpF9YOX0CCgEwQkKmvTxJa7kmFVjZLnO0n1599t0KrFhNaQRCQaWigLv+Tqa/HzLZ3szc3v2zwTZ1YZKCGUzcBOJN0U/S9QEdHFBWlCXp71LG8LWydTboJrNHABWF4wb3R4JapiHQDLwCPk/SCW+TY68Bbhm/wpHpq0Hc7Bh5guZuijpJfstKfY1bst3hVvXzQsRlAW4EfZh1wLdh3GrGF10XtRX+dUXLtujOfyPor4DPAvgV8yIlgnw/DlheiaE5RdoyOCZYHyfL7tBJYO1uZJ7Baw7ZGiI8GGov4sI1gZ4Vh66+LXGE3cOFhOJxs6S0f7AfubW+fvcV7wNJVYLldgLG37k1kaFdCg2Fr843a74Om9eWTuNr4FPtzxOuLtRGVEfctp3fZLWQm/i2Waaaak1ibvPL3V2jRlCS08tVYG6u03p/QqradDoMgwN5XaZWpryfIZLa0RHBr5rjbp9ZMGvuGTiyyg5++o0m+kUzTU5ZM2os5sbrf8FdJ95vVsyGYTPIttcjADkVYDCxwmAf+RydY2pFUdohUrLawZR+SRE4hq5HeBr7u+H9HUceGUr/mKIo6W8O2nwbELwJX5q+Vhdq18HTDPnpeOPM7t0azC36D2xG197eFrb8H/i6l99SAE8OwZWwUzVldlvfaxLsDZ5TgoY8En0KZ9tVsY3Ij+Cmkl4BfA/b7rf1hSRJYdvmK3YC0m71KbU2Yklu88a8RHHIztvvzEGTLLnkF4J390F/chHn/2qfoX/8cDWOOrd0jxAzLZCCTebdKC3g3oRXncu/9ZLP5hvH5HQ+97F8cQRAkSwPr699tfB/U1RFkdvi+yIF57vbJNZPGvqpzi+yIlvAcy1/PR6Q89Hyvayz2MtbnSZJmaSaw9jOC01ACSwbmNWC2Y78FfzqKOrIKiVTRndlfAocU8AFeBD6bI3PLnGh22VSqdETtOeDuMGz5P4ZdRdLvrRATlgbgb4aRuwN4pihzHOwZw5ek+L4eZdjuwOryPIb9ELBJJXjgSYYdTpkmsJx4oiUtE9LymBNvdclkicpr7QSSho0igzl+IOjHJj9KcMKvsD3/CJYry+RV0ry9r8j91A3PddK77Dbi/tXUwGY2OxadIKCuoYGGYcNoGjGC4aNH0zx2LCPGjWPk+AmMGDee4aNH0zRiBA3DhiU9o/JJoo0VTdtZipfCkzRsY4Kqro5MfT31TU00NjczfPRoRo4bx4jx42keO5bho0bR2NxMXWPjYJJXAHe5c6mSVzIYAY1TSXadSdNSg/vab7qhqGfOKIo2AHNJmv6mZThwVltbyygdLbING4CfAzMd+0IURY8reSXVpC0MjwY+RuGqjxYC/9wedcwtp+TVpteYOYsc+zQwm8LNDA52+JswvLBYS9xe9aTXWFp29mRTmLIThm0ZsHMpTX+6YcDJbeGMsuyNZ9hJwB4pDvlQP/Harf1h0Suwgi+tqHPnYozhOp3LDvMgv2TwPoID74HGzvJMXG18uj1ZvDtbkhxSdsMi+lY9SNMu56Ek1nZOvEGQRCiTSe6sGje97m9ccvj+JvHu/t4yRXfY+Ov8DwBxvMViLjNLklQbf/LPYWPiyoIgWRK42f8XwCPu/oU1k8a/oqNABnnTcipwYMrDPhZjD5XknA33WPItfpqNSM/AbR/gaR0xsgVvA1c79j/5JKpIVZkZtjU68Z8D+xfoIV4GLsmRuaPcYxFF0ZIwbPmiYeOB0wpyWYaLjOA3wBNFeD3ZMGy9E/gI6aysajDs3DCccWMUzS2z3pG5PcCOL+ETOAmCnYDXyykqreGFDSSFSWnldlYDT94czdvqepiiJ7A8sIPAjtHpXAZlzBsE0/K7DAb9ZZ28gvzywVwp1qMZeB+9yxdQP/IgMs37gKuH8KCjuTGRtMlv5o+9jcmrd9/0Tf9/ywPau3cZG3/9blWX2db/XboedPdL10TR43qHZTDCMBwDfi5Qn+Kw/Q4dURR1leI1xfB2Bm4n3QTWTsCFF4TnPX1zdKsOHHm/Jx3+A4JboqhdFVdSlZzc3iS7TBbim7g1wJWdjFowP/p1RcQjiua81Ba2fhH4GXBQAR5iL7C/DMO2p6KoveA3/wYPAe8Ae6Y05NHARJJdDstnLpDkL/Yt4VPYJ1+dVlYJrIBgt/x7lpaFED+17ccs/tt/DsXdelIqP30AOLbb82RO+DU28YkkeVXmVUXeHxOv7ytp3OKet+hdfieeU+/X9N9gfy/R9P5qqnzF1MYeVVv82azCapMlicVJXj3p7peumTT+MS79W72XMsgzjB8InJTysK8a3Feq1zQnWbZ1N7Ai5YvY+fXJbo0iGz3u+D9GUcccJa+kyq8WHwX2KcDAvcAPY/y6SklebdQedTwM/FvK15r3Owty+xfjtTjxUvDHUhxydyMoq2WEreEFdcAJFHYDgu1pNmx6GX6+9yHdSvxH26O5b2/rLxQ3gfWllROA0ync+mepwikSdb3Yfr8nOO63MH7J++YDZZ7f2NAH/aWveupb/RDZdU+jZYSS9zTun1qzovsxhUIGKwzbAiAExqU89B2Qe62k527sAdLfAXH/Ei89kPLyvOOfjKI5jygUUs3awpbJJBt9FGLutwD4YUc0p7sSY+PYXOCHFKYf1oGGnUdY+NcRRXPXgt0PpNV7bBxw9JnhaWUzcckkX0CdUgZP5fgwnLFHucTl/PAjkCT2mlMashtsu19iFjWBZWZHlsmbLxVxZjdoXE9w6DyCIyJoXl32SwbflXN8Qz/Epd7OzvD+dfQsu5W4fyVKYtW8Z8z9k6snjb+Xo/dUNGQoJ7k9gLNTPqmsBL+tPZpX0pLRfB+iBUCaVTETDLswDGcM07FT81YAV0fRnAcUCql+dgowrTCfI/t+e9TxdqVGJoqiXk82b3iwAMPXAxe00TK+SC/nSWBpiuMdN4pR48vlvfKk4nxKGTyVqUZwZLnEpYHekcAZKd4Lvun4dnu3FS2Blfni8gD8AtLfaluq84IHo5YRHDULO+AeqO+qnOSVgffl8J5seeSLLCC7YSG979xBel+OSAV62twvyfTl7lUoZOinOTuR9Ju3v+iFuZEfzM3q7cAbKQ97hhFM0tFT0/qA7zrB9QqFVLswnDE8P7lNe+c0B34VQ8Xfz0RRx2skVVhrCjD8MZ5ub6JtvCH2JPB8ikMeSXo9tdJwFuWRwxgNfmJLeF5dOQTF8INId3OGu7Bg2fb+UtESWDmzPTE7Wadz2f5Z0GDCKwTH/Rab9BgEOSqqcsjzywezZdQ03XP0rbyP7IaXKUnrOym1Z8z9k6smjb9n+QE7u8IhQ9EWtjQD56d8M+cOt2+gYWWZnMZfBe5Kedh9gA/pCKpp9zj+0yhq71copNoZwT7AmQUY+lWDX3VEUVU0eHXsdgrz5c1ow84txmuIomg9STP3tCY/4xzKIm8QhuFYsBNSmED1pxMf+1CGhjFl8ik/EtgtpcH6gUej9vae7f3Fos1kLbDTSf/bWqk6ju35R4Jjf4ft8lIyjag0G5cPltltRNy3nJ5l8/DsWrSUsKY8be6XBH2xKq8kLZNI+lmm6S2D6I7oprJ4gR3RnC6S3QjXpzhsJrkXvlDLCGvTBrCfRtGcZQqF1IhTgZ0LMO5NMfZMtQQpiqLVwC+AzgIMf1IYztirSHONh0ga66dyvTTsjDAM60v9/hh+JOksg30ESOO4neaFWZa7Q1rD1mbgONLbifoNxwcUn+IksC5bMRzsNNJr8CVVxyDIYfs+RHDMddjYNytnyeBmvLsf78+VZYz71zxJ36oHqcjEoAzGu5VXKw7YSW+6pHUuaQV2T3nQBwwWl9W5HPs98GLKwx5mBCfoGKpJ9wF3KgxSC8KwtZEkgdWQ8tBLHW6MoiiuspDdRWGWRO5vBIcV6ar5DLAwxQGnQDy5lG/K2W1/ZsCxwC4pDDff4ZcMvQqr2cqgp3gAuwLHpDjksxA/N8DHLsKtrgUTKZMyQCnLyRBk+rH97yc4PKqsZu0fOHc78fo+yJVprsD76Fl2K9nOV8C0lLDKPafKK0l/UtIylqQXRJo7SnUBt8+OOtaV02uNouhNkmbuaZ7QdwM7pyWcod2Ya8ta4BftSaWFSA3c2ftkCtP0+k4sWFRt8WqPOlYCt5Iso0rTGODI88PzCj6xirF3SDcJt5dhR5fyfWn27nEkfdyGapnjD1jyRcZQrwMZ4JT8/VgpHUjSGiENOeD3UTRvQFWIRZrB+lEkSw5ENjs0DBo2YAffRnDYHGjaULnJK8D7Y+jOlvEzNOLet+l95zY824mWElatly32L6jyStI/g9gxwMEpD/uKY3eV6UuelcLN5uZOz2C76WiqKc9hwX0Kg9TQ1WJqipPbjTqB+VF7+7pqjJhjtwB/KsDQRzdSP6rQz78jivpJlsmltfR+BHBoS3huyb7wMWwicEQKQ70E8ZMOS/IxGqqDrITLCNvaQiPdDRq6wO4f6F8ufALr31Y3gJ0P1CGyyZnaYNg6gsPmEhw0H+p7Kjp5BeDdWbyv3Hf6M/pXP0zf6od0DFanFy32T1jOb1EoJE1h2NoAXED6PU3ucvyNcnzNjr9C0pg2TdMcTtIRVTNi4K6+OH5HoZBacGF4cQAcRvqtYxZD/EC1xs2MxRSmmfsRYOOKc82MnwBeS3HIkwMadirh23IyMDqFce6vg3VR1LECeJihLyPcA+zYkt0beTyWdDelecrxlwb6lwufwMrGk0i2whR535EfwLC1BIfNwfb7PQTZik9e4Y6v76uI9lKe66F32a3kul9DVVhV5RWL/TOrJo+/eeV+E2KFQ1K9uU62tD4/5WHXgrV3RB1lmfmPojmrgZtJrzEtwDDDZoRhS6OOqprQBXbPzR0dqoaVmlBP/4gCzf2eNIIl1Rq39vYoBu4A0l7KMdbxKcV5FZlXgWdTHPBwK8xS1O0Kw3AYyS6aQy3CWQt+203RPAdw/EFgRQpPcXpb2DKmRPeDh5LcE6bl9wT1qwb6lwuewDKzU4C9dTqXd7nBsDUEh8/B9nkYLKYakijem8N7spXxZC0g1/0aPW9HeG4DSmJVhWXu8Ze71r1zq0IhBTrLnQqkvZvR44a/UNavGrsHeCnlYU80OETHVE1YAv6iwiA1ZASwf8pjxmAPzS7TLzvSu97wR+CtlIdtMji8GM8/iqIsSRIurV5ew8BOLNHbMRU4KIVx/mjY+5aG2lOks1T0SErWosmOIp3G9gBrgEei2TcN+LNd2ATWZSuGk5TJa8toyZ+ZAxixiuDIdmzyI2BVch0y8M5+yMYV9aT7Vz9K38oH0K6EFW85cDme+U3PYVNzCoekLQxbh4NdAKRZNdTvMHd21LGszF/+ItJfRjgRTJvb1IbnzGytwiC1w/YC0u7ztwH8D9Ufu3gZ8EzKg2byPcmK5aH8fWkaAuCE/K6WRZ4l+XGkkyC6u5u3337vl7k1JM3ch2oM2FnFvx8MRwJHkV4e6WXHn9rRg6Jwb3yy++CHEIGk8mrESoIjZ2GTHquayisAso53Z4e+ornYb4n35ncl/BOqwqpYy4Av4PxyzeSxSl5JoW7kjgXS/hb0dbC7y/21R1GUA2aT7JaYlgBoCcOWnXV0Vb2Xs/R1KgxSM7f7+IGk+2UHwCuOL6322OWwVcBzBRh6z7a2ttHFef/tTeDRFIc80Iq2BDIRhi0jSPpfDXX54AqDR26NHvX37inmbVwqOtTrQh1wQhjOKGqhkOF7AcelOOQzULdDfVALvITQjwQm6lQueADNqwmOmI3t+TRVVfFj4P25JIFVcTmgINmVcOnNeHY9SmJVnDXAFR7bL1dPGtevcEghtIZnB/kbuV1THvpRS6qbKmBCZk8BT6c87HH5PhJS3V6b036LehJKzTCYDDSkfBZ+EeIV1R67udEcB14AulMeegKe27UYryGKojWkm8DaC+yw4h7DNhE4NYWhXnGzR7dwT/ESyXLRoTrIsP2Le5T6kaTXHqoX/K4omr1D18iCJbDs8hVBvqxNuw/Wuo09rw6di+31FFiVLVdz8K5KWz646Wm6b81j9K64C1wFPBVkFfDv7vbfqrySQgoYvhtYK+lmuHvAb2iPop5KiEEURcuAuaT77ctwsLa2MAx0lFWttQ5LFQapMRPTn2Pakiiat64mpk34YpIvKNM0jvR3EN7W1OgBIK3dhZvAT2oNL2wq4rtwHDAhhYHuDZL79U300fg6cH8K4++X70dVFDPD1gDsNNLL7yxjEDtvFvKmaXe0+6C45XcbnItNfjS/bLDaXqPjGyq8+MX76V12G/3rnwXTXKoCrAG+4rH9eM2ksb0KhxT4BHEk6TQyfb9nHXuiwgKR5g35Ric78b46xqpWj8EGhUFqRRiGw0m//1U/8HoNhXExkHbfvNFg44v3EuxZ4NUUxzs5ILNzcY7h1vp8Ec5Ql8H2AffOSnaX3MQt0fWev6dYNcTHqAM/NQxnDC9GbOIkCXp4ikM+5mY73C+tcDNVt2PR7oM1zqBpPcFh1bXb4AcO9Z4c3pur+Pcq7l9Jz9vt5HreRksJy9rGyqsfrZms5JUUfDLSAPZhIO2bo/m59JNBhT3XY08CD6c87H6GnaYjrWp1O75eYZDa4aNIdiFMUyfwZu3EMFhO+hVYzcDYos0qzNYAT6U45GSgKH2wDJ8MTEthqGd9G/3MHHsQeCWFZ3yaYbsV6a1Nsz1UDDwYtXfscGVlYRJY31hjmB0BjNGJvFavXwZ1PQQHz89XXlXpCifLLx/MxVXxYrLrn6d36Tw87kVJrLK0BlVeSVHPCn4wcHzKwy51uGNu1FFRJ84oiroc5pB8q5qW4cD0MJwxWkdbdd4NoW1+pbaMIEmWpKnL8Xdq6MLbS/oVZ0YRE1jt7e0O3Aak1SagCThjevhXxXgDDgPSqIx+yIK6N7dzT5/GboS7OJxUpGnvkaSztBLgDccH9aVgYRJYa3M7kf5uRVJJMlls/wew/e+HIEvVJkOyjndV3u6D29K36n76VtxLVb2o6rCapPLqP1V5JUV0KrBPymM+ZdhDFRqP35PKN6abxtiwyTrURKTyFaQCqxt8ZQ3FMHb87QKMu0treF4xe1M/Azyf0lgGHDWcNSML+YTDsLUxf98z1KrzdQ73t8+etdUeM/kdju9k6LsRNhl2Zhhe0FDY2LSMI93dBxeCPTOYf1iQBJaZTQYOQ2qTxdg+DxEcNB/qqriSZ+Pugz3ZKnqJhue66Vk2j+yGReqHVT7WkOw2+OM1k8b2KBxSDG1hy1jgfCCT4rAx+C2V0rz9A7f/BK8Dt6Q87HiwUEeciFT+XaSNJP0EVj9YzfSSy2IOtoL0qzdHQVC0BFZM8A7Jlz5p2RdsaoGnduOBD6Uw1Jtmtt3qIsdeIJ0k32GQmVTgz/ZE4ITUbqfgsSjqGNQS+8LMTmM/Di0frE1u2O7PExx6MzStT5YSVu1rrfTdB7d+iop7l9L95g3EvcvQUsKS6wSuVs8rKcG54Gjg2JQH/RPYHZUakY6oPQvcDqS5nCUAzg3Dll10zIlIhWvI/6Sp1wjW1koA57VHDr6K9BNYw8EyxXodHVF7n8PjQHdKQ04yrNBL5Y4nneWD98e+/b5tTvAakEZF+mQrcHIvvzNjWu0O1oPfOZSbpnRvd7+0qg7sONL9xlYqY7IDE17FDp0Hw9ZWd/IKkt0HO/ur9r3MbniBnqVz8Vw3SmKVTCfwdY/tB+p5JcV0YXiGAS0p3qxsdFdM8Eolx8axR4BnUx52imEn68gTkQpXD6Rd5ZMD76ulIBq2jtQTWDbSCIo9P38ceC29iSbHhuGMgiwjvPhjHwc4k6EvH+wHu6MjirLb+4sd0ewc8CCwboiPOQr4UGt4YX0hYtPWFmbATknxs73QsIWD/cepJ7DcmIRp+WDNcYPmlQSHzcXGLan+5BXgfdWw++C2XmBM34q76V15D3hOx3jxbQCu9ti+tWby2C6FQ4o7A2nel/Sbgq52uL0jaq/oiUgURWsdbk0mVakZDT69NbxwmI4+EanYW8ek2XZjysN2UnubIRQggcXwoMi9QczsJdL9wucoI5hQiOea7Xp9L+CoFIZ63vEnB/6ZsUeBt1J43NMDMgVp1O/OXsAhKQ75kAeZFYP9x+lXYBkHA7vrFF5LDOp7CA6+DdtlEXhQEy/Zu7JVuHxwsxNW3Efv0jn0r/uD+mEVVz/wA4/5zprJYzsVDim+4GQg7XL0F8zsvmqIjsF80vtWeeOoZ1qBe1iIiFSgWqxAL0QCa4SnXx23Te3tUb8nuxFmUxpyL/CCFMpYkqA5IIWhHsUybwx4rgWvOzyQwuPu5/hRhYmNHw7smdJwXQ6Pt8+ePehlTOnOSL/8lpH0yxiL1NA8J4vt+xA26XEIaqRSJ3a8O1sDG/UZcd9Kut+8kVznK2gpYVH04/5Tj+Nvrpk8TskrKbowbBkBnEfyTXpaHLg946yuhhg59ifg7pSHnWT4+ToCRaSSZwWkXyBRi8sAUq86c2jwEtzIW7KMMK1dJJvATkv7Oc4ILwpIJ4fRCfw+ap894KRrRxRlDe5K4Tgfadj0tGPTGs6oA04hvfzOKwNpcL+9k0x6+hrHAYfr3F1D3LCdXyI46Hao76mJpYMA3h9DVe0+uO1LT67rZbrfugnvX4OSWAXVj/vP3f3f10yesFLhkNJ84u1g4IyUh10G3HJTFFXFMpAoirpIElhpJpkzYGeGYetIHYUiUpnXD5pIv4n7Bq+9JYROyq/ZSnQD79gbwNMpDnlMGM7YKc3nWEduLHBaCkO94fj9g3iznwZeSuHxjw7DllRXwmWwCaS7oc/z7iwZygCpJrDMbFdQ/6vaObUajFyeNG0fvqZmklcA9Obwvtr6Qqh/7VN0v92O57pQEqsgsjg/d/d/WTN5wnKFQ0roXGBcymPe79ii6ppd2J3AwpSHPdKSXZBERCpR+v2VIVtrCSyHPmB9ysMOtxJsshZF0QqSCqO03sP9wY5MN97xFNLJYTwB9vog7ideBR5O4fGnGXZYurGxvUmv/1W/wx1RFA1pF7R0TzLuBwE7ITXAoKGbYOqd2PgltdH36v2Held/jV1KDTyXNHVfcbeauqcvh3O9u/+HkldSSmE4Y3eSbyHTPKl3AQuiKFpXTbGKCZYCd5Du1WAX4IwwPE87OYtIRd4iF+YmtCbjmHYsGyhAgnFgL8aeJKnETsNOaSdpDDsTGGr1cw64I4o6djg50xFFPcB9+fuloRgDHB+GF2RSPBBPBUakNNxKg4eGOkhqB3HdF9824ETSLxuVMmV7/BGb9BhYjSUzNva/qsWradxDz9I59K1+iNqr5i6YHM615v6FNZPHv61wSEnP6wTHk84uPO/3MsS3VVus5kSzHZgHqff1Os9o0GY4IlKJ0t6BEINe1f1XvKeBxSmOd0oYtqTSkykMW8aTfHE31KTPGyT9vgY3x4J7gTTmAacZdWPSiU3YaEkCK62E2OOGvznUQVJLYGUbGkeQcjZUypQbjH4Lm3I3NNTecjLvzSU9sGp0euv9q+l+83qy619ESwmHfurEud7cv7hq8vg3FA4ppTBsGQZcwNC/hdzcA469VY0xc+wF4JGUhz0A/CQdkSJSgUakPaDBhjp9a1rRcuRWegqVN+9zuGG7pnN82VRg/xSGetCHlKTzN4AHU3geBzm+bzphjicD+6b4vt07O5oz5C/9UktgWS7eD9hbH9FqZ1DfQ3DgPdi412ur79XG00tXFrJxTR8Dcc9Sul//Nbku7Uw4pOu5c525f17JKymPT7btQfrN29c5zI6iOVVZqhtF0UpgDtCT4rDDwFrC8MLhOipFpNJukytmUCmaudFcN1iQ4rVyJ+DooQ4yJdwV4CRgzyEO1Q88FEUdg+5bFkVz+kjaEgz1fmlMfklkGveFJwKTU3rPljo8lcZAKa6DDQ4CdtNHtPovS7bXH7C9n6jNy0nseE9WV1ILyHa9TNfrvyHuXQoW6LOxY1R5JeXoHCDtpWuPgj1T5ZfFe2BoO+pswQkQHKJDUkQq7Q5RIZAtXyv9BdLZaQ+SpapnDrXX01SOHUWSwBqqt8B/n8L9xB+AV4Y4TB1wShheOGYog4ThhY0kScK0lgUvNgtSuR9MZ9b578szwKGAvi2s9mtS82ps//uhsbMmI+DZGHqyujznZdc/R/dbs4j7VuueZeBUeSVlJwxbxgEtpNvHMgvMj6JoWXVHL1hE+ssIJxr2IR2ZIlJpt4YKgWxxDkW8DHg0xSEPh2DSEMfYmxQquUgST88NPUb2Ukr3E4cZwcFDm/UHO5HersjucH9f3J/KRlV16ZyqgjGkt72ilCvLYfs8hI1fXHO7Dr6rr5b7X235VNu36kEsaGLYHh/B6kai8rRtinFuVOWVlN3pPelhmXYfy+Xgz7SFrTtTop2PivSxjknK/j8K1Kf2lsD5bWHr/7RHHSt0hIpIhdiQ/p0mI2N9S1rxOqJ53W1h68PAXwBNKQy5lxFMAV4ewhhnAOOH+Dxy4Avaozm9Q49R1NUWtj4N/NkQ7yd2B44DhlAVZvuTTm8wgB6DO2/umJfKJDGVBJZhE0gqsKRq8xQBjH6bYPIjEORqsvcVgHfnkhyyvDfH8n56V9wJQR3Ddv8wlhmOklhbnuXizDX3Lyl5JeUkDFvqSZq375Ly0GPBvsrQ+zlUgmGkt0vPRscAR5D0DRERqYx7nbTvvaFBd5VVMo/CHjD8ddJJjIwDjrkwPOeWedHtO3yIhGHYBH4iQ688fxvsgfRi5Hca9jZD7i1up4Vhy0+iaM5gk8qnkt7quleBhWnFqC6lcfYDJuhjWcWCLDbxCRi5vGaTV7jjPf06Fj54ggTP0rf8DixooGm3NixoQkmszW7onFvM/dOrJo9/VeGQMvsETwDOKsDQTaRf1VVLmoGLw/D8O6PoFpX+ikgNX6Zq7gVnSK/30EYbvMRfKFlSLfUU6VX2nFpH43hgxY4/l/hgsDSWDz4G8eL0YhQsAn+eoW+OdxTYngwicRSGraOBk0mtet4fiInfSS0tkdI4x5Je2byUGw9g/JKk+spqNynh/THepznE1k63HvfSu+xmepffAd6Pqr3fO3SAW839E6smj39Z4ZAydC5wgMJQlk6AzH4Kg4hUiH5SrsIyaA5q76ayjnSW2b3/ZrSPAlTI7Yj2KOoHHkzxeUyzQe8gaEcAE4f4+FnggfZo7pq0YvQ2u3YB81MYarzBaYOc1U0lKVBKQxfY/R3RvO60YjT0BNa/r64jWT6obciqVZDD9ngGmlfVbvWVgffkIKsE1jZPd3EfPW9H9C6/U0ms9zzq2JdWTR7/ikIh5SYMw+Fg55EsgZPys78RqJm7iFQEh16SREmaGmvwhjJTgNdcLjF8GFib0lhjPFnqtoP3Pi3NJP2vhroabVmaywcBHo5+DEmSb2kKn5sTW8MZgygyssOAPVJ6SW+APZVqamLII2Tj3YFJOmVX65XIYNRSgr2frOnqKxzozUKsZXHbuzZ6dh3db15P7/K7lMRKLtIfXzNx7B91bEiZfmIPIWn0KeWpCWgJw5YxCoWI1PBdeK0Zn/YNtEGvlbgCK3kz/WXgoZSGqzPslDAM63csFrYrcGIKj/+C48+kHyNbBDyWwlDHBNiUHfkHYdjanI9NWq2mXnL4U5rxGXICy9z3I/3Gr1I2sxvH9nq6tntfAeQc782prdNAp8S5TrrfuiFfiZWlRpNYjwIfXz1x3OM6JqQczQhDI/nmcm9Fo6wdzw7egIqIlCw/kf7d8rAavJEcWYDXvN7KYFOVDYxaAaR5bzwF4v127CC1Y4CdUnjse+JMpiftGEVRtJpkB8HsEIfaL19NtQOzOHYmneQeQA7s9iiKetOMz9ArsCzYn+SFShUmImhaj+32AlhtL53zXJwksLQibsDHjmfX0/3mDfS+Mx+Pe2rt3uNJ4J9XTxz3hI4FKVd1+C7ATEWi7E0wuFBhEJEKmDkUYgnh8BoMZXMBxlwf4yVPYN0R/Qbwh4HlKQ052XYgSROGYcbws1M4rlYB986ZNbsg5Q2O3ckgmtN/4FYPzg3Dlh1pE3EIg+4r9gFrwB9KOzZDS2B9aXU9MIX0t46WcuCG7fQyNvotaj5z05eD/pyOiR28jfHcBrrfup6etyM811krx9EzwCd71zU+qmNAyvwkfzRwkOJQCXNCzgjDGbsrFCJS7nfMJI3c01Tv2IiaujrjBajA8h4nzpXH6+Nx4LWUhhsOHBW2tQ1wGWG8F0mSZqiedLOXCjiLegF4NoWhjjZsQMVGbW0fNuBM0ttA4BnHX087NkNLYFk8Gpimc3WVyvRhuyyCxs7aXj4IWj44lNNvrpuepXPpfusmPLuOKt/v4Q8kywbv6zqkWW+/lK3WMMyAXUiyTEHK3+Fq5i4iZX+/jHcD3SkPWw9xzdxUtbRdaBSgBxawCuJsebzKYCXJErm0fAiPxw5sZmJpfXn3mNuwdwoVoX7qu4C7UhhqT8dPHtDn13vHA8em+DLuWcnwZakfPUOampqNAabqdF2NVyCDxg0wfjE1X33l+R0IZbBnCvB++t6Zn09irQWryiTWM8Alne8036f3XMpdQHwQoIRI5RhGUoWl3SJFpJx1kn4Caxh4zbSrqSMTGLZLASZgG2KyZZHAiqIoJknOpLXcdCr4wdv7S2E4owE4iaEv0VwOtqBj9rUFK2+YF93kwH0MfTfCZsNObgkv3O6KOUsq0yam9BJWGTx5f3RdAe5hhzYvnQyM07m6StMOI1Zio5fWfPUVcZzsQKgKrCGdLNz76V1+B12v/ZK4581qS2K9W3nVd0yj3m6phM/kicB+ikNFOcOwyQqDiJTxtaWL9BNYTWBjaymIpNeD6P3DvjM3ml82TY0dngNeTmm44YadsP3ABuOBs1N4vJc9ufcvcIxsEZDGTuZHZAj2GsAxcjSwa0pP/2W34LFCxGVoM0j3aUA9UoWnTodxr0Omv+ZD4b0xnnM1cE/jeuw5+lY9QOfin5DrfIUqCeozwCVrloxR5ZVUhLawdTTQqut3xdnb4RyFQUTK2CpgTcpjNhlWMwUTsVsz6W+QFgOry2p+RfAW8EhKw2WA48OwZTuN2f1IUtl52W7zILOm0DGKomi5J7uaD9U0sG22fQrDltEkuw+mNTl7PPbcskLEZdAJLLt8FWBHkHS3l6rj2Og3wWp86ZyB9+Ugp/KrNGXXP0/n4v+if83jJKVtFZvIerfyyj8U6I2VCjm7+xTgGEWi4tQbdm5bW8tYhUJEylOwFliX8qAjKEhFUtmaCKR9nl9HmSWwOqL2LpI+WD0pDTmN7fbmtjMZeu/PteAPdMyeVaRqNrsXWDnEQZrBP9QaXlC39Smv7UF6/a/6we7piOYUZAI96BmXB4wGJulEXa3XnxyMXJFUYtX2TC/ZgdCVwEr5ZEyu82W6XvsZvSvuweMeKjCJ9RJw6eqJY1V5JRXjgvDPzbCQpEGsVJ4jcDtKYRCRchRF7f0MvWfPluare4czL66Rbwp9T2BUyoOudXxl2b3SJIH1RkrD7WnYoVv7wzCcsSuQxvXzD44vLGKUniaVpZY2PSCzjcSoHwVMSOlJv+LJ8y6IwZ8IYt+L9MsbpUySCzRugIYuhSJ2vF87EBbmMAuI+1bS/fqv6H7zejy7ngpKYr2E84lcb+ZerS2VStJA92SSLZJ14FamnYCzWsMZqn4XkXL1MpB2s/D9iftr4osXS/pTpl2BtQr8nfJ7rbYY+FNKw9WDH9saXjhsy48VHMx2K7QG5JE+Mm8VbSqKryad3Qgn+Vaq7y+++GOAfQhoSOlpP+rEbxYqJsEQPlx7k16WTsqJAw3d6n8FSe+r3pymegW8dHmui953bqdz8Y/Jdr5cCU/6TzifyPVlblt3wGilNqXSHA8cpjBUtJkBtrvCICLlOY3wl0lvd7mNDrAaqBxuDdsaSZIsmZSHXga8VW6vt5eGbuAeUisVsFMCMh/ol9baFgYk/Z2G2kttpeN33RK1F+3+f040J0eyG+GGIQ412rDTLwxP/sCsNpft3As4PKWnnAUe74jmdhYqJkMoxbRJaAfCKs4rxJjFNR4DIBvj/bGOh0IH2rP0r3mMrsX/Sd+qh8FzDHWPiQJ5E+cz/T3DlbySihOGLU3AuaT3DZuUxl7AhxQGESnPuzp7CehNedg9wCdVe+wC4vHA1AIM/UYUze0pt9d7S3QDJNVFaS1v3NPxD1RZBe6jSGf3wSVgjxU7Tg7PAk+nMNRxdYzd0hdgRwL7p/R03wJ/tLCfk8H40uo6YF9Ul1LdSYVaf3s39r+Klaco1vGW636Nrtf+m643fkvcu6zcjsFluF8e57I3b5jSpINCKnFScQBwmiJR8ZrALgzDGcMVChEpw9vnd0gqftLUCJzYEl5Q7ZOT3YGDUh6z39NJfhToeLHFwOMpDddsSaP2zR1COonBBx1fW+wYZTNjXied3Qj3N4J93v8b08OPGXAoMDqlp/uC438oZDwG10PB4lFgByHVm0voG45nG2o+Q+l9OR0PRT74PLue3mW3kNuwiKbdWqkffSRYHSVuRLYM9y/FcfybtfvunNX7JBVqRv7mOG2vAivQl1pbu6IWomfo8flmtQ8rxCJSZtYDzwBT0j2X2gkBdU1AdxXH7jRgTMpj9hj2dLm+4CiKlreFrY+TVIincc09uq2tbWx7e/v7d108i6GvHOsBFnREc4o+D5g365eEYesCg79maP3RdgVOvCA854Gbo9sdoJnOccApaU2dgfub6poL+hkdVALLzEaQNJiTquTQMxK6R9d8GLxPywdLM9+D7IZFdC7+LxrHn0rjzucSNO0CXpL3Y3k+efXrtfvspOSVVKS2cMYu+RvjtPtqdANfMbi9AGNXg5zD/wW+lHJ89gbOnhGe8+jc6HZdqESkjBISHRvyCYkPpzz0VPAjSXauqzphGA4DP530e2i8Dv5qmU+5HjVYRTrtifY3j6cB9ydxbR1L0rx8qHF9wfHnSzg7egJ4jaE3+D+rgaYf8l5Prb1IlhCmoRN44LqbritoLAZZgcVOOLvqFF3F4gy+Znds9+dqNwbusHEHQtUVlOBMHeDZ9fQsu5nshkU07jyd+jFHYXUjkvemOBVZq3GuiGN+vXafnbSrgVSw4Bjg2AIM/Bj47bOjOW8qxludlLQb/r+Aieney9o5dclN6CpFWUTKzHPAWtJblgSwm2EnUaUJLMOPIFnKlbanDVtX5q/+EfDXSSeBtafDUeQTWJYsHUwjrg87/UtKNjXHVwfYHQx9I55DHZ+a3L8B+Algo1J6mk86tqjgd7SDm9f7PkC9zs1VzA1W7AvZxtoNQTZOvjtX8qqkl3OAbOciupb8jM7F/0V23fN43AtW8Cbvq8z9Pyz2n67dZ7ySV1KxwnBGPXAmMCrloWPgrnYlr7Z3FnuBwiz1OxT8WEVYRMruHhoWkSwvT3veel4YtuxWbfFqCWdkgAuBPdN/K3hidhRtKO/jJbcS/MEUhzwuDFtG5P//cIbePmED8PuO6NaSzQfySxfvJ6lyGorxhp2V3B+21YOdTHp5nYcJ6pcVOhaDmgEaNg0lsKr/4rN8H/yd/aBWdyPsj3E1cC+bKaDH3fSvfpgNL19D92u/ILvuefBsPpFlqT4WsMqwL1vMj1ftM75H8ZfK/vQEe5P0v0rbOw63KsLb1h5FPcBc0t+VayTYxa1ha6Aoi0h5ybwMPFWAgY83OLrqooXtQTq75G3uDccfKffX3xHNzQF3pnidPNqwcW1hOAw4I4WJwmsQ31vyuTn+HPDikA83OCEMZ4yEeH/giJSe3jrgiWj2jQVPHOz4Tc+XVxswmTLd417SmvE49IzAXz4Bekckv66tGR9kY+1AWHZviuHZtfSuuJPOV75D55KfkV33HJ7rTCmRlYzf83bH6+ue++LtK/cZ36u4SxU4h/S/1QV4FOxZhXcgN508UKDJ3ImGa1MdESkrUTQ7duwh0k/cN4H9eRheOKzKQtZGUimUtkVAhVyn7XmSHk9p2MPxkxyfCByXwngPGfZO6e8lfAlJL6yhOtIIDrRkx8u02hu85sSPFyMOO56E6mMMsI9OzbWQL3D8rUPwl06BXF3NvXxXAqtcD0zAiPtX07fiLja8fA2di39C7/K7ifuW5xu9BzuQ0LJ3/26u5026Xv8N3W/dOC3b/fKVzD5nouItlSwMZ4wh+VY37fXgvcCNURR1KcrbFxO8ASwgWXaZpv0MTlKERaT87tb8IaAQy4nONoLTqug6vRfYXzDY3tTbuvTA/VE0Z21FzLuwJcBDKQ03zLCTDE4HJgxxrB7wW2dHc/pKHaOOaG4/eBrLCHclSewdBwxP6ek9GRAUpUfYIKqo4p1JtyGflLNsPfHCMzr9nf3+iHntLKWKSSqwlL8q61ujpGJqHf2rHqT7tZ+zYdFX6Xr9l/Stfphc1xI8uw5wsEySpNrCj8e95Lpeo/ed2+h85Xv0rbwfPJsBa8P9GmafM0mxlsr9lATTgOMLMPQLBo8owgMzJ2rPOXYb8FbKQ9eDnR+GLaMUZREps4TEK8DdBRh6J7B/DsOWXSo9RmHY0mgEf0thmrevcrilUmKR/0LsASCt+eaJwF8CTUMc50+GPVc+nyvuAV4f4jAZkl1Cz0zpaeXA7pwddeSKEYMdzvQaNhGo+BOGDPQN9156Rv3Q1034qe3K54G/pha2SndPKrCkIqbomOFxD7me18j1vE7v8jsJGsaRadqToHFnMk27YpkRWGY4mCXvb9xD3PsOuZ43yXb+ibj3naSn1ntVWwa04t7ATdM/xcXzX1KspZK0vdcUthC7Bt+eo/5PivIOnameIvlJeznnSSRbYN+jKItIOSUk2sLW24CPAGkv+TvTsBbgp5V9XbAjgL8h/SppSHZrXFRJ8XDsacNXpHSdnEY6pQiPeZB5tXyiFCwHfwyYMsSBTiS9JsJvgz9etAgM4t/sTPo7GUl5ygH/7e5XxeHH/+Qx/4LzA4Zetlj+Yof+WDsQVtr0kPyyQc8S9y6jf81j9C67ha7Xf03Xkv+mc/GP6Hz1h3Qu/hFdS35K95vX07fiHuKet8BzWzqPJwkA4/vcNH2KYiwVZieS/ldpe8exWzqim1SjugPao6gbaM9fW9M0zrBzFWERKcOExH3A0wUYugG4tC1sqdiG7jPDlp2BzwN7FWD47uSy07G2wo6Y5x3Sqnaqzx8nQ9FpcG/77Nll0xM3SjaGuQ3oTyE+aS1bfdjNirYj9Y4lsC7rNGA/CpMllvISA9e5xVdx1di1ALlp1y01t8txuyZ/YqzeC27skFMFVmWz95YOeg6Pu/Hs+vd+cl28u7xw+5nK6Rjf46bpByiuUkGfgVOAfQsw8NOGP6X4DkohvhE34JQwbNlT4RWRchJF0Vsku8sV4qb6ILB/awtbK25l0EVh2zCwf6IwXzIBLLLkelNR1pPtNLiD8mnistKxB8swVH8AymVlSBZ4JGqPipYs3cEKrO5GYDedjqteFvitW/wFrpiwSb+O/mm/22DO13H7BtVaiWVA7HhWxQXV98Zu/rND//hsjB8x6+xjmHeuavOkrLWGLcPAZgAjUx46Bu9ojzrWK8qDubjW/Qm4tQBDH2XYyYqwiJQbx64FXinQ8OcCn58ZtlRMf+YZ4UyLiWc6fIL0l1ZCUuX7u9lRR8Ut878zuhmSxNvqMnlKjzj+ernFKSZYBDxWJk9nqeNFTZbuUALLzJrRDoTVf52B2W7xF7liwhtb+gv5JNY3cPsmsK4qI5BzcCWw5APOBPsv+uLjFQopZwF2IIXZne4FsLsV4cGZG82KSRJYaW/H3QicNzNsGaYoi0h53VbbIuA6ClNVUwf8X8c+P7MCNrNoDduCOnItwJcp3KZozwM3Ve7xEi8B/lgmM8IFUdRRdpuYdUTt/cC9lMeKqCUQPF/ce9wdYsOByToVV60c0OHuX+SKCdtcx9o/7XcbYvOvO1wBrKm+SGj5oGzVETjfZ/b0k7l5uqIhZef88HyAMyjMF06/jwnUvH1ok7nH8hOMtJ3m+pJRRMpvsp117AZgYYEeYjjwCce+UM6VWC3hzCAgngF8h8Kdq3PAb6Ccmo7vmCzx28DjZfBUFnt5PI+tsLtJf2fjQd0XZoiLWpW/YwksY2eSJu5SjffUcLO7f5orxw+ozDc+6NqunPkPHK6iyiqxPOvls/paytFRON+nx07lDiWxpLw0UjcCOL8AQ69xuDn/zZ8MUjfZtcDNpH+V2Q3sHEVYRMpvkmHPkWxiUahviIcDlzh22cywZXy5vf6ZYVt9htxM4FvApAI+1CMGs9uj2RU7i5kX3ewkywjXlPipPGVWvl/YOSyj9MsIu8Dnz4rmFLXyY4cSWO7sQXrd6qV8xCSVVwNOXr1r6nU9sfn3q64SK6sKLNmuw8F/yDrOZe509cSScnJycnym7gXD7ld4h+b2aB7AAuDllIeuB84Pwxm7KsoiUk46ovbYsV8AhdwApJkkifWTtrD1iLaZMzLl8Npnhq3jIf4C8F8UZmOVjbqBn1Vi76sP5BywR4DFJXwKvQ73tre3l22/zyjZ2Xg+Q9+NcChedOyVYj/oDi4h9Mn5GySpHg7MyyevBnXC86nX9VRbJZbnVH4lA3IwzjX0cxYLlMSS0msJWzNg5wOF+Ab65gysVZTTuPAGL5H0r0jbEUZwhCIsImU44X4J+DHQVcCHaQRC4JfEwV+GYWvJ+mK1ha2ZtrD1SIcfOnwRGFfgh5xLBfe+2sxy4KESPv5Kq4B+n449SWkTfY9YkHmz2A+6Y03csUmoAquaxEA0qMqrzVVbJVasCiwZ+NGP8x3Wc44qsaTUAvwAkv5XaVvscNtNUaSTYyoTufYuhzmkv9PSOOCMMLxQXzaKSDmaRXLuK/T89hDgOwY/bgtbT2traxlerBfYGrYFbWHLAcC/5l/vn1GY3Qbf7yXHv9UedVRFIUEURVngQZKeXqXwqOOvVECoFlOYnpoDsd7h/vbZs/uKf687UFesNmBPnXerxsbKq88OtvLqAwO+V4l1NZVcifXuLoQ6SGTADnq3Eus2JbGkdAw7GjigAEPfne9hIum9Ww8BLxZg4BYjs4viKyLlpj3qWA32baAYy9zGAB8FrsXtB21h68y2sHVCa5j+0sKLwwuZGbY0tYWthwfEXyFpWv8vFLbf1UY9wDdjMo9V2eHyJFCKJJKDLYiijs5yD1AURWsd7gL6SvDwb5pZSarkBl5N1c84QH0VqoMDt+Qrr9LtwTH1up74hT//fuDWb3AZhVnGUnixsley40c/znfo4tPMm347F87XQSRF1Ra2jgBmkv5S/w3Ago4o6lGU05Mjs6KO7M3A8SkPvTdwHvBTRVlEynAS8pjBl0l24xtXhIfcFfhr4GLghYDg1raw9SHHFznxWx3RvN7BDHp++BEa6B5r2OQcdhBwIXASsBtQrP5bMXC949fNidqr6r4zxpYE+CPA/kV+6Nccr6BkoN0Pvobib7T3rLu/UYpXPPAEVi4ej9lopBrc4+6fT6vy6gMXpqnXdcdP/e/vZxr6ejCuoNKSWLGqr2TQkkqsPj7BrdPv4DwlsaSYkwI/yLDjCzD0S8DdinC65kazvC1sXQD8c8o3nk3AOWF44bVRNG+DIi0i5SSKIg/DcJbhRwCXULxkz0jg2PzPGsMWGZlX2sLWF4FXnfgVsBWGrQZ6eW/HxCD/M8rxCZbs+DoReveDYD9gKskXB6VoGv+Qw9eiaM66ajtOOqKosy1sfYJkCWYxl8X/AXxRpcTJ8D+RbI5QzF2IY/D7omhOSRrI1+1AdHajUqtp5L35Ddzp7p/kyvEFXQriR/wyG//xL38WZHJxPom1U8UEyR1ceQcZtKQSq5svcuOZ8/jwneoZJAV3cvj/Ybx1AYX5Bm5uTPCOolyIi7I9a/gdwMdSHvooCA4GHlGURaTcRFHUFYatXzfYC7gIKHb7hTG8l8yKgR4j6CZZipXN/6zL/1kzyRcDGcPqSRrFDwMaShzGF4HPRFHHC1V8lbwf7B1gjyI9YD/wQBTNqZgNa9qjjvVtYevtFDeBtZQS7ko94B5Yhk0AVIFV2e5z90u5cvyzxXiw+NDf9OV6G3+GcznwdsVEaWMFljoZyeAdhPNdgqCVWWcGCocU2k68ORE4mx3eXXggNync3RG1KxFbmElcJ8k22Gn32phocG5LeEFGURaR8jz/dSwlWUr4+xI/lQAYTlKosRtJUm0ycBhwBElfyb1Jkig75+fDpU5eLXO4Iqbu0eo+SmwhsLCID7ja8XsrMFAPA8XcDfBpM3ujlB/YgdqFJAMtlcj5AzGXFbry6gMPe+QvsgTxz9z5R+DlComVSBomgV0DwUXMOlPpUCm0w0l2XUrbg5B7QuEt5CXHFhTg+mhg52eom6AIi0i5ao86ngE+CTytaAzYMscvc+IbOqJZVf3lUj/1XcAdRXzIFw17sdLi5MlOhMX8DD0xuz1aUarXO7AE1mfWBMDuOl9U7N3xsziX+FXjSvINR3bq9bncBiJ3Pge8Wv7x0hJCSc0ksK/jmY/xuzMbFQ4phLawpQHsImBEykN3g9/SHs1brygXUm4ZSRVW2qZ6+g3iRURS1UPT4yS9AJ9WNLZrmeP/AvyqI5rbX+0vdl50k3tSXVSs+5Dbs8QVd88TRR1rgftIlr4W2nIv4fJBGGgCqyHbhCuBVZGcP+D8k1817r6SPo/jrsVzRB5zKbBIb4zUkEkY36E+8w/88vR6hUPSP80H+wMfKsDQbzh2pyJc6BvPuTngZiDtbzNHGsxoDc+rU5RFpFzdGl1Pe9TxAPBPwGNoLcTW5Cuv/Belap5dGvYSSZPyQlsF/H5uNLciq9o82WxndREe6jUrzvuxVQNKYFlgTRh767xRcV7C+XTJk1d58aHXxrY+MwfnUuA5vT1SQyYQ8G8Mr/97fndmg8Ihqd7a4dMpTJX0AsfeUoSLcuP5LMm3zGk7JaDhYEVYRMpde9TxIPD/SHpiKYm1qdcdvgj+61qovNpk/kjmbeDJIjzUHytp98EteBl4pgiPc6+TW1XKFzrAHljWSGF2NpLC3Q0vIuYT/k59WX17nj3hNxDnbsP9EyQ37GV4pnStIJRCGE/AFTRk/h+zzmlSOCQNbWHrBJLm7WlX960Goo4o6lOUCy+KOlYA84DulIc+ADhJERaRStAedTwJ/A3wW6BHEQGS5M3/c4JfRdHcmrsmz4lmxQ53UtjqIgceaI/mVOyXdhuoXw3cVuCH6QHuiUpcpTbQJu7DSJq4S2X4E86l3h3czn+PLLsnlz3kBmfp0jtx/zSqxJLaMg7j38EvYfY5wxUOScHRwIkFGPcxUz+Sosov13y9AEOf2xa2jFCERaQStEcdLzn2SeBrwLIaDkUfMBv4m2XscktH1J6r3VDYkxR2R/vVVObug++6I7rJSZb2FbK5+qsGJW9yP7AElrEHyfaiUv53wIuIucRX1d3Kt8eU7Rre7Jn3QBwvwP0Syq0Sywy0Z5wUzljgMtwvpf3cYQqHDNYF4VkGfgTJlt6p3jQ73Dw76liuKBfzhsyXAHcVYOijIJioCItIpYiiaEWMXQ38PcmSwv4aC8HrwJUO/9gedfzhwegnNX08WJKUebqAD7EQeLzy0wD+LIVdRvj7mOyS0t8vDSQYse8MZHQ6LXsbK69u48ejyv7JZg+5wensvKvsKrGUv5LCGwV8njhWJZYMWh1NgcOEAgz9FtgCRbi4Zkcd/STN3NNeRtgMvo8iXMI5hSjupb2xrchYdERRb3vUMdexvwa+QWErcMpFF7DA4W9j7Koo6lim4xfak3YG8yjcstK7rAJ3H9xcFM1ZSuEScZ3AA1F0c2+pX+dAlxDuCWgXm/K+TCeVV2vqbuXbYyrmQpU9di7kcuVZiSVSWKOAL6kSSwZ/2g8AK8SSgrsD4lcV4VK8p/Y48GDKwzYCu6Y8Zh+QS/Wlp5+421EbgLRvzLvBN+jIHtDx5OmOF6yt0FjE+XikFguzoLOyJ+XRSzH+H8D/AW6iODutFVuOpNfVJx0+GpO5oyOKsjo1vP8i4fcBjxRg6DeBW2dH83LVESe7A1hTgKGfAm4th9c4sF0IzXZHCaxyllRedWVu40ejKu7JZw+90ent3ViJ9YzeTqkhqsSSQZsTzclZ+j2T1gFzZ0dz1Dy3NBO1pcB8IM2JSw+QdmPa5fmb/hSfo5d0+YYlN/xp70C1EHyxjuztxv45ksqTFOPOysqcfLIOeD7FIV91p+J3k+2I5vS1Rx3zHfs74H8D7QWapBdbX/54/bLDn8XU/TSKOlbOiWargvAD18c5bwK/IqkESnVogswTVRSqh0m/HUEf8Iv2qOOdcniBA63A2hWtqipXr+F8xh9qupXvjK7Yk132yHYsjhe4+z8Aj5X2U2FJHyyR4thYifUJVWLJINxDeg01Y+Dnjt2msJbUb4A0m8k+Apbqt9ZRFHV70lw4rYql+wy7v5RBb4+ifpLqjrSWkawHro+ied06pLd747UIuCOlwZY6/DhKluRWHCdYBXSQzlKplWA/j6Koq1qOlCiK1mapmwf2Vw5/CfwSWFyBL6Urf8x/1qElh10ZRR1/6ohmKXG1zc+HzQJuJJ0K4BwQAV9vnz27t4o+I+uArwMvpDVNB37reFQur3H7fa3+dXWDOX8P7KePTdl5A+dTngvm8JuRFX/Ci//zOfxHz75h/zjtOTM7FNijRGdHfF0vZF1pWymWRuAY3Pv5s/2e4oaX+xUSGYgDpxy00vDlwGEkGwQM9qy1BviNY1dFUbRakS2dhQtfXD9lytTFBgcBQ+lBGgNPgF3eHkUL036eU6dMeYUkAb8/yW7Vg9EP3Ad8uj3qKPmy1alTpryRf01ThvCanKRXzw+AXy5c+KLO59s95hf2TZ0y5eX8XGOvQR7zDrzt+JXA7IULX6zI5UAvLlzoU6Yc+Ipho0nOAQ2DjMVy4LsGv3ph4YtVtRRt0cIXWLhwYf/ChS++NGXK1PnAvfmd0erzn98GBl6kUcTZBRuAV4HfAd9y7HtR1HHXwoUvrnpx4UIlrgZ2ruidOmXK4yT9P/fJv9c7et+TI1mGej3wL+1Rx+IqvDd825KG7nsCuwzhPLIO+J3j/xZFc8qmH9v23/DLV+1uybdsx+ljU1Zew/m054LZfLV8dxscrMxzf36sYd/GOIFip5FyTu61dXh3VgksKbYu4Lvk/Go+smC9wiED0RrODIzcYQZ/AUzN37gP5GbYSL5Ze8vhVrA7oyjScVcGWsKZFpDb3WAmcCwwbgevhd3Ac45dG5NZOKdA3+q3ha1NDqcbXABMJGk3MdDHWgs87nBdFHW8WS6xz7+mDxnMACbt4GvqBV4Gm+v4g5VaBVQK54V/QSMbJhpcBBySn3QNVD+wxOEm8IeiaE7Fxz0MW0cbXAicQvKF7kCTen1JksRudrg/iqLeWjh+WsO2ICAe5dgUw88CjgIOBCYDTSV6WjFJInFRcj7mduBJx9/uqIJjtMTn6WbgTOBD+WvPiAGcp2NgvSfJznvAHouiqLNaYzQjPI8MDePAzwI7wWBvBvbFjOfj9CZJS4PfR1FHWfVy3P7N0GUrp5jZjcA0fVzKxircP+O5zK/46phcdb5Eo+7Zj07D+Brm51HMVJJDbslavEsJLCmJbuBb5PzrSmLJjt7AGz6SgX/zvDGBtSGKolgRLNeJbFgPNO/gdbAnJuieE80u1rFn+WNvR5I9XeU8uR7ka+rNx13VFEOLfSYf+4Ee8/2OdXZE7V6Fn/8gPzkfcAIrJuiq5WPw/PAjNNDXDPFkw/YBDgYOJanw24Ok6n046VVq9ZMs+ewlWTr8Cklftyc8SWgvBpZFaspeiHMFhg9jYElKz58nai55mHwpFjftSJwc6y/WPcSOZwm257KVJ5jZtSTZTSm9VeD/4R7/mCt36qv2F1v37Mf2xfg+5udSrHSSQ+6NdfgGfTkiJdMNfA/nG1w8f6XCISIiIrLjZoStQR3e4FgT2G7guxvsS1LltwvJ8vuRvJfUGs6WK5l7SJJVvSRLq9Y6rDZYCrzm+OuGvQJ0gfX2Udd/c3ST3gCRlG03IWCXr7oA+HX+wy2ltRr8393in3LFTjXTFLTu2Y8diHFNMSuxcm9uSPpgiZROH/BLjH9j5vy3FQ4RERGRdLWGbXWGN4M3QVwH1sQHK7McrA/iLGT6gM6YoEfVliLFt/0E1mWr/hLjFwy+iaikYw34lz3I/ZAv79xXay++7rmP7ePmXzNoK8axGC/rJF6lXeSl5HLArzG+yMz5SxUOERERERGpVdtf92uMQcmrUtsAfNOdn9Ri8goge/DvXnH4TH7b7sJ/25EJdNRJOcgAf4FzJbOn76FwiIiIiIhIrdr2LP2K9QGwk8JUUuuAr7v7t7lyfGctByI+6NolDp9OdpmhoM3rrV4JLCkb9cD/xvkm7dPVi1BERERERGrStmfpXb31OBMUppJZD3wzn7zqUjggPuja1x0+W/BKrLpAOxBKOckAH8b5Bu3TJyscIiIiIiJSa4Lt/GkDxi4KU0msA77h7t/iyvEbFI73FLwSy0gSWIEyWFJWMjgX55NYqsQSEREREZGass0ElpnVA+MVpqJT5dV2FLQSy4HAsDotI5SyYzihKrFERERERKTWbHuG7taAEljFth5VXg3I+yqxbgD6U80SbKzCEik/qsQSEREREZGas+0ZutEIWkJYRF2o8mqHxAdd+zqxfRLnN0A2vRSBJY3cXTGWsqRKLBERERERqSnbS2CNBRoVpqLocvcf5ZNXqrzaAblpv3vb4+AL+SRWOpVYZlCfUSN3KWdJJVbMN5k1fV+FQ0REREREqtk2E1jujCfZ/UoKq9vdfwRcyZXj1yscOy53yG/fySexfg30DnlAA2vIqJG7lDsDWoHvM+vsqQqHiIiIiIhUq+00+fFxKIFVaL0OPwa/givHr1E4Bi93yG+XuQefA74HdA5pMAcaAsgogSVlLwOcB/YdZp19oMIhIiIiIiLVaDtN3JmAEliFFOPcQGxf5coJ6xSOoctN++1Kj/mKO98h6Sk2aFafwTLqgyUV4yyw7zJr+kEKhYiIiIiIVJttJrDMbDegTmEqiCzOdeT4PFeNfUfhSE9u2rXriLk6n8QafCVWxrBG9cGSijqfnwP8hBvOPkHhEBERERGRapvwbMvIAfwd2XE5nOuJ+ax/ddzbCkcBAnzItZ3EfA3n68DawY5jw5W/lYpzEoH9kBvPPlGhEBERERGRarG95NQuClHqYpyImM/51ePeUjgKJ3fItetw/wZwNYNJYhnQWKdG7lJ5jCMw+4EqsUREREREpFpsPYF1+ep6YLRClCrHmavkVfFkp13Xjfv3gavY0SSWg9UHyTJCkUpjHEFgP2LW9DNYfIniISIiIiIiFW3rCayYEcBwhSg1cT559Um/etwrCkfxZA++ros4/h6DqcTKBFhTnRq5S2UyDgd+wBMLz2LuhSolFBERERGRirX1BJb5MKBJIUrFxsqrS/3qca8qHMWXnXZ9z6AqsQKgScsIpaJNBb5PX99ZLPuyoiEiIiIiIhVpGz2wfAxJE3cZmvdXXil5VUKDqsTypJG71WsvA6loU4Dv8sADZzFvhrKxIiIiIiJScbY1K1cF1tCp8qrMvFuJ5X4lsHog/8bqM0kVlkhlSyqxenvP4ol/UDRERERERKSibDWBZWajgREK0aBtrLz6lJJX5SV78HVduTj3PXf/V2DFdv+BQTCiXoGTapBUYi1erEosERERERGpKNuqwBqOKrCG4k6cz6phe3nyQ27s9dh/ivMvDCSJ1VSHNWg3QqkKGyuxzua3Z2ltrIiIiIiIVIRtTV5GAM0K0aDchXOpXzVukUJRvuJDru/12H8+kCSW1QfYcC0jlKoxBfgBjcEMrlUSS0REREREyt/2KrA0Y99xd+B83K8c97xCUf5yh1zXF8fxz4n5NM6SrX9SDBvRABmtupKqsT/Gd6gPWvjtmUpiiYiIiIhIWdvWpEU7EO64R3E+5VeOe0GhqBzxIdf3BW6/AfsEsNV+ZTa8DmtUTleqyiSMa2jMqBJLRERERETK2pYnLJ9bFwDjFJ4d8pTjn/bX1j+jUFSevkN+F9dlbQ5un8RZvMW/lAkwNXOX6jMZ43s0BP+L2dMbFQ4RERERESlHW05gZfoyqAJrR/zRzS/lK+Mf4NcTFY0K1XPYbz2ImQt2KbDF/mU2okHN3KUa7Q18A+evaZ+uLK2IiIiIiJSdLSewjHpgrMIzIH90848T9N+vUFS+vkN+F2f6mePwcYcPLAW1xgw2skGBkmo0AbiCmL9VJZaIiIiIiJSbrSSwTBVYA7PI3T/HFePv5z92dYWjOvQe/jvPZXJ3OFyyxSTWyAaoU7sgqUpJEsv5B2afoySWiIiIiIiUja3NwuuA0QrPNi1090txX6BQVKEDb/D4oGu3mMSypjqsWauspGpNAL4M/gmi6c0Kh4iIiIiIlIMtJrAsqcAapfBs1SJ3/wxXjr+VqybECkf1ijO5Oz+QxDIIxjSqCkuq2RicLxHzcaLpTQqHiIiIiIiU2tZm4BlgmMKzRRsrr25VKGrAViqxbFg9wSj1wpKqNhrni8SoEktEREREREpuW0sIxyk8H6DKqxq1sRKLjUksAxvTpB0JpdqNxvmCKrFERERERKTUtpzAchpRBdbmVHlVy96rxPon4EnI70g4Wn2upeqNUSWWiIiIiIiU2tYSWKPYenVWLXrV3T+vyivJHXTt3R7bx4GnAGx0Iza8ToGRavdeJVb7dH25ISIiIiIiRbfFJJWbjSbpgyWwxN0/R9ZvVigEIDftdw+RJLGetPqAYNwwyJgCI9VuY2P3zzHrbG3yISIiIiIiRbXlKiuLmwDNyOF1d/8CudwsvjYhp3DIRtlpv3vQY/sn4AEbUY+NVEN3qQmjgM8Cn2fW2VpOKCIiIiIiRaMlhFv3hrt/Bvcb+erOrkNFNpeb9ruH3fkHzG4Lxg2LrUlLCaUmNINdCnxJlVgiIiIiIlIsW0tSjaK2lxCuxrmSuP5GrlLllWxd7uBrX/CYS60xc0cwXksJpWYMB7sE7F+4/uwJCoeIiIiIiBTaVpYQMpLarcBahfPvZPkfrh6lyivZrty0a1/0mE/YiPo5wZimrBbfSo0YAVxCxr7O9WftqnCIiIiIiEghbTFJZdTsEsLVOF/xbvtP/9q4Xh0eMlC5adcuJGOX2OjGDmtu0E6VUisaMP6STHA115+9s8IhIiIiIiKFspUklQ2n9hJY63CuIMuPuGZsvw4N2VHZqdcusabMZ4KxjTdZY0ZLT6VW1GP8FRn7BjdN31PhEBERERGRQthakqqR2tqFcAPONz1r/6XKKxmK7NRrF9vIhs/b6MbI6gJVYkmtyGD8Bca3mX3OXgqHiIiIiIikbVtN3GvFepyrPbZr+NrYLh0SMlTZqdcuDkY1fsaa628iMFViSa3IADNxv4bZ50xUOEREREREJE1bS2CNrJHXvwHnG56173D12E4dDpKW7GHXL2Z04+dtWF2EmSqxpJauKW24f1OVWCIiIiIikvZkY1OfWZ0hWUJY7VR5JQUVH3PTYhvV8BlrCG4CVIklteL9lViTFA4REREREUnDBxNYdTQBTVX+utfjfMNzqrySwopPbF9sAZ8j4AYgq4hIDV1b2nD/hiqxREREREQkrUnGphpoBBqq+DWvx/mqx3YNX1XllRRefP6tS4DPAL9ESSypHarEEhERERGR1HwwgRVTD9RV6evtxvmB5+y7qrySomqb/xb45cCvgD4FRGroGpP0xLpp+r4Kh4iIiIiIDGVysSnPVWsFVg/wXce+yleVvJISuGjBUsw/Df41YL0CIjUiqcQyfsBN0w9UOEREREREZDC2kMCigepLYHUD3/fYrubKsev0tkvJzFywhsC+DlwN6FiUWmHAuRjf5saz91M4RERERERkR30wgWU2nOpq4p4FfuxuX+EqJa+kDLTN34DZd4F/B95RQKSGnEtg3+em6YcqFCIiIiIisiO2kMAi2OLvV6YscJ3H8ddVeSVlZebtXdD3fdwvARYpIFIjNlZi/Rezpx/HzdMVERERERERGZAtLSEcDgyrgtcWA791iz/PVROW6q2WsnPRPVk8vhHnH4GHgZyCIjXieJwf0suJCoWIiIiIiAzEBxJYZjQA9RX+umLgOrf4Mq6Y8JbeZilbH74zpm/lneB/A8xGOxRK7TgK5zvMnn4Cc6YHCoeIiIiIiGzLFiYNVukJLAcixy/niglv6i2WsvexJ+CiBS+A/xPON4C1CorUiGNwfkqWsxQKERERERHZlmArv1ep34bngDmOf46vjH9Vb69UlIsWLMf5KvBPwEKSSkKRancwzreYPf1M5kw3hUNERERERLakmnpgOUny6lN8ZfzLemulIn14/gbqMr8D/hcQob5YUhum4XyPLGcrFCIiIiIisiUf+LbbLlt1McZvgYYKeh05YJ7jn1bySqrGrLN3A/t/wP8FdlFApAY8i/FJ6riTlvmucIiIiIiIyEYfrMAyhlNZyStVXkl1umjB28AVOH8F3IuqsaT6TcP5riqxRERERERkcx+swLp81f8B/qdCnr8qr6Q2zD57Em7/CPwfYCcFRKqcKrFERERERGQTW2rW3lxBz/9mVV5JTZi5YDHEl5P0xroTNXiX6pb0xOrnPIVCRERERERgyxVYnwSuKfPn7cBdHvs/c9X4F/Q2Sk25afoeGP8A/C2w+5Y+xyJVYhH458HnctEdWkIrIiIiIlLDNq3A+kqnURkVWHe4+yVKXklNunj+m8AVwIeB64FOBUWq1AFg3wZrUShERERERGrbpgmsDVmjvBu4O3C3u3+SK8c/r7dPatZF87NcNP8hsH8C/h54CuhTYKQKTQL7BrPOvoj2s+sUDhERERGR2hRs41fl6Al3+xRXjn9Ob50IcNHtq2DYteAh8K/AIpJEr0g12RfsB+T4O35xupJYIiIiIiI1aNOUlfdlcEaW5TN1/kjMp7hy7NN620Te56IOuGjBa2T5JvBR4IfAmyS7dIpUi10x+zLN9X/PtWc1KBwiIiIiIrVlswSWB+D1ZfcsnadxPu5Xjbtfb5nIVvzZ/BwXzX8S7FPATOAnwEoFRqrITgRcQV3wd/zq9HqFQ0RERESkdmy2hDAIMGsss+e4COdSJa9EBuii2/u5aP6jwKdw/yjuvwOWo6WFUh3GE/Blmusvof3cYQqHiIiIiEhtCLbw6+Fl9PxeJOYT3pO5T2+VyA66aH4PFy9YgPvf4f6XwG9QRZZUh/HAvxLH/0z7uU0Kh4iIiIhI9ds0gWVA+VRpvETMpb6m/nauGa3KEZHB+vAd3Vy8YD5x/HHcP0qytPANIFZwpIKNAr5IHKsSS0RERESkBmxWgWUBUA4TgReJucR7g9v50Uglr0TS8OE71nHxggWYfRy4GPhP4DWUyJLKNQa4TJVYIiIiIiLVzzb51WUrR5vZdcC5JXxOLxFzia9quJ0fj1DySqRQZp3TBD4NOBv4CHAg5ZHAFtlRa4CrCYLv03Zbt8IhIiIiIlJ9tpTAuhY4r0TP50ViLvXe4Ha+NUbJK5FimHU6UDcROBesFfgQ0KzASIVZB1xJEHyPttt6FA4RERERkeqySQLLLl85FmwWcHoJnssiYi715Y238dNmJa9Eiu3mM42ezATgGGAGcBawF9Co4EiFWANcjfNDLp7fqXCIiIiIiFSPzRJYq8YD84Dji/w8FuN83Lszt6hhu0gZuOnsDHAAZheQLDE8CVVlSWVYD1xDzr/JRxZsUDhERERERKpDOSSwXgc+5dlgNl8do2bSIuVk3oVGb98E3I/CrA04DdgTGK7gSBnrBL5Nzr/ORxasVzhERERERCrf5gmsCcBtwFFFevzXcD7lcRBx9Zic3g6RMjbrzDoIJoGdTrLM+HRgl83PIyJlohv4Zj6JpUosEREREZEKt2kC67JVu2DcA0wpwmO/hXOp92dm8fXRqrwSqRRPfgpee3YEOZ+C23SM04CDSZJZGQVIykgn8AuMrzBz/lKFQ0RERESkcn0wgQX3YRxQ4MddDX6Z98f/zdd26tfbIFKhrj8Pgv4RWHAkxgnAGcCRwDggUICkDMTAzzEuY+b8dxQOEREREZHKtKUE1r0YBxbwMVeB/7sH8U/48k69egtEqsT1ZwRk6sYBk4HpGKcCU4FdgToFSEqoD/g1xuWqxBIRERERqUybJ7B2w3gE2KtAj7cG/F/d/CdcMUHJK5Fqdd0FkOkdgdmhmJ0AHE2yOcSeKJklpZEDfkPAv9I2/zWFQ0RERESksmzexH0P4ClgpwI81jrga265a7hipx6FXqRGzD3TyNoI4mAvkg0iTgMOByYCY9FSQymeLEY7xmdpm79E4RARERERqRzFSmCtB77u+Lf5yvhOhV2kRs06F8gZse+K2ZGYHQkcCxxCstSwAe1qKIXlGDdgfE6VWCIiIiIilaMYCax1wDeUvBKRD5hzvtHfPxZsAsYhuH8I7GiSZcw7AU0KkhSAKrFERERERCrM5j2w9sd4CBif0viqvBKRgbvhTDAbidkhGAeDHUKyq+FUYCRJ/yxVaEkaVIklIiIiIlJBNk1gfWnVoQTcQ9KXZqhUeSUiQ3PDmQ0EwTiM3XA7BPwYzA4haQa/C9CMEloyeKrEEhERERGpEJsnsA4h4F6GnsBS5ZWIpO83x0Dj6FFkbF/c9gcOBD8Y7GBgMkkPrXoFSnbAxkqszyuJJSIiIiJSvgqRwNpAkry6RskrESmoG081rG4EBKOBvQg4PKnUYn+SKq2dgdFARsGSbcgCN4N/josWLFI4RERERETKz+ZN3I8C7gDGDHK8Hnf/Ds5VXDV+vcIrIkXVcT70bYCgbjhxZhKB7QNMBA4ApuX/fzeSKi3105L3c+AW8E8piSUiIiIiUn42nbxdvvpDhs8FRg1irC53/yHwFa4cv06hFZGycf1ZDWSCUZiPAPYGOwhnf4ypJL20xpNUno5ESa1aFgPzwS/logUvKhwiIiIiIuVj04naZatPM/MOdjyB1evu3wOu5MrxaxVWEakI7WfXE/uueLAH+O4Y+wF7ge0P7E1SrdVEUq1Vp4DVBAfuJvYv8OEFjykcIiIiIiLlYfME1qlmPocdS2BlgV+4+2eUvBKRinbd6UZAPUFmBNhwjF1w9gLbB2NfYF+SSq0xvFe1FShwVch5ktj/iY8seFjBEBEREREpvaEmsHI415Hjc/7VcW8pnCJS1drPbiD28ZjtQsyuGHuB7QrshbN78mt2A4aTNI6vRw3kK5fzeD6J9aiCISIiIiJSWpv3wDrVGHACK4tzHTGf86vHva1QikhNmnuq0VPXBEETRhNmw8H3IFmKODH//7uDjSPZEXE0MCJ/nm1QAMve7bj/by5esEyhEBEREREpnU17ung8ArOBLIdxnNnk+Lx/VckrEalhM+51oDv/s9HLm/yd9tMCvG4UMAG38biNxXwc2M7Arji7ADthvjvYBJJm8nUk1Vsb+2+puXxpnAycBlyvUIiIiIiIlM7mTYl9AP8mxpmDa9mgiMiAtN0TA2vyP3969/fnnwargzrINBDQADRhXg8055ckTgD2ANsF99GY7UpSudVMUsXVTJLsasz/v5Jc6WsC209hEBEREREprU0SWBbYIpy1+YnRlmxMXn3arxq3ROETERmC6fdAshFGFuja7E8XfuDvR6dmiIPhxMEogmA0MaOAMZgNA8aBjwLG4jYS2A1jFPhYsJEkDeeHkVR1Bfn/Zt73ayW/tiyH+QaFQURERESktDZJYLn7G4bNAj7OB3fW2pi8+qRfNW6xQiciUmThvTlgff7nzQ/8+bWnAQRYpo4gaCCgDqgHz2DUYYzEGYczEmcsZqMxxgKjcB+G2XiSiq4mkoquepLqrqb3/TTkf68h/+fV7m2c+3XwiYiIiIiU1ge+cbfLV00ELgcuJlmq4kAnMIeYf/Orxr2isImIVKnoVMNtGNm6EeANWDAMbBj4MMyG4d6EWRNJNdcw8OEkia1ROHVgo0iSYA0Yzfm/14x7BrMR7/46+ZJkY+VX5n3XpGCz/278f9h0R8diVIxtAK7G7RtcfHu/Dg4RERERkdLZ8gTgspUjwI7FOBn3HPAkxu/5yvh1CpmIiGwiqfzK5HNRdQRBBiMg8AAjg+cTT2YZ8AxYkpyyOEl0xfZe03pnNEaAWTNOA1CHeZLwckbl/54nuz0yLP8Mhr3v/zf+OiD5AqaOpFrs/de7LVWPNfJeVXIOeAO4EfNrmbmgU2+yiIiIiEhpqeeJiIhUj/ZT4b0EFlCXIWtNm13vGnHbNIFl1sh7Sa0sxG/w4TvWKqAiIiIiIiIiIiIiIiIiIiIiIiIiIiIiIiIiIiIiIiIiIiIiIiIiIiIiIiK16f8HKgy6fqCKPUwAAAAldEVYdGRhdGU6Y3JlYXRlADIwMTktMTAtMTRUMTg6NTI6NDkrMDA6MDBBnqTAAAAAJXRFWHRkYXRlOm1vZGlmeQAyMDE5LTEwLTE0VDE4OjUyOjQ5KzAwOjAwMMMcfAAAAABJRU5ErkJggg==;" parent="CcuzoNxnnxqacmadoABp-3" vertex="1">
          <mxGeometry x="8.7" y="11.629999999999999" width="172.6" height="66.74" as="geometry" />
        </mxCell>
        <mxCell id="CcuzoNxnnxqacmadoABp-6" value="&lt;font style=&quot;font-size: 17px;&quot; color=&quot;#4a4a4a&quot;&gt;scheduler&lt;/font&gt;" style="strokeColor=#dddddd;fillColor=#ffffff;shadow=1;strokeWidth=1;rounded=1;absoluteArcSize=1;arcSize=2;fontSize=10;fontColor=#9E9E9E;align=center;html=1;container=0;" parent="e0zx1OXjUzG2xtG4G9Sb-516" vertex="1">
          <mxGeometry x="12.5" y="140" width="190" height="29.99" as="geometry" />
        </mxCell>
        <mxCell id="CcuzoNxnnxqacmadoABp-7" value="&lt;font style=&quot;font-size: 17px;&quot; color=&quot;#4a4a4a&quot;&gt;postgre&lt;/font&gt;" style="strokeColor=#dddddd;fillColor=#ffffff;shadow=1;strokeWidth=1;rounded=1;absoluteArcSize=1;arcSize=2;fontSize=10;fontColor=#9E9E9E;align=center;html=1;container=0;" parent="e0zx1OXjUzG2xtG4G9Sb-516" vertex="1">
          <mxGeometry x="12.5" y="180" width="190" height="29.99" as="geometry" />
        </mxCell>
        <mxCell id="LnXka2nQhwwxLxmS0V3T-3" value="" style="edgeStyle=orthogonalEdgeStyle;fontSize=12;html=1;endArrow=blockThin;endFill=1;strokeWidth=5;endSize=4;startSize=4;dashed=0;strokeColor=#4284F3;exitX=1;exitY=0.5;exitDx=0;exitDy=0;entryX=0;entryY=0.5;entryDx=0;entryDy=0;rounded=0;" parent="e0zx1OXjUzG2xtG4G9Sb-516" source="CcuzoNxnnxqacmadoABp-4" target="e0zx1OXjUzG2xtG4G9Sb-418" edge="1">
          <mxGeometry width="100" relative="1" as="geometry">
            <mxPoint x="445" y="55" as="sourcePoint" />
            <mxPoint x="495" y="55" as="targetPoint" />
          </mxGeometry>
        </mxCell>
        <mxCell id="2LDHlqbD8E4kgoL2S-fC-4" value="" style="shape=image;verticalLabelPosition=bottom;labelBackgroundColor=default;verticalAlign=top;aspect=fixed;imageAspect=0;image=data:image/png,iVBORw0KGgoAAAANSUhEUgAAARcAAAC7CAYAAABPetr1AAAABGdBTUEAALGPC/xhBQAAACBjSFJNAAB6JgAAgIQAAPoAAACA6AAAdTAAAOpgAAA6mAAAF3CculE8AAAABmJLR0QA/wD/AP+gvaeTAAAAB3RJTUUH4QgKADAzLpeexwAAfpRJREFUeNrtfXd4HNX19nvubJFWXbJkFctVbsh9m+QCMr0GCBhIIUAKCSEfoYYSkpAQkkAC/AKEEkINCcX0jk0RbtI2d9nG3bKKJVm9bpl7vj92bUvyNjXbkD3P48f2zsydO7e89/QDxChGMYpRjGIUoxjFKEYxilGMYhSjGMUoRjGKUYxiFKMYnYBEA7nZaDTmWK3W5NiwxShGx5kWLFiQdCL3zWg0aqO932KxZFhNph/GZnVwJGJDEKPhovlz546TUmqP1fuKjcZpJSUlcdHe7/P5sl0ulzeae2fNmpVAwJMavX5pbGZj4BKjYyQqBKMlS5YoPq329LKysqZj0eFZs2YlSCHOLy0t7YmSCzEBqIvm3nMKCvTxev0bxPzy6tWr24fSz5LCwsTjObElJSWaGLjE6LjRrFmzDNFu6FDX9u/bd6uQctsxWoPCoNc/ByE+jOZmq9WaLJjn2my2tmg2Y3Na2ssMeOMSEt4dyrgWFRVN7zQY0o7X3rVYLFO6urpSYuASo+PGtcTFxWVFsUGNer1+fIhrsyTzT8udzjUDea/VajUOatOaTH9mohSbzbYlqhcx30cazRvR7Ifuzs7nJPOpqpS/Ky0t9Q12UK1WazKk/JbD4dg/kOeMRuPYSPeYzWbzOQUF2gjtaCHlpXa7vTEGLjEaCZY4oj7CYrEs9ng8zWF1G8XF8WD+P4fDsbX/tcLCQh2kfBmAAwBHu/GsZvPDPp9vHwA5oE1rNt/BRLcqGs3dUQGRxfJjZnZHIa6JIpPpnwC+D6InXS7X2qEANkv5iOL1/nsgD1kslos0RKdEGLvRCnDWRzt3usPdpxHiN0xki+lcYjQi5O7omGU0GlPC6Ukg5anr169vCdeOVNWHmbkjGBAkxMf/GcBJBFRE06dio3EmpLRBiHdcLtfBAXEsFss9AP4M5o/WrFnjiALEigA84JPyL5H2gcVsfoqJfsTMm3vc7nuHMu5Ws/kOMFetXreuJtpnio3GmcT8nE5VP44AWs9LovfCjpPRaAXRuQ6H47Pjuf40sS34zSVJNEcRIhHA58GuV1VVTRZARtiNYjJdCuafEvC7INfOANFN0aylwsJCXUJ8/K2S6G4CXvL6fKui/Y5zCgr0TWlpDzHzzwF4hVZ7axSiQz5L+RYzvxoBxITFbH6KgB8D6IYQv9y4cWPnYMfcYrGcz8w/I0WZOQBRaJQU4l0QrVm5bl1DSACyWu9mKePK7fYN4bhCKeVrCnDn8V5/MXD5ButSCJjPUo4KAS5C+ny3M7AlzAadCOAZACBgXb8NkQOi/+KQpYloceDf3E8003R3dl4B4G4AUwF4VeDxaE3CJpNpahPRKwDmBN7zcllZ2bYImzVHMH9OQqRyd/c94Ti3/Xv2PMXAjwI/PW63278Y7IAXFRVNZ1X9L0v5a5vD0RbNM+cUFOgbhXgDwHhIeW0YPdM5Usp7mOjCsA0yP0NENGbcuFdht8fAJUbDT8XFxWnS5ysmogIAfzrqhDMa5wP4HoS4OtjzCxcuTPO63R8BSA5wQV/12rxarRCvMzCq16JeWGQ2v8pC/AtAIzPnE/PpPZ2dFwAY2+u+TQ6nc31Umy419eckxB/AnOh/lBuS2ttvDvfcfKNxkqooH4O5AMz/sm3eXBeq/cq9e/8Lom8HfrL7pLw3Wr1REI4lQ/p875EQu+0u1z+iPQCa09KeJeBkEFXYHI7lob7JB7xMRLvsdvsHIQHIbP4JM1/KRNctXbpUPd5rMKZz+QZSSUlJnJSyCMBkAPPNZnPhUTcpygMAtMR81BooKSxM9Pb0vAtgyqHfVFU9vEk1QjzGwPyjDk1gCaT8BFI6ifktANdzb2DxU7zRaBwVhq0fbbFYftWUnv4VET10CFgAsNBofv3Ztm2NYZ5drAqxGswFBLi9Uv42lOjQlJr6EYBDwHLQJ+UtLperNdhYRjPeYH6XiMYJ5lsQpZLaajb/iYHvAgBJeVewexYsWJDkE+IdIkphKX8XCvzMZnMhA48A2DNu3LinT4R1GONcvoHU3d09Cqp6OYgocIL8FcD5hxa9xWS6DczFgduz+3Ms3W73BwCKe/9+wfV3Zfz5jPOyHrvxBzfXVe65dgjC2nQNUZ3VbF5PzOuYqAEAgzkPRHMh5QwK7tT3cX5+/rPl5eXBxCCDRoi7IeWvACj+Y1O87HI4aoNswmyW8kMimhv4yUdS/sHlcq3u31OryfRtNDR8EumA7ursfIGA+QT8tyxKJWqR2XwdA3cExmRlucPxbhDQ0nR1di4loBDADrvT+UpIAPJ43gIQx0S/PxG4lhi4fENJSjlJEF3SWwqwmM0vkhB/Yubzifmw9URvSLhh6YZKpGTmpDs/fqvo0/88Xex1u486rRPjdLs+fuEfqKvcM1wc8zwmmtdHQxRSjcCVilZ7Q/9NM2vWrASDXv9dAHdzX9HLQz09dwcRXYqJeSmAvF5tv6jp6Hi+N0cwZ86cVL1G87hg/nNpRUVHWJAwmf7MwGUgOsBEN0cpQl3MzI8G/usRinJ90EOiq+sxAs4K6Lx+H4JrIel2/xtEkwFss9vtLw7nWjIajQaXy9U1qHMkthW/cUQWs3k5AadF+4A+3gBdXDzamxtPyA/KGjexcsKMOV8I0JY9mze01u3bqWeiRWA+A0BKEDD6t93p/EE/EeTnAB4GoOt1Y6kk+pHD4djda+ObiPlVAE/YHI6/hRVrTKYbQfSw/5V8nd3pfCoKYDmLmN891A9mftTudN5w1H0m021E9EBA3FxvdzjmBm3PZLqLiO4LcH/n25zOD4dr3C0m03dU5uUDdRmIcS7fIPrkAGdBVa1dLQ3GNx/50/e3ry2fNJDn3d1dcHd3nbDfV79v99j6fbuv6ocgwbkcwKvR6X7TW8zzut2PAPh+v+fXCq3217ayskPAQkUWyy8k818B2Nxe778igMTPwPxQ4L/LVOZnI31Hsdl8imR+8zCwAOs6u7vvCtL2D3pxl6rwen8Ror2zJXBvgPP7yOZwDCew3EZEHpfTeXCwbcTA5WtGa/ZzfIfwzSNiS13l3pK6PTuKlj/3SFb1jq3Y/9VmeD3u/+nxyR4/af31jz4nbj7NpEtISLjS63bfB2B0H9aOeRsDfxgzZowN8Ju7FaInmbmEgDYJ3BvOsdBqMv0QzI8DIBDVCUX5hausLKxpvchotErgPQCH4rhaQPTLin5il8Vi+S75gUoAAAnxTvn69auD6I4mqswvE5EAc4dPyhuGawytZvMfAHzLJ6U5pnP5BtMX9ZyoSrXE3dV9duXWDad/+NazBfsq1iv7t1egu6M9NkD9yJCYbH7jr3/cnZ2T5+tobT56fRO5JPOD2vb2z3fv3p1VZLHcJv3OefoAR/PK+AkTvnA4gjsAF5nN32PgaT9GsRRS3lNmt+8M1yez2TyHgY8AJAVEIQngr+c6HKvtfdu+jJlfwCGlNNAuFOXmIJxNBpg/IqLUwDc95nI6dw2DfkWrCPE4gGsgxLkuh8M7lPZiOpcTjF5jVjIOeI2dbe3n7dnourhmz47CvVs2iKrtm+HzemMDNJSTVKfrVDRxz3i62jYHTOmXA4jvdUt1t9s9b+PGjfUhTvRrATx+aPMz8JYhIeG74dI+WI3GhRDiXQBpvXRCz6rMN/c2fReZzd9m4BUAvQMS77I5HH/uIwoVF8erPt9nFLDmMfCVUls7t6yqqnuIwJKiEeJ1AKcT0WvldvsVGKTPT4xzOYFoeROncI96wb7Na3+w+bHnFuza6DLs3bIBvv9xEWe4yefxJPg8npDiAxE9EQJYyGIy/RbAPb1u3gnglnDAYrFYzgPza71EIRDwvpDyz/a1a1t7gdb3GXi2N7AQsMYrZR+F8pIlS5TKPXv+S0SH3AR6NKr68zVDBJaioqLxrKrvw2/yrtIx3zpUYImBy3Gk9/dxmqer7tJtttXXvnH/7+fuXG9T2psOxgbm+FEXKcpD/X8M+JA8B+CIaZ+5QxDdVma37wmjl7kSzM/0BgwGyiTwV8fatYfFKIvJdBuA+/tJES1un++X69at68OqVu7d+wiILjr0fwk8Zlu79ouhfLTZbD6ZVfW1gF5KVYS4a4XNtn84BjQGLsdSf7KHU2vrd1z51dryH7/x11tn7FhvF153z3HrDysaaPRxSExMRFpSIhQCOtrb0dTUBG9/EYwEfLp4SF08pEYHJgFWFDAIxBJS0UGNT4LPkASp0UOoXpDqO/xHSB/I5wVJH4Tqg9LdBk13O4TPDWI+7nOTlpUjbn76zUtbmpVXLyskDwBYrdYzfR7PkwAm9B42MD/sUdUPwgDLjSB6qDdgEPM2KMr9qs9XBvjDD5pTU//BRD8Koqt4cN26da5+ItmdAH7em7PR9/T8aQgcBlksltuI+b5DOEBEr7h9vlcGAVATHQ7HXvTzTI7pXI4BPbti81k7HSt/u2fLxqK9FeuEVEfegVJq4+CLS4DUxkPVxUHq4qFq48B6A6bmZeGUKfk4aXQqWpubYSsvx+bNm9He7lcQs1DgTUiDJykDnqQM+AypkBrdCCGcRFxjFRLq90Db2RzAMYG83FxkZWaipbUVdQcOoLNr5E3lcxefg+nFpzTv2eRa6fj47Uyf11scRHZ6W9FofrpmzZr6IHoLrUaIhwH0cYpjYDuY71G02rfLysq6jUbjWI0QrwIoCgIsH7d3dS3pbUWymEw3kR+sDrV3kL3eCx3r168ZzHfOmTMnVa/VvgDgW71+rtDHx5+zYsWKAXEtRSZTiUq0K1hSrBi4jBA9/d9PR2/bt/meun27vrNn49oUn9czApyHFt74JPjik6HqE+CLS4QalwBVZwArfZlSg1bBaRNHY9G4UUiN06K6uhqrVq7Eli1bwMxgoUFPWg560vPgTskC6NiHnWk6W5BUvQ361gMAgMTERJx/wQU46aST0NHRgfq6OuyurkN9fR0aG+rRfLDhmOqlGFivaDQ/KCsr2xQEWHI0ivIamBf2fYi3Qso/+Yjec7lcrRaL5Spi/juCOP8B2KJh/vZqp/OrflzQw71VR4L5tjKn8++D4VqKjMZ5LMRSABN7/dyoSPndNS7XsoG0ZbFYzmJmX6i8MTFwGWa69d6Hrqk/UPnrfRUbJvV0dgxPo0TwxSXCa0iFz5ACb3wy1PgkqLr4iI9qhcBpE7Nw9uRsGLQK6urq8PFHH2HXLr/l0puYjva8aejJyPdzJyT8Ig8JQAiwUPz/PkRCCbuiSUqAJejQH6ke/g0sQVJCSBVQvSAOHt+n7WhGUtVm6Nr9HsM33XQTEpOSoNVq4ZGMuh4O7FtGW9NB1FbtR11VJeqqKtHaNGJexvvJn8rzoyBi0CVM9AQBmf3AaDOY/0qK8onw+bKkEA8COCMocDE3CODH5U7n4RijIrP5bj7kJHekzSc6u7p+VREhLCEICavZfBOAPwLoHd7hJaI74gyGRwaS1rPIbP42gJPKHY4/IUSgZkznMgy0YMGCpPEz5/2x5UDND1e++/KQs71LbRw8SRnwJqTCa0iDNyH1KE4kAhpBKhoUT8jGT4umIS8tCV6vF6+//jqWffIJJDM6c6agucCK7sxxfZ7UKwKSAa8MH9ir1wi4fXJomCl9ED4fSPWCVC+EzwOh+qDqE+BOyUJi7Xbkd9aAhMCzzzyD7195JRISEhAngB7JICKkZGQiJSMT02b7w5S6OztxoLoStZX7UFu1H80HqsFD1OnEJyThtO/9RDd9/mlJlxZm9dY15CvAXxj4LgXhcgh4UAjRoUr5oBTiChzxX+l/ePQQ859Iqz2UckEUWSx/Z+b+nrkfCUV5YKDAUjxvXoFUlOcBLAhy+XlSlOcHAixWk+mHEjjN6/PdhjAR4DHOZWigYkrLzvtjS13t6V53jzLYdlS9ASwUJEwsRJVIhBqXGB2AaHWQGj2kRgup0YM1OkhFi+TEBNx/1ixcetIYAMDyZcvwwP33o729HT3peWiYdSZ60vOCtpqg02B+fgaW7wpfheO7s8bivxsrR3R8SaqY5GvCXXMy8Zc//hE5ubn40Y9/DFVo0OCODBjtHkZ3dzcO7NuJA7u248C+nXB3D8xqq9FqsfiKH8Fy9kWIT0wGAUtf/9sf/rxu5cffDehWgrGP3fDnFB7TT/wIxrFIJno4Qcq/lLpcBwP+Ji/204eAgXLJfKvT6Vwdbd8PZf8jol+jlzm818vfFVLeUtbLehURWMzmWxk4m1T1ZtvatZvCiWYxzmXgJIotlm8lpWX8pbXp4NSGQUQJs6KBO2kUPClZcKeMhqpPQFLVFsyYOg379rcczclotJDaeEitHlIbB6nRQWrjwESYkJaAnxgnYE52KiQzNtW14oKpuchJikN3VxcefPBBvP/ee1DjEtFg+hba82ciP9WA/a3BN5lPSlw8PTcsuKTH63DpSXkjDi4sFJgm5ePd6ha0jSkEV1Xg7bffxkMPP4wtDZ1oamlFR0szOtrbIOXRSnK9QpDx8Rg3bSbGTZsJZkZTbRVqdu9A7e6v0NJQFwW46NDWUIe1n32ItsZ6VO/YumTf1o1LIjE7AE6O5hMJeJqBx0tdroPFRuNM6c9KN/ko8YrojxPGjy93Op1RjZ3ZbD5NAI8BmBZCf7SCFOXPZU5nVMByyLolASNJeXOH270tks4nBi7RspbFxfGqql6l18f92tPTPaZ1gD4pWq0W3UKHtnGz4UkedZTCVNXFYRTcYKFA1Rn81h19PFRtfEiR6OLpefjH+XOhV460VZzvT4nr8/lw9dVXY9/evejImYz6eRdA1RsCBxZw6oQsfL7naH8xVTLOnZwDvWZDSLHnu7PykaALv3R0ioBXlUP2xPpe8Uzc9tybOGC+CKxosGnjBvzr6afxvZ/fhIR0v4pDSomu9ja0tzajvbUVHa0t8Ho90AqgW+0tfRAycvORkZuPmQtPRXtzIyq3bkLlV5sRyseop6sTto/fGhn9sJQvEPBPyby/yGL5tWS+u58+BAAqJPN9Wo3m82jytJjN5jkE/JmAs0NyhMzroCj3jx071mGz2aIBquxG4A0CckmIW31Srq2oqIhooYiBSwRaNHdupkej+QUz/4KY0z090bPVqRmjMGFaIVL1GnziWI+mqQuOAhWpaCH1CXCn52Nsog40YQq6PZFN1aOFF4+fPxc6JbhVR6PRID0zC86UqWiZaOqTL6WqrRv3nlqIFfsa4JPcj3NhJOo1OH3iaHywvTaoHH3VnPFo6Qm/tr41NRevb6kamq6DfZg3JgM1HT1AAqF+3vkQni689uqrWFhyKuIn+nNgCyGQmJKKxJRU5ASe7WxvQ0tTI6oP1KOltTVoFHVSWgYK55egcH4JWuprUbltM/Z/tRmdba0jvayYmZ+FovwXUk7UEr3AzDOC3LWRme/3qerHTqcz7MKzWCwmMN9GwKUIn2Fyi2T+syLEF1GClVkAbzIgCfidUJSVNpstqgGKgUsIMhqNo7REt3mF+AWYDRylb0pCUjImTp+BgsKZGJWdC6g+/Pupf6BlUpHfEiOUXmbjxMP+Iz69AZW7N+KMU4rw5tbqiO8xyYaQwHKYW5q7GC0Hg9fOqmztxvdmjcUL6/cF5V4unp4bFFxOm5iFiWkJ2HggtP6vZHwmxqUahjwH8/NSsd7lQndCRkCGINSZLoT+82fw+N8fxq8few49Koech4SkZKSPmYDGTjc6WprQ1tiAjuZGBHMLSM3KQWpWDmYuOh0NVfuwa6MTNTu3QfX5hn9xEa0CEE9SPgWighDcXRkR/UPR6T61r1nTElJUSUs7j4FfgjmiGEZ+PdCD0Gg+KSsri3RKCqvZfDMDfySiA6Sqf1SF+Kw8iH9PDFyiJIvFkkHMt4LoF8yciCgsDYqiwfip0zF19jzkjptwKLskAGDvlk2oGT0NPem5fn8UXXzQrGvehDQ4yytwx89yogIXX2XkyqmnTB+P/6wM3tanu+vwrwuNeHNrNdrdvqPA5eyCbCToNOj09L32w3kTAtxCcFtARrwOj58/F1e8PvR6XD9dOAMfvfQUfAmzjnB62jjUzTsPW1e+hD2bXMg5aV7YNvQC0Gp1SM3MRmpmNpgZna3NaKk/gNaDdVB93n77npCVPx5Z+ePh7u7Ens3rsXvTWnQMZyIt5kXkf1nwq8DbDLyq0+lWrl69us9mXrhwYZqvp2cRA5c0+SsBpET3Sv4CivJPn8/3mStCZYL5RuMk1Z9ovYSAHSrzw0Kj+dIxwLCAGLgc0amks6rewsz/D0BSNKCSnpmFaXOMKJgxG/q4+H4nZwrSMrPw2kfL0Djj1GhOMzRrE5HZWY/sxDgc6AgfFrBz+3a43W7o9fqQ97S3huZebVVNiNMouMFagPtWbDtKqZug0+DMSaPxVi+gG5tiwOmT/KZYTQhw+fu5c8AANh0YmmiRpQUWjknFrzfuBJtm97nWnTkeHXnT8el7b+HKCOAiCNAKwCOPgEdiajoSU9ORVzAN7S2NaKk/gLbGBki1L5Dq4xMwzbwAU03zUV+5BzvW2VC7e/uQTdsRQKCLhMhgVS32eTzZRRZLIjOnMZBNgMnrdk/pc3pFJ4K9I4FX9R7PCtu6dSGVhYWFhbokg+FXKnAXgHhiXgchHgdzmc1m2zHQb9HEQKU4Xvp8N0qf7w4EymiExwBC3qSpmG0tRu7Y8X11BAmJyMjKRsbobMTFG9DS2IAtieOj7kt31njY1qzGT0xn4t7SreH7/a1LwwKLlBKvlZYD6TOCXveoEiv3HcTPLZPw4oZ9faxHh/QwF0/P7QMuV80dByWwroNhy9VzxuOcydl4Yf2+IStyr19YCIfdjqb49KDXm6YugL3sv/iuxwNFFz40QScIHnl0j0gIJKdnIjk9EywlWg/Wo/FAFTpbmo6a89HjJmL0uIlob27EDlcZ9lSsHxGRiYgSwHyyEOLkADIc1nUNgrqI+SkAaxRFWbna6QxqHluyZImyb9++7xPzPQyMD7zvSwk8S0ROh92+ZTAv/18GF2E1mb4nfb77AORHHCitDhNnGTF5rhXpaWmI0xxSnGoxanQOMnNyYUjqi02rnWvRlRk9uHRlTcKyZZ/gxR9di8fKd6E5hNI0hd3408+OpIhdv349enp6kJqaio6ODlRWVuJAXR1uuPq7+H/Lt6GpO3g7n+6qxzmTs3HXoum47v0jpZF9gQV9+sTRSNJr0O72Qa8IfH/WkRzYGtFX31OQnoh7T/NXMFm2K7KJ16BV0OUNrseK0yj47qx8PHb/v9E1OnjGTndqNprj0lC9axvGTp8VAVyi2NRCIDUrG6lZ2XB3daKxtgrNdTVHiU1JaRmYd/r5KFxwKnZtcGDHWjvc3Z0n4vreIoF/khCViqJ8GaxWttFoTNEqyg8q9+79BR0pI6MS8IqU8kNJ5HLabF8NtgP/k+BitVoXw58rY17EAdLpUDDHgqnGYugNCX4diwCS0zKQlZOL9MzRIBF89a7aUwdQRtT96knPRVVTG/Zsq8C1pgm4f9XR8yrAePn7iw+bgpubm3H7bbehtZcIxERomH0Obprnw5ofL8Z176/FF3uOrhK6fLcfBJbMGIN/unZjXW3LYZ0L4PfCPXdyDl7dvB8XTsvFKIO+l7hBvYCG8Pj5c2HQKujxqfhyb0Po8RSEHxsn4PPdDdjeeCST3mUzxuB6SwGmZybBq0rEaRTsb2xGT+6ckG115kxFzd7dEcFFM8AwKb0hAbmTpiJnwmS0HqzHwZpKdLW19BOZDDip6BRMMc7H7o1OfOVYg+7OEyMzIAO7BPMLCrBH0em+WL16dXsvQBmrEeI0Bs4m4DxmTuj1aCukfBxCbNDo9eVr1qzZN5R+/E+BS7HROI2F+CtLeX6ke3VxcZg814rJ84qgC+hThKJBenYepk4ciwRDZGvIPp8yoBFmEugcMx3vvP02brjj13jcsesoZesvzBNgzT9SU+zBv/0NtdpU6ONUMBHcablomjIfPel5+EPpVpyUmYyllxfjaedu/PbzLX3c+qvbuvHVwXZMHZWEP50+A+f+exU4oHM5RBdPz8Wrm/cfVuQeVmL3Apc7T54GY64/0dqKfQfRHYIjKcxKxmPnzsV/NlX2AZa7T5mOm4qP+I0pGr+z829/81t8/PiH6IoLrrPsHD0BjbWRzd2C/H/kAGW13txMV1sLGqor0Xqwro9ZW6PVYoqxGJNmm7Fn01psta9Cd0fbcV3nBExiovsBNPo8ngar2dwJv//MRAQ8iulozcxGAP8EUR0LsXLNmjV1Q+3H/wS4HCqaJYFb0Lu0RLBTK96AKcZiFMwxQ6uPO/xbeu5YpI/OhaLRwBAfnQRcrww8zKgtfwaWLXsJ111/PW4smox7vzyiexmfpMNdi4/oUDZt3Ii3vqrDgZOvDK53YcZP312LT68+GdeaJsKUl4afvOPC3pYj6Qs+3V2PqaOSYMlLxzlTsvHh9gN9fF9KJmRi0bhRMOel9QWXADdQnJ+B/2ctOMIN7Tx6TWqFwM8tE3HHomlYse8gnnEd8WpO6WnGjcWTg/Y/PysDv18wCbeFqGzhSc5ER2d0XLuGAM8QFEGG5FSMS06Fp7sLB6sr0VRX00cBrGg0KJhrwcSZ87BrkwtbylacCOJSRuBPOCBys5QvM7CciFqgKKtsNtuwoOM3vpxrkdl8gUaICgB3hgMWjVaHwvmLcd6Pf4np1kXQ6uOgi0/AmCkzMMW0AJl5Y6FoNBAUnXKty+uDlwaO3T3pY9CZlIU3Xn8d11snYUbWET3OH86YDW0vEexvT/4L9XPOCttec48H17zlQI9PxbycNHx+9Sn41rTcXuByBAx+v7gQWiEOi0WHgOH5i81BRA2BlDgtnrxgXh8upr++ZVZ2Cj67+mT8tuQkNHd7cP37a/soexOrtoLDBElec8Z8aD3Bc7mw0KDJE13wpELDE0anizcgt2AaplkWImvsRIh+3tNCo8HkuVac9+MbMGPBYmh0Oj5R9wYDGyTznUy0jDSayvjExGXDBSxAqCjNb4IIVFycl5eb+w8AfwGQGhK5iZA/5SQsvOgK5BVMg1A0iDMkIrdgGvIKpsOQlNzH8icISNBEXqiNXT14fdPewU26okF16bu46MILMX9iDv6zoRJzc9Lwh9MKDwNbeXk5nt7ZiYXzZuJgpwc9vtBOfnWdblS1duP8qTmI0yi4aFouchLjsGLfQVS1duNn5onQKQJp8TrMHJ2CGaOT+yhs4zRKsIWJKRl+jucQVdS34e/l/lAVnSJw+6Kp+Md585CdGAfJjKvecmJrQ1+9RPy+TTh5Sj6ys7OD9r2jvR2Pl66FTx+cC5wp2mGyFEUcU6/0/xkuEoqCxNR0ZOSOgRAa9HS29wFJoWiQOWY8Js02UWtj/a6O5qbEE2a/EdUBeAbMrzJRKwmxzm63r9u7d68cztd848DFaDRq8/Pzb4WUrwMwhbs3M3885l9wOSbPK4JWH4e4hCTkTZ6O3EnTEJ+QFNSdQCMAQxTgcqCjB+9uGZw+zJOUifjd6yC72nHxmaeiw+vD1XPGY3wvr9db/u+f2DCqEM3dXjx63hxcODUXblViX0sXZBA/jIqGNqTGaWEK6EZmZ6fivCk5WL2/EVMykjAhza/XK0hPPMoSFPQEVwSmjUrq89t/NlZixb6DmJ2dilcvs+LCabmHFb+P2nYF9QbWdjZBV70dJYsXH83F9fTgd/fcg3WJE0PGV83UdsNkNEbsr4+P+LoMJwmhIDE1DRk5+RBCQXdHG7hXnhpFo8XYaTMTqr6q+F1PV6dCRGOPo8TQAubX2W+eriRFaSSiUrvdXjMSL/tG6VwsFstsYn4ezHPC3ZeYloFZJ5+BMQX+gNE4QyKyJ05GcnpmNMqy6AZ2CMuHhUDjSSV48403cOGFF+LuU6b3EYd27dqFNfA7sx3scuPKNxy4wVqA5y82o9XtxZtbqvHq5v2HrT+H6LefV2BGVjIWjPUrhKeOSsJnV588bCLDF3vq8euTp+GGosl9nOzWH2jBn1YE9yhuz5+JPfu/ALM/P8umTZvQUF+PXbt24f333sNObQZUS1zouTTERavkHFFSNBqMHjcRGbljUL9/Lxpr9oMDkdpEpJ+7+Jx5pa+/+DRL+b4guoT9GfyPScoTZm4gId5jKb8E4GUiFUCF3WbbgmHI8n+8xvyYcSsaIe4EcDf61n05agEUFpdgirEYQlGgaLTIGjcJo3Lzo3Z61AkgXR/53tq2Llzx3y+GsiIw9otnMDcvA/965hmIXuDys/v+D0uVo9OEWPLS8fSFRoxJ9lu3tje249VNVXitogo17X4nuVEGPT6/+mTkJccP+zzsb+1CfkpfK1qnx4dTnvsSe5qDKzenp8bh1cuLkJeWjN27d+Oaq66C2+1PXelOyUL1wu8fjuYORneOlTj73Asi9q3bB7R6j536w+vuQX3lHjQeqAKY4fV46t585L6bet2ST0SXADCP0D5UwbwBwAoQuZhZBQANUXWH2+3auHHjiGubv/bgYrVaZ7GUzxMwN9x9o8dNgun085CQmg4Igcy8ccjKnwBFMzDmTS+AtCjApbnLjYte/HRI36ZvOYAptpfx/nvvITHRr3Nobm7GvN8/g7bsKUGfSdZr8fA5s3FRL6WtZIajuhmvbt6PN7ZUY2JaApZfdXJIF/7hpOs/WIdXNvUNSUmP1+GCqTm4fMYYFKQZkJEQD4/Hg2uuvhpbGjshNTp0ZhegZaIJrGjDtv/gvHSYLMWRwUUFWj3HXrfq7upE3b5daGk4ANey93+9c6OjTwIgJhoniC4F87xh2I8qA7uIuZyBNQAOK2dJURoVRVm/ZgCBh/+zYlFJSYmmu7PzTkh5N4WxApGidFnO+FbcuMLZAgBSMrORPb4A+vhBRu1GOf1JcVrQEHlOd2o28s/57mFgAYAvy2xozyoI+Uyb24sfv+1EuXECfn9qIfSKgCCCdUw6rGPSce+phdhY13pMgOWNLdWHgSVBp8H5U3KwpHAMTh4/CoIIm2qbkZHg56Ae+fvf4VCy0Lj41AG9Y2Ju9gl9iuoNCRg7fRYy88ejq611bH9wIeZ9zPwggAkgOpOIrGCOUtajHmKuBrAVzFtYym0Qoof7KoXqiKjCZrPVHetv/1pyLlar9SRI+W+E97BlRaMtP+eH/+8kQ1JySlxCEsZMng5DcuqQ3h2tWAQAFz37EZqHqEW8v3gMfnxK38/8f/96A/9t0ISKqj1Ms0an4JmLTJiYlnDM56i6rRuLn/sSM0an4IoZ+ThvSvZhr+J2tw+26iacPtGvN/rs009x298eQ+XJV4FF9DYGoXpR/otvoZsjK7i6fECb9zhbhQnv3nd+0Y+6FGUWpBwdHC8oDsBJYJ4AorQAAEkJdAuibsncJIADkrkORMGjQ4XwEdF+n8+30+VyHTx+n/t1AxZ/vd6HESwnaG8FFtFT51zz/85IHpVlHT1uEjLzxoZ00x8IaQWQESW4XP/GCmxuGLxLOLHE7pvPQ7LeLxr4fD7s378fEyZMwF8/XI37NxwERwCYRJ0GD559JJ/usaKdTR1IjdNhlKEvU7n+QAu+OtiOy2f4w7k2bdyIn91wE3Yv/AE8iWkDekeipx3Lb7wiKitQpw9oP+7gQjvPyNFMBoD58+dnSa93lmTOHKaNzCxEPYA9BoNh/0ASbv/Pi0VWqzUZqvokgO9EmMCVBDw399TzZudMmmodUzANunjDcenz2PSkIYFLhrvlMLAAwJ49e3DDL36Bx598EreduwBjcnbhl59sghrGstnh8eGn767F57sb8ODZsxCvOTbeBwXpR/ulvL6lChoSh4GlpqYGt95+OyrnXjBgYAGAbK2M2rx8QniyMY//glmzmMgX0H18ajabsxVghiRaCClHE5Eg5oMqcxURtYQDEwJawVxHOl2dx+Opd9nt3hNpz34twKXYZLJIKV8GUbhM6q2Q8l9M5IpLTJQll191aUb2mBFYH9HfOykjBcDgXQgm6voePq5tu2BISMCrr7yCq66+Gt+ZOwmLJuXilY370OXzB/vpNQp0CsGg1UAhQpLeP8UpcVq4ffKYgUsfrsHjwz1fbMEVM/MPxyC1tLTglptvxvbx89E1euKg2p2amToi8zaS+62zEkkAmg9hhGC+hInuJea0Q2IuE0EQMYA9DKwE0QeKlPukonT4fL6OeI+nvVun63C5XN4Ted+e6OBCVrP5Bgn8FWFMzGC2gehZJmonRdlz6z/fPC0+MSlvRA6fAdw7Pj1pSO+anNpXr/fSjkZsTZsO98qV8Ho8+NnPf44xmZm4deG0E3YCdzZ14HH7Lvxq4VRkJ/q/p6W5Gb+4/no4DePRNm72oNu2TBkf9b3yBHHC1xiOJOC2mEx/A9HNYVQWEwmYCOYrVaKXwfwHl8tVia8JnbDgsmDu3FyforwEYHEYUOkg4DkJlIGoh4Rw3P1WeVMcfO+OVL8GskgLMlKGZDGamNgXT6t6GC2TrdjGEgc//BAff/wxfnbddfj+lVcCRNjX0onUOB1S47QnxByqzGjp8eLBs2cfVu61t7fjb3/7G6rHzoPInYl4ry9kFHVEcJk6aUB9OSE2nBv+Ivcm04VhgKU/CQK+B+YrrCbTf0ij+V15efneGLgMRr9iNC70CfEacDiZezBg2UlEj0rmBoWoBopiLysr644n78+ZKXOk+sbwOxMoUeh0U+N1mDoqCdsODkLvwoxxqX0d3eoDFsrmKcXwxSVi9Nr38I/HHkPF5s244847MT4tDQe73Lh/1Vfo9PiwcNwozM/PQKLu+EyzQnQ43OAQJSUl4Y/33XfUmFbUt2H5rjp8trsejuqmo6oS9KcUeJEYp48a7NUTA1tYyUMrAGKi34VdQkQ9JOUjTOQh5lEM5ICoCEQ/YFW91GIy3WNITHz4RFDcfm3AJWANeiyUGMTMkojeIqK3mNmtSLm+d8U4ZvrRSPfRJwElStWFNT9zUOCieLqRFH8kWt6tSrjFkSFpHzsTvoRUZNvfRGlpKTZu3IhbbrsNp512Gm5fOBWO6mb8bfVX+MEbdszJScVPTZNw8fTcE2OHAdh+sB1lVY2w7W/Cmv2NqGobWCVE0+ikqIGF+YQBl/rFRD6LyfSdSE6fYI5jZoWBLYe7LuV/QKRhZqsQ4sbuzs7vWq3Wq2w228YTUqdxonSkpKQkrruz8wkAV4e5rVEC/yDmbaQoB3w+n83lch2Ox/+81l2ostg80n1N0hISooTltdUNuOk9+4DfoWs/iJdOHYfTTjsNgN9vZNbjy48GoZ4OjHa9h4Q6f2F5s9mMG2++GZMm+UWGmvZu7GzqRH5y/OHgxGMOJszYU12LVfXdKK1sxurKgzjY5RlSmw+dMwfGcdGp1bwSaHQff3Qhxue3f6voAo0Q2xBFalUAKhO9QFK+IYkSiVkJbFqvhmirjzmXgG9LIcrsdvuLMc4lCBXPm1fQ3dHxBohmhUFBB4CnFaCNmLeU2Wyb+6szfFKcT8cALr2So8blWTkZSI3ToqVnYIp9xdMNr+fIBmwMkQdXjUtEzfwrMK5hG06mg5gxbQrq6+uRm5uL+Ph45Cb5/xwvcrvd+Nc7H+NfuzpRq2rh1eiHYdFKzB6TPYD5OjE2GwNrNULcESWw+CVL5h/CX3P6OgjRqqhqrk+IPC/zLCZq1vf03OU1GFSz2ZztcDgOxMClt9hgMp0riV4CEMrRwQvmlyXwMYRo03V3r1m1aVNzUAASOONYODS4VT+qRQMvGiFw5uQcvLZpgEp+Zni9RwCpdxoFjSAUpCdidnYqrGPSUTQmHZMzvtUnr+2JQnq9HtdfdiGuD/y/bEclXi3biM/3NaJGkwKmgTs2zs9KgEaJ3qTuPkFMRVvsKzYCeHLgLA+dKYDNBDygT0r6S1lp6Sar1Zqs+HzjPPHxC6Sq7nU6nRUxzqXXkFnN5t8A+B1C5Ldg5koiepSBagix12AwOErtdl+Ie+nTWp/5WOkMvDK6rPIAcPKk3IGDC9Hh6ODe4DI5IxGnjM9EblI80uO1SIvT4WCXByq3Iz1eh7Q4HfSaEzfBYPHksSie7K8iUN3Uigfe/RLv7mtDmz456jYutc4Y0Fx51BPi0ztfeeDuSxDGszwCxTPz77o7O79rsVhut9lsbwHYBGBTidE4qqioaJzX660+kXxfjgu4nFNQoG9KS/sXgO+H2VwrWVWfJSE6hEbjjGR6W1aDMYKQfKy+wa1GDy4zsjNQkJGInY0d0W8KEmhpaTnCAQRO6h2NHdgRoZ14rYL0eB0yZTfyW/chp7sBaYkGnHX22Zg9Z84JsfBUVUVeegr+fvW38HcAr6xejwdKN2OfEn4K0xQVM3OjNwZ61RPDO3fFWy+tlT7fhcPQ1GRiftNqsdgk868cDseKUn/80EGcYHTMjziLxZLRlJa2LAywtEPKB1nKJ0ijqdW0t38SjU2f4Bt7LL/DMwBWmwBcNnPCwDafLh6NjUdKiKbH66J+tturorqtG+s7gPeUcXhnlBUnnXXxMQeWutYOvGvfhFWbtmHb7r2ob2g4zI0pvcQaZsYVC+Zg7a+/j6dPGYtR7paQbX5v7uQBiX/uE0Df0t7UgE///dTwDj6zVQBfWszmd4uMxnk4AemYci5ms7mQmN8DEGqnbQHz4yBqhBBb7Xb7JgBRLQ8GpdMxPKO80m+SjlYCOaUgD4+Xb4tasavqEyB75WRNj9dhYloCdjd3DgjUvjNrLP5w6klIi9Md88U1OiUR67oUPPL59sO/6doPYlRrNXK6G5Ar25GanIxx48fj9NNOw4yZM/Ht4jm4uHgO/vDaJ3jiqxZ4tUeU0TpInDerYEAiUc9xtkEzM175629bpaqmDENjHeyf1ngiv7KKgAtYiPOtFsu7kvkeh8Ox/kQBl2OmAbSaTGeA6DUET5atAnibgLckUZdeVctXuly1A2n/01rfpcy89FgOnkFDSB6AM+wbG3fjkTVbo1lEOD0dePknF/TJQAcAzppm3PXpZrhqmsM2MT7VgAfPno2S8ZnHfZH9ZeVX+Ovqo0uAKJ4eJFZvQepOO3TtBzFlyhRc9/Ofo3j+fADAnrpGXP6v97FL8ev6v1eYg2sXRX9I96hAi+f4gov947fx7hMPDLWZLmb+PYDDWbcEUaIkyiMiPaTMBlAMYAoBb7MQ95wIvi/HBFyKzOafMPAPBHGMY+CgYH5MAtuJ+UB8UlJZaWlpz0Df8ekB3/ks+b1jPXhZcYRoufQen4rv/OczNHWH5l6IGX8uysNPFofOLe6TjJ++68Lb244OitQIwnXmSbhj0dTDWfs9qsRnu+uxqa4VN82f3Ccf77Gi+1d9hQdWha4xFN+4H6nb1yDxwE6YzWbcceedyMvz+7Hc+NzbeKOO8do1ZyNJHz0H1uzm4yoWVe/chn/efq1Ufb6hDbifY7keQNCFI4ikAHZLRWmQUpqJeSERNTPRezabzfWNBJclS5YolXv3PgjglyEGbRWA5yRRJzOvdzqdg65L+2mNdxEDK471ACZrCYYBCJcfbt2H+78M7ed3WbbAE1dHLAgJt09i8fNf4qte3r+FWcn4+zlzMDfHzxxuONCCVzdX4Y0t1fBKic+uOvm4OdIBwCPlO/H70vA1zfWtdRi16VOkt9Xipz/7GS6/4goIIVDR5AaL6AdaZaCh5/hxLR0tTXjilh+i9WD9cG3U1wj4uxSiRUpJALQawOADkgEkE7PCRKoi5c64pKQtpaWlPcXFxXkej0c5XsGOIwYuhYWFukSD4UUAlwc7xFnK50C0EsxtHlVdvX79+pahvO+Tas4X5DvmgziQ5FGA36R8w1ursan+6CRiGk83dv3qIiTGRedo9t5Xtbj6LQfiNAruWDQV15knYX9bF5Zu9iflPpQUWxDhP5dacOak0SM+HlvrW2DQ6TAuNbjF9e/lO/GHCAADAElVWzBq03LMmjgWt939W6gZA9PXt3uBTt/xARfV58Wzv7kB+7ZsGNZmIcS5NpttWbB9PHPmzNT4+PhMIsoiVU33AfsTExO3DkYKOKHBJZDY6W0QLQ4iBm1n4HFirj/suzIMwVf3MIsFtb42AMf8aE7VEeIGkCZle0MLrn1j9VHq58mdVSi/9+dRt+P2SVz+6hr8ZnEhdjV14pXN+7Fib8NR7d6+cCp+tXBqn9+q9u/HmPz8YR+LdrcPi579AnlJ8bhsRj4uKxyDeG3fwXncvgu/+Tyyz5fweZC9cw0ev/0GpOVE31eVgYM9fNxM0O8+8QDsH789AruVOoSUp5U5nfZo9qCUchSArubm5uadO3e6v/bgYrVaR0PKD3F0ftvDSltmdiuq6lizbt2+4Xz38hrvcgCnH+tBVAgYFUcDGsx/2bfi32t39/ltTvM2fHb/rwb07uvfWIU3d7fAowZXLpxVMBovXWLpY75d8eWXGJOfj4kTJ47IeHy6ux6Xv1YOwJ+k6qJpubhm7njMHH3EYPLcur247ZONEQFgfjLjz989f0Dvb/UA3cfJSvTl0hew/KWnht4QcweIOgCM7rdPDwopF5W5XNsGuM+P+YAMq2bPYrFMgJQrgwBLFavqb5n5DRU44GP+cLiBJUClx4UNZn9dnIHQD4xTMSW9r+hQX1uD1tbWqNvYv38/3ly3IySwTEhLwFMXzOsDLA6HAw899BAmTDjaG6CxeeCS6dOrNsHd7/2nT8zCZTP8WQBbe7x4Yf0+lDz3Jc58cSVeXL8PHR4frpk7HvefOSssIKfIHvzusnMG1B+fPH7AYv/oreEBFj+4PMXMNxPzHfDrEg+tsFFSiM/NZnPhQFo7HuMxbOBiMplmEPNKAJP7DBHwMTP/WijKLlKUDQ6H4/PekczDuslV9dXjpsDz8YBSKeoUgd+cYerj5dupT8YTjz8edRuP/uMJeOODe7QatAr+820zknrl4N23dy/uvPNOTLj4h0cVgatt78Gj66v7rW8Ose6P/L6ji3H+S6uPSplw32kzkJnQV3fkqmnGTR9vwEmPLcMNH67HzNHJePDs2UGd4oRU8deLTg5apzqsWHac9CwbVizDe/98cNjaY6JJACCB/cz8JKT8JTN/EQCKHAGUWq1WI05gGhZwsVqtixWi1QDyevFh9RK4F8wvEnCQNJrlthEuH3l2ftxOBuzHYyAlA+0D5F7GpiXhd2fMO3x6d+ZOwVvvvIMnn3iijwNdMPrs00/x4VfVIYuGPXLuHEzJPAI87e3tuPmWW7BzSgmKTPP69Z3x8w/WQukXRPjvDcH1469srjr875LxWVhb24xTn/sSX+xpOPx7erwOD5wxM+jznR4f/rOxEuf8exWecu7G9Myj04HeaC3A1NyB+ej0qP6wjGNN2+wr8ebf/9inEH0vjqEWzFvBvBPAAe5dSDqseoXOIuYDEMLFRPVM1AzgaWb+DYh2AhgFKT8rMpkWnKjgMuRszVaT6RIG3qQjilQVzB9JKR8hojoN0c78CRNWffLJJ13H4oOuvPl3nUS45HgMplcCWkEDqhM9Ni0JQkqsq22G1OqheHuw7bP3YbfZkDV6NHJzc4/iMurq6nD9Db9ElfFbQUud/sI6CVfPGQ+tcqQj9917Lz71pqN1ogl/OWNmH47mccduPL9uH86fmgNzXvphwLnyTQdOm5iFUYa+HMjP31+HheMykGHQIzsxDv+w70KH14elFVXo8alYNG4UiAhTRyVha0MbtoeJhWrs8qChs6+u8aJJGbh64dwBg3uz59grcTesWIalD94D1df3ZCHmT8H8EAPvBMSaLwB8wlJ+IIjWQ4hWZjYQUSjPXS2EGDtu3Li/L1++fFdmVlaVotHEg1mFlKUEHATRDBBdlTdmzMbq6urt3yhwsZpMV4Dov4cqHjJzJYAHAaxQiNqgKKvK7fbtW7ZsOWZz/sMHf79NdvD3AKQfjwH1SCBeid6xDgBm5Y1CbVMzdjV3oTtzPPTNtWjevQ0ff/QRlr72GlauXIlPly9HWno6xowZg4SEBDy6rQVNKUcnS1o4bhRuXzgNKXEaaALOcm+++SYe+2ItDs48HdNGJeHG4iOS67aD7fjxO06oknHZjHwUZvm5nc/2NOC5dXuRl2xA0Zi+Q3n/qq+wv7ULF07LhV4j8NnuelQHalHbqpqw/kArTpuUhXiNgoXjMvHKpkp0RZknd1FOEu48Z37UtbsPUauXj3nelvIPXsc7j98PqarBlBzPgqg2CEeiMtAI5goAn4L5S0FUz0AGAf2BZkJLS4u+uqbm0wMHDvRUV1dXjhs/vh5SpjFQx8yrBVESgDvG5OXVVdfUuE4kcBm0WFRkNn8P/jwsGgAeAG+QvxD8bgFUtnd3f3w8SkguJvIBuP14Dahkv4/FQIgA3HGGBQtzk8FCQe38y9FYuBhSo0dbWxs2btgAm82Gp//5z0MLFGcZj047kJccj8sKx6C2vedwFPWB2lr89flXUD/3PADAKb3CAdyqxLXvuuD2+Xdlbw7lUBnWT3YeOIrPb+3x4p1tNdh4wK98LpnQV3xZvqsOpzz7JdbWNmOUQYc/nBqd7tGclYDfnb9wwHlpulW/SHQs6fOXn8H7/3womCh0aE6LBZEbQuxgIptWr/9SZV4NIVwKsEsALYHJPCiZPwHz7cR8T8Cx1NurndstJtPhAvZr1qypL3c6P4YQLkFUL5mfFcCdAO61ms334gTKLjmojgTy3D4BQBDzNsn8NIhqBdCpZXYMNC5oJGh5rfdTME47Xu8fqOcuAHhVibveLoW9wc8FkPQh/mAlNN1tIJ8XmZuW48knnsDcuXPhUSUm/+k1dGgNhxXEZxaMhsqMl75tOax4/cUNN+LN5NnwJI0CAPz3UivOKvA709316WY85TxiDi+95hTMHJ2CNrcX0x9dhh6fCkGELb8487Byts3txYSHPwLgtwq9elkRbFVNOPelVUd9j14RuGfxSbjWNBHfe8OOj3eETpRmzUnGH89bAN0Ac9H4AiksjxVrrPq8eO+pB+FcFrHAhCqAs8ocjs9C3WA0Gg0ajSaPVDVPJco6nMaSKImBswk4C/78L0zAT8sdjqd7P19SUhLX3d1tYlXNV6RskopyLYg605uafvLRcfBrGbJYZDWZbgTRowQ0MvOzzPxfImrTEO3yMK8qd7laTwTU/OFNf/icSV4D4LjkePRIQCcIygD2iiIIp08fj+oDtdjd7gFIwJuQBndqNtzpeVDcXejauQlnn302FEGgng6sONB5mKPY0diB5y82H+ZAPl2+HP+34QA6c/xikFYI/O2sWdApAl/sacAdyzf1ef8tC6YgSa/Fy5v348PtBw63Oy0z+bCPyoEO92FA2t3ciUXjRsGcl45/OvccZZJWmf0iU1s37lw0Fa9s3h/UbH7WxCzcfbZ1wMAiGWjyMI6VNNTe3IgX770VW21RRZkIBs4am5PzflVtbdBcK7W1td7q6uqmqpqavWlpaTt0en03pEwMHPpbCFgOoIeBMSC6NC83t626pqb80PN79+71VVdXV+bm5bWyoozTAF9AUTq79fo/TBw9+pPKAwe6juceHNBsWkym20B0HwNLWVVvB1AmiJpZiOVrHA7HiZQFa/EYqpJM1x+v9zOAFi/DN8CVL4hw9wWn4KJxKUeVCWyafgpWu9Zj+3a/7u6GM60Yp/EeVsCeOyUb00b5LS9utxsPPP8qWiYdSc5nyktDok6Dlh4vfvnR+qNO+4wAKL28cX+f3z/uJRo19/TN5Xvfl1uhEYSF4zJCftN/NlbiR++4cNWccUdd++7s8bjjDBN0ihj4+Hr4mGX1r929HU/96lpUbh1QsPFoKcSXxUbjzEg3VlRUeOx2+3a7y/WBRqf7TACVALoYeIelvAlE/ySi31rM5r/0f9bhcOxvamr6kAEfM+8TGs2NHo3m0WKTae7XAlyKLJbbSYhTCLgezG9LRelUmDeXO52f2O32RpyAdGae5mUmPHC83i/ZvwEGmsKVANx0zkL8Zv4kaNQjeK3q4lA/60z8+8UXDwPRq1efAQ37FQ6/LDqS6+Tll1/G1rx56K1ZPnmcXzT65UfrUd3PLyVJr4FeEdjZ1AFnv3QOX+xpOMyVNPeL6C6vasKyXXUoGZ8V9ps21bXi3xsqoQ+AiE4h/PbUWfhpceGgcv+2eRB1neihkvPT9/HUr65FS/2gpP0sKcSn0QBMP73Kao1e/4HQaHYritLNUn7JRN8nQGO1WB7or9LYuXOnu8zhWKP1+bb5fL7xPil/oQpxhsViOeuEBheryXQhMTsZeEIyuxWiGp1O91GZyxV1MqfjRS3ZmrsAvHG83u8LmEgHkyP69NnT8Y+LipDiPZIgqj1/Bt7eWo1dO/2lmiaPSsYfz5iFGVnJmJfjz3vS2dmJx5eVozujbzxOyYRMvLShEu9/dfQmyTzEtWzaf9S1To8Pq/b5OfvG7qNF+T9+uRWnjB8V8Xtae7xwqxLjUw341yULcdqUwcU2tXmPjRduV3srXr7/13j70T/B5x1SKZQsKcQXRSZTyUAeWr16dXt5ebnNK+V7EGKHYE6ElB9ogX9ZLJbvlJSUxPV/ZpXLVSmlXCGEOEnr9b6kMLcXmc3fPiHBxWg0aju6uz9TieIBkKLVrihzOL5cvXp1O74GdBmRmpaj+Q6AD45XH7xy8AAzLS8bS6+7BKckekABMaluzjn4y5PPHr7nx6ZJeOjsIzWXX3vtNVSN6+u8majTID1eh19/FjzdwyiDHpIZSyuqgl4/ZDVqDpKLpqK+DZvqWkNGQvfmyL4zaxz+eekijEtPHjSwdB0DL9yd6+149IYfoGLNF8PVZAYTLbOYTD8d6IMul6vLbrc7vVK+pwjR4ZVyXFNT0xvd3d26UPc7HI4VXq020cvc6PU725UYjUbtCQUuXq9XZzAYFhLRbrvd/mFZWVk1vmZkIvJq3JpL4Xdo+toBjF6j4A/fvxi/s+QjuacFqjYOH+gmYrXdeXjTGgNlU30+H/71uQPulL7pFebnZ+AXH6xDhye4G3GGQYcv9x48Slw6RB/uOAAG0BSiftKfVmzDgrGhuZfJGUl48uJi/Gz+DOg1mhMWWDw93fjg6Yfxwj03ob2pYfA6N+YGAI8D+C2kfJCY3wNRDRE9aTWbHyspKdEMBmTWOByOLrfbOSolpVAIEVbHabfbt8e53fU6IKfc6VyhB8aWFBYmHqs1H1bYXTB1apI3JWWiwWD46njmhRgu+oJZ4zugPgV/oanjQhoC0vQUVa3poGKWquKJd5fh7aoupHTUw/Wba5CUeCTLxLJPPsGPPtmGrqy+gYmjE+NQ1xF6Cq+cPQ7dXhWvb6kKPX7XnIL/bqzE0649Qa+fOiELn+/pmxwpJU6Ln5oLcM5J4yFIDHKj+p3kRtqXZattBT54+mG0NAzdPYuZn0T/5GXMpBClS6Jz4ffA/f5QfMEsFkuGqqptkQwpS5YsUWp3785r7uk5kJiYGCeE8JaVlXUfV3BZsmSJsnTpUhXfMPq0xnMtg0LWox5xdpGAVC1BNwT/6MbGJjz+zkdo9Uh88KsfQAl4427Yuh2nv7kJUhnYp/1o3nj8Z+N+9PhCT/cdi6ZiV1NnSNEpQadBZ4AzStRpcPXcifjWjPHQawc/zGpAKT6S3rct9bV4/+n/wzb7ymFrk5mfAfCZIOpg5h4ABg7ULBJArUrUIoDriPnlcqez9FisO6PRmJKUlOQuLS314BjoSgn/o7SsynsaCbyAXsGWx5oGUnM6FB082IhEvcDM3FHQB8Dqxc/Lceua/VAHUDp12qgkbDsYXo02OzsVGfG6o7iT/hzSFbPG4ryTxkGvGVrFAY8cnLUtalHV3YM1776K0teel16Pe1jTjxDzGpXoWofDcTgrVmFhYWJiYuJYqOpkFsKn1WpXeL3eOQAMdrt9+bHY8IWFhTq3203HInlUUHBZMHdu7up162q+6QDzxR5O9em9jwB05fHqQ7xCSNL6uZnhAKtUHSFZQ1i6wob/9+Ve+HTxw7pYcpPjj9LL6DUCZ07KxjlT8zAjdxR4GILtu3xAu3dkPG+lqsK5/D18/sozakdz42D4x/0MVBFgQWhH1B5Fq522Zs2aYHmLyGw2jxFSFkghdjocjmqz2Tw+ISGh5hipH2jJkiVipKUSCsU+aRXlFxLY39nZ+UpFRYXnmwwyy2p95xL4aTByj8f7FfKHC+iV4W1v695K3LRsM2p6hv9AHJtiwMnjM7FofBYKs0dBpeE5+FUGWj08Ij4szIyKNV/gkxcf9zYfqBm0rMZEL0PK9wSQz0Q3AsgJwb3cV+503h2uLbPZnM/MhvOdzh0VS5bQ7t279SOV7+hYU7jzkorM5h8zcCsDbynMb5Y5nQ6cGNUxh50+rOVMDXv/Sn4u5rgUWzZoCIma4eFiek9wt8eD7Q3N2HmwDbubOrCzqR37W7tDWo769EmrID/FgCkZiZiYnoRpmcmYlpWKeL1+2HOnjBS3IlUVm1d/hi9eeba7oboyfhhQysbA3w8NEQlxHZiDJW5q7Ha7x23cuDFSJTuxaO7cjNr29radO3d6rFZrVnxHR2dpRUXHNxJcLBZLhq67W0qNJtmn0TxKwAXwF2V6C0J84PP5bK4TII5o1qxZCUmKkqLq9SnM7FeYSZnIAWWtCniEEJ0AQERdWrf74Mp160LaGD/d757FirgfwNnHi4tJ0g4s4fdg3qETBJYqWnrc6PR4AQa6fT4kaDWQICTqNEiL10OrKHBLwK2OXHCgV/pBZbi5Fa/HjXWfvs9fvPZCT3vzwYGAyhvEvEsSTSZgMfoV8mPmTiZaKISoZeY5UNUMIroYRJf031NE9EC53R5VlH5JSYkmMzOTly5dqi5cuDDN7XbrHQ7HgW8i54L5c+eO82m1Y4loD3y+yRDiL/DLmQgon7YBsAFwCmA3pNyrT0raO0i5kRYuXJjqdrvTNMwpPqJ0IhotmEcxMAr+qNEsJsoE8ygAmYFJH8w29AFogL949x5i3sbAVyzEVp1Ot23VqlXNn1V750t/6MBxyfSlFX6Q0Ql8Y0lloNM3/L4r7U0NKP/gzY6y918Tnp5uw0D5EgA/YPbHVLCUeiHExQycf6iEaoDutTkcvwUgrFbrXFbVKUS0EMBPe69JBjyKqhaWrV27M9oOGI1G7cSJEyUA1NbWJufk5LR9Ha22FMWHGrREFhClQ1GqScocyXwFgIsRSBIVZHIOAOgA0AagFUAHAW4mSgCzLgDpcWBOISCF/SCRfIKMCYN5G4hWKkKs+t6dfzFMsSy88niBjF4BEjUE7TcIZGQvUBkuWGEpsWO9Q658/cX6vVvWZ3IgfcEgxZ5fEFGtJPJAyqQAB1IA4Lpe+pW6+ISE8YcOUovFMoGZzURkEsw3MKDvtck+Lnc4BpRp3Gg0anU6naasrKz76+oSQgP42LGKosyClEkEeInIDaJZDBSD+WQASd/cMxZ7U7JGr1t00Xcz5iw+tyjOkHDMq7rrhF8no1e+vv4DXulP7NQ9jKDSUl8L20dv1biWvxvX1d42LNkHmfnhcRMm3LZ06VLVaDQaNMzTSVEKGDCA6PpD+hUiurvcbr/v0HPFxcXpqqqeIqScJYHbiOiwdyMTXWC3298f6P4sLi6OO6uszH3PCR7DNyRwOaR4slqtk5h5CqRM7tWIRhJlCWAMM48nosnMXEBE+m8g0PjSc/JqZy86M3WqZWFS3qSpoGNYe1khP8jEK8Or+B05NtCfNLvLN3w6lY6WJjiXvbffuewd2dJwYCyGGW8Z+NLucJT0/m3hzJlpXr2+mJlTSVEuA/O3wNyp6HST1qxZc9jxp6SwMLHHYFgMopPYXxYkNYBY+zV6feFgYvICnIvE18yYMuhJMZvN2QrzJAZyOISnqyBKlMxp8OcHTYUQSWDWM7OWhNCDWQNmPfypMr0g8vQ7QiQovI2TmYkAAwE6EGkZSAFzGoiOSQyFPt7QM2muRRTMtugmzTYhI2fMMeVm4hS/8vdEAhoOcCk9KtCjDo8TXGtDvbp+xbLKdZ++5z1Ys38ShiG5fOhdQT3a7u7cVZs29ck9cQ8gPjYa50iiqSA6lYAfgflVm9P5nd73FRcXx7PXWyKZp5MQv0YgnzMxP1PudP4Y/yM0HEtSmM3mLEXKXKkomYI5VTKfCBoCLQHpDIwlYBKEKGAppxHRiPYtOSOTC2abaeIsIybONiE5PfOYAo1WABpx7EUnlf0etZ4AoAwVT1hK7Nmyvtq17N267a6y9O6O9vHHdGMQ3VJutz8U7FpAv2IRwCIAP2OiC+12e5+o+8LCQl2SwXAyq+oMKMrdADKGIB79z4LLUWAzc+bMlLi4uDTyZyY3wJ9qMh6AAVJqjuPHpoPoagCmY/XOUXljMX76LIyZPgtjp85AZt7YERejCH5rk04cARtBwzfZkv15arwS8Eq/uDNU7oSZUbdne/OmVZ9XbrGvkI1VlRMkc+oQOagNgvltEFWzlMmsKCcRsBjME6JAly02uz1kZnGj0ThKCHGyAOYzcLFWp5vTX+RZsmSJsn/PnkUq0WwC7iZgFIA6n5QzXC7XwRi4jMA7CwsLtWPdbqrU67WJiYlCCHEYcLq7u6XX6x1QebG4uDhFp9MpPp9Pp9FoFJ/Pp2dmgxAiTmFOUInSIGV8YBXrSIh/Irila8QpPiEJY6YWIn9KIfKnzUD+lELEJRybKHhBfp2NIEDAX/6Eei0EooBQz/6/Gf6IZIZftFHZDyLDIfh7errd+yo27NzmXN24Y50tvqWutkBKNW2YxbNyMD9y1DgAUyVwDRGNDTtewOkREmynKIqymJingyjNZrf/Kpi+pGrv3oUMzJbMdxNRJohet9ntS2Lg8g0ho9FoiAdGqUJMZuCD3qbCkIPDvI+FWE9SfqUS9RDRGEh5eW8rwJAnQAhk5OYje9wkjB43CaPHTUT2uElIG517TBXFI0k9He1t+3du3b93k6t15waXqN+/O9Pb0zN+RPUmAWkNzL9kIbYKKd2sKDpmHgUpNUSkgPn8gOObJgQ7VWpzOheHe0FJYWFiT3z8qSpRsoZ5e5nTeVTFz3sA8YHZvJCknA2i3xBRJhNdbbfbX4iByzeIikymEib6IuyCBNYw8ycAdgeRxRcC+PmIK4x0es4aO4FGB0Ana+wEpGblID0rG4pWd8KNq1RVtDTUNtRX7q3e/9Xm1sptm/lg9d6kztaWXCllznHs2j9tDsdPex0yWo1GM/6QxVMAU5joJhxdkAwAWGWe5XQ6N0c6uIQQJyuKUk9EW0PkShEWi2WBYJ7LwG8BxJOimMrLy7fGwOUbQhaz+d1AKMNRC4mY10h/vt0DfcUJkmBuk0JIYp4E4B9R6hEkETUxcxcRJQcW8NDGnAiG5BRPama2mpGdpyRnZOqS0zORmJqGpPRMGJJTEGdIQFxC0rCIWz6vB90d7e0dTQc7Wxvr2xrrajqaD1R3NNfX+lrqDujamg8murs6M6XPNzokB3A8FzhRR1xnZ06QOB1hNpunAygUzJkgugXAhCCi1Wt2h+PySO8pKSmJ6+jomO50OjcgtE+KsFqt81lVzUR0N4BqodFYj0Xiphi4jDTXYjZfwMC7QVBgH4ieYX+x8EMDwyxENRHtiY+PP1BaWuoDAKvVOhlSbg+DKB0ElAOws5Q7WYieXtdGEdECEF2AQOKgESZWNNpufVx8DwAoGo0bJCQJ8giNtgcsyef2xAeAkFmqqs/n0as+n1aqahwzJ+E4BXEGHVnAJoCvJOAlZh2IMhmYREAk0/RtNofjb8EuWK3WZKjqQkg5GopyK4CT+uOr0GjGR5PetaSkJM7j8ST39nsJtucsFstCYrYCuBNES212+89i4PI1JqvVmgwpNwPI7/Xxbgm8TsDHh2JJBJEUwO4Ot3tLsGjWIrP52xy8mkA3A2+xqi4nIdwROJpUoSg3g7kAMYqWBXmWpfw0KDvg92k6mYHz0S/IMDDPleUOx3iE0EUbjUatoihFUNWJJMSNAOb0u+Vpm8NxbTTdLCws1FVUVPgQ3qNWFJvNi5ioSEp5hyD6WbnD8eo3bcqU/5W1mZeb+1ggwvXQYnWxlH8FsOHQogvUuF65dv36vXV1dUHzkubl5f0MgLUfWmwF8x8BbCQi9RDnQ0CjBCqFouxlYL9QlEbBzEIIRapqGYSYHjBPxig8NQJ48tA8MZEqAJ8gIgaIAQ8DO1jKT4lIC6LJ/Q7OlLF5eeVVNTVBgwdra2tldXV1ZV5+Poh5N4BxIMrpJRrNys3Le76mpqYtUkcbGhpURDaocfGCBVWtbW0aEO0C8Juc3NwPa2pqGr9Jk/Y/wblYLJYfEfO/Av/tBPA8M6/udfJ1aKV0RlHjWljM5u0BNty/7ojeBfPrhzgfAroE81fQ6faFkqVnzZqVEBcXNw9SnkRE9yHgYPU/Qt0MPE/AaAIWMpAVBdfiYikfJEU5oNFonL38SaiwsDAhJSUlg73ePB8whpgVYrZCiJ+jr+f4cpvDcWYUHO5JrKomIvoVgN5+Ls/bHI5rhnMgAmbqEgYKGfhOt9t9ehS5X2LgcqJQsclkUYlWEKAnwA4pX5JEBw+JQJJo27hx4zZHE3VqsVjOIuaPA//1gvkfDNgPteVjrpgwYcLWaCNYi43GmUx0H/t1MP9L9E9mLgUzAVhIQnwnmDjTi1aA+REf87vhMt2XlJTEdbe1FUKIyWAuhBC34EitcFV4POPKNmyojmKepxDzAhDd1Ut09UlgqsPh2D2cA2E0GrUaohKhKPmsqvO/SeEB32ixqLi4OE8yLycgkYjulVK+w0Q9AECK0uhT1S+dTue+LVu2ROUXNiY39yEAUwF0M/PfAKw/xK34mL90uVx7o20LAKpqa+vz8vIuBTA9HAsNIjciWWKYt0KISiCqVJ0csGBpozhgfCBaB+bPWIhlYF4tiPaAOQVEwQBBJcAbob/5pCjvgVmAqFIIUUrM+b1FkX6cy0FSlFccDkdluI7u3bvXV11bW5s3Zkwt+au41IJofuAbBSsKV9fULIs0ONXV1Y05ubndClAFwAwgEYAg5qzqmpphrd5ZW1srU9PSqjRabQaYa8fk5c2vrqlxxcDlBCaj0ZhCzJ+BiATz+ZKoFUA8AawwV5Q7HOW1tbVRJ7UKcBkPMXMrgL8A2B7Q09Q2trSUVlRUDKYCpRiTl/dXhPCxAPNnDPwfAUsZmEKhRYiVzPwQEzURcEqEd3ZJ4C8EPEdEm5h5RiinQAa+BPMDYC4FsBPMBwAcYGAHmD8n/8bvb10RDDjJn5ArFDeSoBB95pVyKQnhIeZEZraT31N7WhAo9KpSvlBTU1MfzaBWV1d3Z+fk7BdEFADQQn9XaVJVdfVDUehEUFNT05ifk+OVQC35AUrPQGFObu6rw60baWhoUOPj46vi4uNHQUpffm5uSlVtbXUMXE5AOqegQO82GN4HUO2T8jwoSh6kzIQQ7aqUK+wu196BtjlmzJgnAYwhv8PVwQD3s8fmcKxuamryDaafRSbTBSA6qrwnMe+DHyw+A9ANgAVAIAoWE7WHmR8CkaoQ5QFYGI4LIea/APgq8P8mknIdEy0iIt1RuhFVvY+IunrJ0F4wd0JR3MIfgb4NRAkEFPSTtUdLKX8TiFSfFIJ1mieZH3I6nQfiDYbdCUlJelbVGgK6QDSrD0dFlKSX8rnK2tqoK8HX1tZ6U9PS9uk0mnYQzYEfmBOzc3IctbW1O6LlLMdkZ3uJqAlEC4hIQ8CY6pqaYbfsNDU1qVOmTKmVPl8yNJrE/Px8d1VVVXsMXE4gKikp0bQryr+Z+XO703lzXl7edGKeqAC74hMSVpaVlQ046bHZbDYTcC8pyrcls4YAIZi/sjkcjqEo81pbWl4F0ei+zAI+BtHf2W8hAQFeDdEeD3OzIFrST1zoIeCPDLQT0MVAAhGdEUbB9l/p98EBhKhiYC8ASUJ4ABj7cS27iegzQeRWgZ16t9tZtn79uura2u3V1dU7RufkbNf6U7U0CaJTeuk2Dq2r/QDeAVEzmOcQUX/xK1nRaPZXVVWtbWpqUquqqqpz8/K6mKiDmLtBNLs3N6QSrR2ouNDQ0KBOTkur9Wm1DOB0AEIRIrmquvrlaNuorq09kDtmjErMKohMRDQ1Pyfn45HgLPbu3evLHzfuoKqqWgCpkydPbt67d68vBi4nBonRWVl/FsALNqdzqclkmiqEmK7x+crL1q7dsnfv3sGkKxL5eXlLifkmn5QHBJAFIbbYnM71Q+locmLijwD8pDenEFAQf4RepnGh1a4os9n2jR8/vpWlvLkfALzGzOsJ8EJRPiOi7wGYG+KV61nKF0AECWxzOBy2mpqahura2l25eXltYD6ViFJ6sRabmMjR43Z/tG7dusrK+vqe/rqCqtragzk5OTUkRAEBs/oMGpFbMD8HoEMQ1QbAq49DHktZWF1T82gvUaR5/PjxDayqbgCit8hFRO7qmprXBrxhGxo8E3NyKiUwDURTiWhs3pgxj1ZXV0ddFGz+/PnVre3tbpIyB0STQDSruqbmXyOxgKuqqnyjRo3q0mq1Krq64vYfOPC15V6+SemfhcViuUbj9f5fmcOxZv7cueMUYBIRfbJm3bp9g23UYrFcy8xLSatdTkSTScrtdrt9w1D1Qcx8b+8Dkpl/fcjyBCG69cyl5U7n6kPmbCLqbyXZT34ggo/ZbrPZ2sC8IIRCtJmZnwQRQ4gqp9O5rtdVOX78+FVCiJf7cTn1GqAukmnU5XIdJKIn++sxGJic2tq6HYryBYAvCXiQAHffbtFEq9X6rd6/rVmzpl7rdn8G4BUwr+olRp2MQVo3V7pctawojwLoYeY4qOqAaoUvXbpUjY+PX8HAk/B7cVusJtMlI7WQN27c2Bnf0dHS469aQTFwOc7fUWQyFWc0Nb20et26muLi4jyp12fHJyYus9lsbYNt1Gq1jibmsXan82FmnqUoyj7b2rVD1uRriR4EkB3YhJuZ+Xc4FM8kRJ3BYPi4v88NdXf3t778h5lVhWify+WqNJvNE+G3ZB2l3iApnwDQRkBXU1OTPdjmYaLHADT1+tnj8ydXj0g2m201iPqLCZlNGRmTbDZbnVfKz6SU5SzlY8zcl3uU8q7+7a3atKmZhShl4HEQ7QwAUabVai0Z7JinNzauALAsgGqXD/T50tLSHqHVfsFCPAigFUL8rbCwcMQiSAOxUN7CwkJtDFyOI1mt1sRyp3P1Rzt3uufPn59FHk9ceXm57VA80GCJpDw9PiHht4vmzs1kZkN5ebljqH21WCxnMdEPA4v8QwLuB9AVUBBX2O32L4KVZvFoNL1znVQw80YCvPqEhLUAIJjPCaE4LZXAZgJY0enKQtUIttlsVQA+PLIyhFdKGS1Lzsy87mi9NGcHuJvWHq93OStKKQEvHT0klqMU1Xa7vZGJvmBVffAQ6LGqfm+w4/7Rzp1un98j2xdQo2UPtI2ysrImVVWXA3gEzPkJ8fHXj+S6drlcXZmZmTIGLseRDnEnc+bMSfX5fOoal2vXUNs0m835ik73bmlpqepVlCkdHR2rMcQM7HPmzEkl5qcDHMv9LOVLzKwykcpEq2w220aEMJMKKdN6gd4rAMBCbOwFRMHApUUI8V8AUIHNEQLqACmf7QUXPp1OF7WpnoA1R/XZX1/qMKtvMBg+ZSGWMvBxv2+7I1ibDofjABTlc2Z+CICXhLjYaDQO+iSfOHFiGQPOgK7x6kFu+F0K8B6YXyai3y5cuDBtJNf2UA/IGLgMAxUWFupyOjq67Xb7kH0QSkpKNDqdrmX16tXtZrN5gtLevnEY6mWTXqN5DkA2E11LzI5D+hWNRvOpw+HYH5Y1IMoPgNIGSbRLEHXY7fadgf7GgWhxEH7ieSllp0LU7HQ6KyKCtMtVSkB1ACzI5/NFXSuHiTYHYWf0/UWLzs7OUhLiGQZ29Xr2gjlz5qQGa9dut2/XEC0D8ytgTleA7w52ApYuXaoy8GJg4V882HbWOBwuAC8SsMPT0/MbxOibDS4VFRXej0Kw/IM4LdTVq1e3n1NQoPd6vU2rv/pqyBr7IovlJhCdQcwXEtEu9ufUblFVdVlZWVlTxIkK+Isw8A4ACK124yFOqqejYzH6pXAgwMGAXRDJbq+3HNFlp2QElMTMrNdqtVFzahQIqejTlqJ0B5mnjnifr5SBR3speHV6rfa6cJtZEr0IYL3wxwwNmqSUL8CvS5pbWFg42DpH0se8WhL9g4guC+i7YvRNBRcMb00XBoD6lBRl/fr1LcOgZylm5ltJytOkELtYVbOZqN7L/KnL5eqKskOTQOQi5m0EtK5Zs+awKzwLcWm/27tYyucD17YO5Bu8Uv43gBY6pbt7IGPan2Pshhqc8Sl1uQ4qivKOBP7d6/t+FG4zJyQkrCJF+T8QTS6aN2/6UPQYAL4EoE0yGC4ZSjtE9LEEnhVE98eg5JsNLsNK9wAi2o0fAVgyCHhASHkq6XQ7BPNcUpT95zkcX4QLwgvCGhSQqr4AAIpOV3EIAAsLC3Vgvrjf8fwaEzVDiPaxY8dWDHDTlDLQyoDeo4u+UjUz9+e+Wpk5pL6gvLx8LwPPcSCMgoBJC43GhWG4yR5VVT8h5qdYoxmSKMLMbwT+Pm+Iur46oaqvA+i2Wq1FsV0TA5dowWU4tPQkpPyVUJQr2np6drPXu1AS7bLZbKsH0X4bCbGRiTp6cy0JCQlnAuitVNxLQnwKABqNxj6IGsNMzHYA8b2rMkQij8fT/z111L/I3dEiioOAfx4CSq+i/CTc/Q6H44APeJWZE4uLi/MGOykq8+sAPERkXrJkyZAcSW1r124iKV8m5qvwP5g2NgYux4mKTKYLpBAPlJWVVSckJFh9wG673e4cqAi3cOHCNDC/rEqZqFHVrb2fJ+bL+4lzz0lmqQC7IlqHQm16omUEpCgez6A3HgN10h/NHY5L8kKIl8B8yNJ0fqQ16XA4NkrmF1Sv96ohikabGMjZt2/fjKGK0O3d3StJyhUWi+Xc2KqPgcuI04K5c3NZUUrtdnujyWSaqvh8tZGyyIeinp6erMbm5qVCCHHW2rWH84mUlJTEAejt4folM+8QRO6GlpZBexFLKd8n5kT3ADiXxMTEPqc2ATXC72EaUbQgokeZWYI53WoyRcptIxVFWU5Aq9FoHEoWv1IABCnPGupcV1RUdLBGUwYg22g0GmKrPwYuI0qr162rtdlsbRaLJUOr1XaUrV27c7BtOZ3O7QaDQUNS7ugtTnV1dZ0DIDmgP+hk5lcAQEi5YecQLGcul2sbC+HWSBm1Byp1dmr66TV2qaoaVZBoe1fXB0Rk96uW6HtRAFIbaTSfK4oya9DyqqJ8HNBlzR6O+S4vL9+rqqpdUZSY7iUGLiNOfE5BgV5RFI4mc3ykthITExPaenr6ZEETzFceUe6IVwG0kaI0rnG5hpwtjZh3+4SIi/Z+X++gR8BLQKVGo4kKXCoqKjrA/HhAnDolGt1FeXn5NmZuNxqNKYP5Po1G4wLARDRpKI55/Wib1+ttWzR3bmZs+cfAZUSpUq/naHxYoqHW1taW3o58i+bOzWTgvACbsI/8yZtYCDFgnU4InUkFEcVHe7+q0aT2Ylv2MeDzer3NUS9Erfb1QBxRlsViWRhNF4UQX2k0mrjBfN+qVauaGTgA5lwhxLDkMHa5XF4hxF41Pj4mGsXAZWRpGLx6Q7blUZTv4VC9a6J/S2bJQuwcLjCTwGrqFXIQcaczH+YgmGgnAV6XyxV10GhZWVk3mN8GAJLy29E8Y7PZ2txu96DFPyLaBCBbUZRhc+F3uVwHu7u7u4ZqhYqBS4yOHxFdHfjbxsxbBJG7s7Nz43A1L6V0SqKouQKlVwUDBnaxEE0D5aAk8IRfwqIF0T4zefLk9sFGJ5M/zkjLzBOGc2pSUlKaGxoatDFwidHXjoqMxnkAZjPgkcwvB2SETcPJKblcrlYhRNRhD5L5sN+J8Oc8GXCMl8Ph2M3AOsl8UrS6lKVLl6qBImQDF/2kXBsA0mENPiwtLfW1t7erMXCJ0dePFOWaAFv/BjHXE9Bqs9l2DvviEOLAAESMvIB41MB+B7pBBZAqQnxMRAmKoiwcwGODcngk5j2B70wZ7rEbkPd1DFxidCLQOQUFemb+DoA6MC8HAEm0FsMbWwUA6OjoqIpa5GDODYga6wMbdlDgwl7vywBAqrpgpMeSdLq9AABVjXnWxsAlRk2pqRfAr994nJl7mKja4XAcGIl3bdq0qVlRlOh0B0TjA39vEEQdoapNRqLytWu3ElE9aTSFIz2WZWVlTSCq574Z+GIUA5f/1RkT1wBwsZQbBZHU6XTrRvJ1Wq02Wj3OVAa8UlUrpD8h9+CJea2UcuKsWbMSRpx7CQQxxigGLv/TtGDu3Fwwnwkh7gVRvI95e6+6ySNC0egOAk5j6QAqSAi3oihDAxeiVQRkx8fHp430mHql/AuE6I6trhi4/E+TqtVeycCbQsoGCNHDzJtPhH55FWUKAChEm5hI6vX6uiExLlLaAaQxc8ZI9z0pKalGSNkSW10xcPmfJsl8uaKqv/YBYxSfb9OJYpHgQNUBH7OLiBqGmvdVEm0DoCjAiGd4Ky0t9ZFWuyO2umLg8j9LVqNxIZg/hF4Phbm9bO3aXSdK38gPLpuIuV5R1ZqhtudwOKoA9EiitGPR/2GI/YpRDFy+zjMlLtLq9fdLKSeyooyI6XkInMsUOmQW12hqhqdJNEgpE2MTHwOXGI0gzZkzJ5WJNvX09AgAXTabre6E6iDRLEi5OuDM1zZMrTYIKRNisx8DlxiNIMVrtUUGg+E/RDRRM4QkUCMFfABaVEVpVYHK4WOHuA6ABrHUkTFwidHIkRRiV2ZmJgPwDkeZk+EknU43D8DLRJTMzPuHjxmiehC1L1my5IRao7Fo5+hJExuCE5tKSko0paWlOwCMaWlpOeGsGiTlLBbiDQAnuVyu1mFrmLmbgbrdu3cLAMc0CHDR3LmZXo1mMQNTwTydicYBGE1AduXevfriefOmDyWzYAxcYnRC0CGzbrzP17NzmIq+DS+60EFFUTzweCqHs1kmahHMLYakpGOuuHZrtZcQ8xOB7ztKLvMNY/6XmFgUo+POvZS4XCdm/IsQW71eb5q+p2fPsGIW4BBEncelVrKUoyPcsT+2KmPg8o3hXu4ZnjpKw0qFhYW6+Pj4Co2UamlFRcdwtq34fOUAjotbPhFlhbncNlKBojFwiVGMAlRRUeEpLS3t0RK1DHfbq9etq2Epj4/y+lCEd3CO6qvYzMfAJUbHgAoKCvRdwMGRaFs/Qu1GJOaQ4CID5WdjFJliCt0YDYlGUslc6nI1HqfPGhcGeGJxSDHOJUbfADrmliKr1ToaQDjP4BjnEgOXGMVoEBtCymlhrzPHdC4xcIlRjAZOKnNYcFHi4mJiUQxcYhSjgRMRTQ9zuWakM//FwCVGMfrmUjjOJaZviYFLjGI0SM4FmB6GrYnpWwZAx8UUvXDhwjTV7Z4lmSeBKI2INGBuA/NeL7PD5XINi3+D2WzOJqKTBPMoyZwmhEhlKd0sRDNJWaOo6vY169ZVYghWCaPRmKIhWgCi0UyUCSm7IEQ1Ea0ZbN6VoqKi8ezzGUE0moiSADRKYLeiKGWDLdkRjEpKSuK6u7sLmTlfMKcycyoJoWfmZiZqgP+d24fyzoD1ZTYzT7Tb7U+FG+vi4uI8VVXnCyBbSqmBEHsMBsPHpaWlPcPxvbNmzUowaLUzIMT0wHrQBb51q8FgKGtqatIzkB+ygSjN0OcUFOhbUlNPksAMFmKj3W7fELI/ev2pIJospaxVmZcPcu0Lq9U6iZmn9JrHRJayg4haCNijEn1lt9uPqWn/mOXKMBqNozRCXEXA5QwYw3BNKgEfSaJb7Hb7gNnQYrN5vgp8n4BzAIyP4pFO+At5uZjIpaiqvczl2hZpMovM5osYuBFAcQiQZgCrBPCnMofj4yg2YTIz/4yAn4C5IMRtPWB+DYryR5vNNijF4vz587NUr/dKAN8CMD+KA4YB7ACwFoALQrji4+PLQmx4YTabZynAyQycDGABgOwjV0W+zWar6v3AkiVLlH379n2PmH8JYF6QNuuI+Ypyp7N0MN97TkGBvik19TIQXcnAyQToQ9xaS8AyBq4Ks1m+Ve5wvBfiu40K0XlgPpeBuYfGlZifLHc6r+t9c2FhoS7RYLgDwE0AUnuvRQmc63A4VkTzXc1paRcx0aVgPgNANFUj6w7NIxO5iKhsJBOPjTi4lBQWJnYbDHcBuAHh/Qf6U7nN4SiO9maLxXIWmP9M/okdCi23ORxnhuGGJgrgZQCWAbR5o83h+HtITsVsvoCBZwGMirK9diZaFOpEDAHuORpF+R2YrwGgG8oAMdHUYMBvsVguJuY3Qz2nMs90Op2bewHqSZDyuSjGsksCMx0Ox+6BrG2LxfIDYr4PQN5wrGWVeZrT6TxKNLKazbcC+GsIZP7Y7nCc04eTk/J9AKYQr7nS5nC8FKoPAWC6DsBdALKG+Em32hyOB7+WYpHVai3qlvI/GFwW971RviMZUv4DzN8fpm5XhHmXEVJ+FuUp0Xsz6kOCosl0EwMPDhDok4go6sz/FotlCTE/BebhSBXQM27cuF12u/3o41tKlSn0Z2ilPMztWE2mcyHlKwCSoninQQC/AXBNNB1cNHdupkejeQHM5wzjcvYx8+7g0hKrFOK7CYjr0y/mVQAKQrLEYSKuA2D8HwBzhuODRJi1PkztjwwVmc2XQcovBgksYKL/RKFTmQhmF4DvD2PXt4Z4Vz5L+dFAgQWAR+P1vhpqjIhooMACAE6bzbY1KlncbP47Mb8GYLhykHy1dOnSoMmbpBCp4R5UDIbGANidD6K3owSWQ3RRNOt1vtE4ya3RlMEvFg8n7QlVykUQhUtm5QtwjlqPRvNGGJEXANrburrKggKLyXQhpHQNF7AAgEfKLSMJLiPCuVgslouY+T9Rtn8QgBdA5uH7mZfZHY4PInAskyHll2DOidD+WgBbALQykEqAGcCUkLw0c0WIBfQQmDNDPOYFUAGiDmbOIT+gUuBU+9Oadev2BRFTUhh4NAywtDJQIQAt+2NdDrHA3cR8IyIroclqNj8D4OoI9zWCeSX7S7Bqya9kL0avE7ffMb0lzEk1KkynOletWtVsNpvNxLwUgHaAyyq1qKhobHl5eUiOtri4OE/6fJ8TMDaS7oGAFSCqY8BAzBYGZoQ/7Tik/k8yJ4biXMDsBgCNEHcCWBShXx9WVFR4ggDLFSD6d4T95AGwAn7OpwtEY5h5Pvn3VVAgc7lc+79W4GK1WmcFWDdNGA3hOgIe0uh07/RyShLFJpNJAvO1cXEvhNs8i+bOzXRL+REB4YDlFSa6y2637+m3qcdqhNgXckDi4o7aPEVFRdNZVS8N8YgLQlzUW1FptVpHQ1UXsRB1dodjZdBTnOjaUDIzMz+qaLW397bSmM3mQgWYowJlDqczou7BajbfFxZYiPZByl+OnTDh/f6cSJHZ/B4D5wd9TIiQrLSUcjyFFouqLRZLhmB+nY8GrhoADQBmh93fXu+YUOLyOQUF+iaf7x2EB5YDTHSLwWB4rX8SKovFcn6Aw4sP8d3bw4xlchgOvLaoqGi6VNW7IrGnAngkyH5aDClfCLOfugHc65Py8f5pRi0m009B9GSIPm/BCMduDSu4nFNQoG+S8lUAhtAHAD9kSEy8PUiGMVnmdNoB2CPNgUdRXiVgUqg1DuCqUEoxRVFmgUOOac2qVauaj+pzaGCBAO4u62cBCWjgXw/7EURLQvSiq7O7+9YKp7PPCeZwOCoQpYxcZDZfxsCdYU7hZfFdXZeUVlR02JzOYOAfcpNLPxcY6psmhFmt+0jKR5mo9+Y/AOZf2JzONwGwxWz+CwG3h97DFHK9Nqam/on8VshQtE3x+c4OxkUCQEZT0/KmtDRNmO8OZ7kMWXaWgP2sqn8MY6U6NCdflDmda4JwYm8gtAL+ACnKqeXl5VtDjNesMO8bUZFo2MGlKS3tdoTxcGTmR+1O5y1D4ozM5v8HYHGYybypPIy2nZjDWSa2hFjVIQFJMusH8RnEwMxQezQuLk4TYHMHTIvmzs30+MWtUGSP7+6+JFTmOLPZnI1wvh5hAI7D69dmo1eGNwI2q8C5DqfzMGuuAB/JMODCitIThlu+Icy76yFEyZp160KaXZsyMmZASm0YYPsqzJobHwF4Lu732w4CHmOgHcAsABcqzD85am35fE+H0ZW1CeZzy0IAyyHmZTDzeMKBi8ViyQBzOODYoIa/Ht3GIfpjqI3OwGs2h+ORSF0dMLgwh86pKsTfjEbj6oE4P82ZMyclpE4DiNMK8Tj8lpEBs60erfYvYA5louxSfL7LwqWkVJgtoSw+DLgNBsPu0Hss7Cbr3ac64fOdX75u3f5+ms+ucBpbIgqeXlJV/4QwXA0T/cgewZ+DmOeHG2wRTiwKA6oM/JR669WY345PTPxOPz+hm4Lsp4sjWLtuLHM614WVIvzAFep7R5xzGT5rkZQ/BZAc5mPuHGrhdI9GczuYQ5X47FKlvC0SxwC/QnegSrvmMM8UaISwFRUVTY/2OyZPntwOvxI41IK8ymo2v240Gg0D1HdNBvMPwnCOD4QSC3rtImuYOdwdKmG22WweHU4c7rPXma8I1g8lvHLe197eXhOUayE6N8yEf2a329+P3CteFAbVOsrKyoKWqS0pKdGE4/T6iUN2H/NlUXgcC8H8h3Dcp83heCGsFJGRMTeMOAWScsfXBlxIiHA+CNvKnc6PhtJ+SWFhIoBrwyyAf7hcrrDlLYrN5mIA6WFu2TMgjqbXycWqWl5kNn8vmm9ZunSpGkUu1m9rhbCZTKYZAwD4X4bhRhsVrfaByHuMzwtzeXcYFjhal4MXQnnbMtFJYZ7bGcySAil/iDCmfEn0pyjF1IVhxmRHKC6yq6srH9FZvtoVn++yaA7YYrP5zLDWKyHuQKSE7VKGm0fVQ7TvawEuAX+TcPb7pUN9R1dCwuUI4xchVPXZiHsPuCzsYIRwkhJ+bX0kESWZgZesJtMLs2bNiuiJzMALUdwzQyGyWyyWn0VckMXF8QC+F2aD/DdSjJDFYpmCMMpcEmJPmL5OiWIaWxSt9vYwp/zMAYuswCVhnqmy2+1fRLF+FyGM5ZHCKHOZOVpQ/WtErvHIOv1xOIC32WylUTSzJMy1/UOVIo4ZuChEp0aQZz8fMmfEHG6wyqOJBwJwabg51Scl7Q12oczl2sbAM9F1lH4Qp9evtFqtY8Iqu3S6p+CP2YlE8cT8hNVsfspoNIY8IdnrPQN941T6dktRIoKZYL4s/GEod4fZENOiAMun1qxZUx/m+uyBgIvZbJ4IINw4vxON3koQXRXhlu1h1v6EKOawPr6r6+Folk9AFA7HdUQ86CwWy2wAU8Owp3twDGhYwEUyl4RbU5q4uCEVT581a1YCA+He8WlEfYTJ9G2EjzGpDScLKxrNDfAHOEbGF2AupLQZjcaQPherV69uF8yXwx84GQ1dqyF6K1StYiYKtyCbbDbb2nCNFxYW6hj4aYTv2h0G/KdG6L+PgX+EunhOQYEeYbgfJtp6NI7Toggi3upIgzpnzpxUhD+4woJLlJzLP6Ot66QoyqkIrewHMX8WcVNL+f8GO48nHLgQMDnM5bZgviMDoQS93hTWT4C5LAqO4o4Id+wKd7GsrKzb7fUuBlAaZbdzNUK8VVJSEnKhlDmd65ioBP5o1Wi4ovP27d17X4irC8I8Vx7ptEsyGK6KwAWEFBsDFAlcXnc4HCE9QhvT06eF011wEOsGMc8PO1yKEvFQ02k0tyJCGIII452LyLomVqR8fgAc+oIwlz1xiYmusIeo1TqGia6MIHZ9fcAFYaJ5CRhycfII7DIUVa2IwCZehPAOVqDQytzDtH79+pb05uazGfhXlF2f19PZGXai7Xa7k/3u9mujBPJbzGZzfpBTP+TmJik3R9LXMBAJfBGqZGtJSYkGRAURNs2LEZoPN8dSo9F8FWQscsM12N3dvS/CRhxNQvwy0nd3+3zhwCWSWPTpGpdr1wCWe7hx2BnR0iTlbxA56n3PNwJcGFCG3Dpz2JD5DlU9GGYBJRNzJN8XyCjl0I927nTbHY6fEHAFogBOJvpRpHvsdvue9Obm+QD+LwodgUbpl3OkPiVlNML4LEkhwiYJUn2+30VxAteHYu07OjomIbzFpLW9u/uzCOAzMwzntTuYMpqJMsM06d24cWNnhHX1WBjXhkNUt379+pYhcC6vD+NaPxjhEC1GeGVwNBzoCQcu4awjWUN9DwsRLs+JGm4Rkao+hPAep4OSQ8sdjlchhBmR8qoyT48WtGwOx01MdDki10ju06Y2ch6YtlAXioxGKwGRnRuJQoKvElmZ+15QM3JfmhlmDENZijLCT2nodWc1mX4I5kujmJrtYfU14ceeIcSHA9Mx0Kgw4xAyOfiCBQuSiPm5aPaaNoxi/kQEl3DIri0qKhobTSMWi2WK1Wz+8wAXkbJgwYKgMrPVbL4lGs5hsEoum822g4nmI7zVJ6mwsDDq5Ex2u30pMZ+LME52sp+vDms0oyJMckqI8Z7AQryDaDy1wyzIiGZo5rej+PSZYdrfGqLduHAc3qK5c4OumyKz+XQmejzKzb431KV4rfakCOL8+v6Z96JQAYRe60KkhBJLfR7P0ij0XgDQvnLduoavE7g0hR2wMIF/h6bQajZfQ8x2AHcUm0z9XfTD2uQ9Hs+0ICfTjQAeiPYDVKLKwXy43W5vpPD6ioYoTu2+XJHfyew/Ydja6oGMDwepxWMymaaCeTmA0VEt+jDjQ0JMC8t4arVfRDhUMhBOf0IUCrzDWmC8Gs3iIOviXCZ6K2Ig4ZHBawyzZqZHOLA+Huh6CpsEjHlK/z1rNBoN3Z2drwA4K8pX7McxouEBF6JIWvm7QrjHi2Kz+Wyr2bwS/jSPKQCg9l+sYdhBABBEP+ulYxljMZtfAtHD/b4vrB+MRqM5GGTRX2w1m39fXFwcKU1iuKjYPubQIovlniKL5ccBp7dwlB5mo6/uBx6RaulcuGDu3FzAn7PWYrH8SCEq7xdZ3oMwXpsUXt4vDHPtq7KysrCHj5ByZgRwDMU91EfgAu4MeHZjzpw5qRaz+S8geq+3noWAzQC6wnx3Yxhu7qQIgLx6wHsp/FxmWSyWw06DxWbzfEWIVTjakXDbYPU2w0nDErhIzCs5vINaGktpt5rNzzLRWvJHEp8E4FsyiLa9f4AaAbs5/IT80GI2TyPAByktdLSfQD0z/4GI/huihc4gCkMi5scBZEuf79dWk2kFA+9BiHKNRrNrzZo1DcXFxbns832LgftDrj+iF3vrN5j5dwDAPt+DRWbz+wCW+5idid3dexsAT2JiYgGkvB7+BNrBgLzD7fG81UcuVJTd0ucLN0JpPo3GWWQ2uyr37p1LQfx9CLidma8dBLgQmMNtsohuAlKISRQ6DQa0UoYCl83wJwIPqRbpNhh2Wc3mHSCaHUR562EhfgIpw/WxMcyhelKEA8sxiO20G+G8hZlftJrN1wDIlcBsOnovLCNgPRNN+0aAiwq8RsADEXxREgHcEG4RBahOCNE/wVJEfwXyZ7IPRt1MdBExjwuzSI4a8OLi4jTp82Uf1lkSLSZgMZiher2wms2IsKEBYKXdbn/n8CZSlGm9vj+Zge8C+K5ChG6DAYn+0zDSyfb7/taLsrKypiKzuZLDJ0rKCZUACsDT5Q7HI1az+bcD3WRFRUXjWFWTwsxLRHAJOzeATGltrQrB0awiop9HaD4LQFaISPqf6TyeXR5N2G3QGEaEmR4mN9DucN7IYWg9wvks+Q/Oc0Ksja3auLgrvD09/3cicC7DIhY5HI4Dwq+pHipJJrquPxfh9SfF7hxEe+0SuMBut5cRUVyYDXuUNUX09MQN8VsOSH8mOO61ifRDbPMTn5R/DyECvDfINp+LT0j4ea+FG+oAaQ0uGcjCsFgohC2KPmSH0+d9tHOnOyhHo9e/H06kiSBq/drmcDzHCQm+CDcG9SspKSxMBPPYMM/ZBtUvokHNIwGbhVZ7xqpVq5oRJiE8iFq/VuACAHHd3beBeesQmmhnokvtdvtb/S+4XK4uZn52gO1tl8DJDofjs8BiGtC3rl63rhZA7SC/pUYC5/QvhSGBdYMWPYHPut3uS0IFnEngCT8GRE0+AHfZHI4f9UqjIMKwuDQIfctBm822OYpvSwizGUIeKqtXr24nov8b4FB6mOg6u9P5p8C68EUQ2YKykl0JCdMQLrE6Uelg5tlgMHw2iH30rkavP7msrKw68G4lDOjR1w5cSisqOnzMZ/PANxAT8BaEMAYDliM9Fb9HdJ6FHiJ6OL6ry+hwONYfnmshRJjFTUGZAeYfI7LPSX960yfl7N7v7sXhOZj5oQG2101Ed+ePH39WOH+eQBrMaK1jdpJyoc3h+DP6Ou0pgwC9GWGu3YtIqQH8p7UuzGYIbxFS1fsIiE63wbwRQsy32+2H88om19VFsuQFlXtIyrAF65nojUHto9JSnyC6DtFlIjzARD+2ORwX9QmxCX+Qfv3AJcBhVCoazQJmvhmRTV67ATwOIczlDse3I1UQtNvtjYqUZyB0jt06AH9jomnldvvN/b1JWcpgtn1fYGE+HaxBm9P5ofRvnufhT0kYUi5n4D8kpdHmcFwSLiud3em8Bcxnwh+jFI7T2EFEf1K02vHldvt9ocp59Omvw3E3gD8GuJJgnMpHxHyhzeEoKne5grHtwXQEtSB6VgqxK8SGLewrPWEPgJfAfGZ55KyA4QDEA8BOYYIdD3G1pNGcDaLXQwCBBPA5AVfYnM65NputT2xOQOSqD8J5dID5bSLaHoIz6a3MbYI/fOM5JroKQkwfSunUMofjSyb6NkLHnG0i4JfxXV2T7Xb7M/2/m5iDzWMniD6UwEfHClxGFMWKioqmSynnCuZRIIqXUrYIoFYwVwww3qJPn61WqxWqagSgZSHqmXmDw+EIm83caDSmKEQ/hN8VvhFAVWdn59ZofVCMRqNWA1hBNCGQC7abgAPEvKfM6dwQzQndnxYuXJjm7ekpZiFyAGQQcwMBB71SboiU+CocBar6nREoc9Ioifa53e7ySO7wVpPpUgYyBFGDJGpQVXVrpPSdZrN5DjP72K+3qh1MnpBik8kiiUwENKrAQSLabzAYQma9C/Pdk0lKf91u5mYw79HGxTkjBc5aTaZLWIhMkrKFiA5Kol12u31fuDm1WCwThBAcFxd3YLhqWR+l1ykpievp7DyDmScB8LIQ1Vqv17563bqaSHOiEC2SUh4URA0qsNvhcOwdzBqNUYxiFKMYxShGMYpRjGIUoxjFKEYxitGJRf8ftDBikOjydlUAAAAldEVYdGRhdGU6Y3JlYXRlADIwMTctMDgtMTBUMDA6NDg6NTErMDA6MDDcPoHvAAAAJXRFWHRkYXRlOm1vZGlmeQAyMDE3LTA4LTEwVDAwOjQ4OjUxKzAwOjAwrWM5UwAAAABJRU5ErkJggg==;" parent="e0zx1OXjUzG2xtG4G9Sb-516" vertex="1">
          <mxGeometry x="760" y="5.140000000000001" width="119" height="79.75" as="geometry" />
        </mxCell>
        <mxCell id="e0zx1OXjUzG2xtG4G9Sb-522" value="" style="edgeStyle=orthogonalEdgeStyle;fontSize=12;html=1;endArrow=blockThin;endFill=1;rounded=0;strokeWidth=5;endSize=4;startSize=4;dashed=1;strokeColor=#4284F3;exitX=1;exitY=0.5;exitDx=0;exitDy=0;exitPerimeter=0;entryX=0;entryY=0.5;entryDx=0;entryDy=0;" parent="1" source="e0zx1OXjUzG2xtG4G9Sb-209" target="e0zx1OXjUzG2xtG4G9Sb-514" edge="1">
          <mxGeometry width="100" relative="1" as="geometry">
            <mxPoint x="900" y="390" as="sourcePoint" />
            <mxPoint x="1000" y="390" as="targetPoint" />
            <Array as="points">
              <mxPoint x="300" y="195" />
              <mxPoint x="300" y="605" />
            </Array>
          </mxGeometry>
        </mxCell>
        <mxCell id="e0zx1OXjUzG2xtG4G9Sb-523" value="" style="edgeStyle=orthogonalEdgeStyle;fontSize=12;html=1;endArrow=blockThin;endFill=1;rounded=0;strokeWidth=5;endSize=4;startSize=4;dashed=1;strokeColor=#4284F3;entryX=0;entryY=0.5;entryDx=0;entryDy=0;exitX=1;exitY=0.5;exitDx=0;exitDy=0;" parent="1" source="e0zx1OXjUzG2xtG4G9Sb-514" edge="1">
          <mxGeometry width="100" relative="1" as="geometry">
            <mxPoint x="1440" y="710" as="sourcePoint" />
            <mxPoint x="1420" y="194.98000000000002" as="targetPoint" />
            <Array as="points">
              <mxPoint x="1370" y="605" />
              <mxPoint x="1370" y="195" />
            </Array>
          </mxGeometry>
        </mxCell>
        <mxCell id="CcuzoNxnnxqacmadoABp-9" value="" style="edgeStyle=orthogonalEdgeStyle;fontSize=12;html=1;endArrow=blockThin;endFill=1;strokeWidth=5;endSize=4;startSize=4;dashed=0;strokeColor=#4284F3;entryX=0;entryY=0.5;entryDx=0;entryDy=0;rounded=0;exitX=1;exitY=0.5;exitDx=0;exitDy=0;" parent="1" source="e0zx1OXjUzG2xtG4G9Sb-410" edge="1">
          <mxGeometry width="100" relative="1" as="geometry">
            <mxPoint x="1320" y="195" as="sourcePoint" />
            <mxPoint x="1420" y="194.98000000000002" as="targetPoint" />
          </mxGeometry>
        </mxCell>
        <mxCell id="e0zx1OXjUzG2xtG4G9Sb-434" value="" style="strokeColor=#dddddd;fillColor=#ffffff;shadow=1;strokeWidth=1;rounded=1;absoluteArcSize=1;arcSize=2;fontSize=10;fontColor=#9E9E9E;align=center;html=1;container=0;" parent="1" vertex="1">
          <mxGeometry x="1420" y="150" width="190" height="90" as="geometry" />
        </mxCell>
        <mxCell id="e0zx1OXjUzG2xtG4G9Sb-435" value="" style="shape=image;verticalLabelPosition=bottom;labelBackgroundColor=default;verticalAlign=top;aspect=fixed;imageAspect=0;image=https://upload.wikimedia.org/wikipedia/commons/thumb/4/4c/Looker.svg/2560px-Looker.svg.png;" parent="1" vertex="1">
          <mxGeometry x="1434.95" y="173.72000000000003" width="160.11" height="42.56" as="geometry" />
        </mxCell>
        <mxCell id="whYgnRyrsbjswguHOp5a-2" value="&lt;font style=&quot;font-size: 34px;&quot;&gt;Next&amp;nbsp; &amp;nbsp; &amp;nbsp;project&lt;/font&gt;" style="text;html=1;align=center;verticalAlign=middle;resizable=0;points=[];autosize=1;strokeColor=none;fillColor=none;fontSize=34;fontColor=#4285F4;" vertex="1" parent="1">
          <mxGeometry x="731" y="439" width="240" height="50" as="geometry" />
        </mxCell>
      </root>
    </mxGraphModel>
  </diagram>
</mxfile>
